SplineFontDB: 3.2
FontName: KAAlmouziosMain-Regular
FullName: KA Almouzios Main Regular
FamilyName: KA Almouzios Main
Weight: Book
Copyright: SIL OPEN FONT LICENSE Version 1.1
Version: 1.000
ItalicAngle: 0
UnderlinePosition: -100
UnderlineWidth: 50
Ascent: 800
Descent: 200
InvalidEm: 0
sfntRevision: 0x00010000
LayerCount: 2
Layer: 0 1 "Back" 1
Layer: 1 1 "Fore" 0
XUID: [1021 596 -667042339 13515240]
StyleMap: 0x0040
FSType: 8
OS2Version: 3
OS2_WeightWidthSlopeOnly: 0
OS2_UseTypoMetrics: 0
CreationTime: 1487363816
ModificationTime: 1728390314
PfmFamily: 81
TTFWeight: 400
TTFWidth: 5
LineGap: 0
VLineGap: 0
Panose: 0 0 5 0 0 0 0 0 0 0
OS2TypoAscent: 800
OS2TypoAOffset: 0
OS2TypoDescent: -200
OS2TypoDOffset: 0
OS2TypoLinegap: 200
OS2WinAscent: 1000
OS2WinAOffset: 0
OS2WinDescent: 200
OS2WinDOffset: 0
HheadAscent: 1000
HheadAOffset: 0
HheadDescent: -200
HheadDOffset: 0
OS2SubXSize: 650
OS2SubYSize: 600
OS2SubXOff: 0
OS2SubYOff: 75
OS2SupXSize: 650
OS2SupYSize: 600
OS2SupXOff: 0
OS2SupYOff: 350
OS2StrikeYSize: 50
OS2StrikeYPos: 300
OS2CapHeight: 700
OS2XHeight: 500
OS2Vendor: 'UKWN'
OS2CodePages: 00000001.00000000
OS2UnicodeRanges: 00000001.00000000.00000000.00000000
DEI: 91125
ShortTable: maxp 16
  1
  0
  110
  185
  10
  248
  4
  1
  2
  30
  6
  0
  100
  0
  2
  3
EndShort
LangName: 1033 "" "" "" "1.000;UKWN;KAAlmouziosMain-Regular" "" "Version 1.000" "" "" "" "Trevor Bullock" "" "" "" "This Font Software is licensed under the SIL Open Font License, Version 1.1. This license is available with a FAQ at: http://scripts.sil.org/OFL" "http://scripts.sil.org/OFL"
Encoding: UnicodeBmp
Compacted: 1
UnicodeInterp: none
NameList: AGL For New Fonts
DisplaySize: -128
AntiAlias: 1
FitToEm: 1
WinInfo: 28 14 6
BeginChars: 65542 110

StartChar: .notdef
Encoding: 65536 -1 0
Width: 626
VWidth: 1392
GlyphClass: 1
Flags: W
LayerCount: 2
Back
SplineSet
410 -200 m 1,0,-1
 93 -200 l 1,1,-1
 93 800 l 1,2,-1
 410 800 l 1,3,-1
 410 -200 l 1,0,-1
168 733 m 1,4,-1
 168 700 l 1,5,-1
 233 700 l 1,6,-1
 233 663 l 1,7,-1
 167 663 l 1,8,-1
 167 630 l 1,9,-1
 333 630 l 1,10,-1
 333 663 l 1,11,-1
 267 663 l 1,12,-1
 267 700 l 1,13,-1
 333 700 l 1,14,-1
 333 733 l 1,15,-1
 168 733 l 1,4,-1
167 604 m 1,16,-1
 167 500 l 1,17,-1
 333 500 l 1,18,-1
 333 534 l 1,19,-1
 267 534 l 1,20,-1
 267 604 l 1,21,-1
 167 604 l 1,16,-1
233 534 m 1,22,-1
 200 534 l 1,23,-1
 200 570 l 1,24,-1
 233 570 l 1,25,-1
 233 534 l 1,22,-1
167 473 m 1,26,-1
 167 440 l 1,27,-1
 233 440 l 1,28,-1
 233 403 l 1,29,-1
 167 403 l 1,30,-1
 167 370 l 1,31,-1
 267 370 l 1,32,-1
 267 440 l 1,33,-1
 333 440 l 1,34,-1
 333 473 l 1,35,-1
 167 473 l 1,26,-1
300 413 m 1,36,-1
 300 347 l 1,37,-1
 167 347 l 1,38,-1
 167 313 l 1,39,-1
 333 313 l 1,40,-1
 333 413 l 1,41,-1
 300 413 l 1,36,-1
233 291 m 1,42,-1
 233 235 l 1,43,-1
 267 235 l 1,44,-1
 267 258 l 1,45,-1
 300 258 l 1,46,-1
 300 211 l 1,47,-1
 200 211 l 1,48,-1
 200 291 l 1,49,-1
 167 291 l 1,50,-1
 167 178 l 1,51,-1
 333 178 l 1,52,-1
 333 291 l 1,53,-1
 233 291 l 1,42,-1
167 118 m 1,54,-1
 167 5 l 1,55,-1
 333 5 l 1,56,-1
 333 118 l 1,57,-1
 167 118 l 1,54,-1
300 38 m 1,58,-1
 200 38 l 1,59,-1
 200 85 l 1,60,-1
 300 85 l 1,61,-1
 300 38 l 1,58,-1
167 -18 m 1,62,-1
 167 -51 l 1,63,-1
 237 -51 l 1,64,-1
 167 -98 l 1,65,-1
 167 -131 l 1,66,-1
 333 -131 l 1,67,-1
 333 -98 l 1,68,-1
 231 -98 l 1,69,-1
 301 -51 l 1,70,-1
 333 -51 l 1,71,-1
 333 -18 l 1,72,-1
 167 -18 l 1,62,-1
EndSplineSet
Fore
SplineSet
522 0 m 1,0,-1
 154.280273438 0 l 1,1,-1
 154.280273438 1160 l 1,2,-1
 522 1160 l 1,3,-1
 522 0 l 1,0,-1
241.280273438 1082.28027344 m 1,4,-1
 241.280273438 1044 l 1,5,-1
 316.6796875 1044 l 1,6,-1
 316.6796875 1001.08007812 l 1,7,-1
 240.120117188 1001.08007812 l 1,8,-1
 240.120117188 962.799804688 l 1,9,-1
 432.6796875 962.799804688 l 1,10,-1
 432.6796875 1001.08007812 l 1,11,-1
 356.120117188 1001.08007812 l 1,12,-1
 356.120117188 1044 l 1,13,-1
 432.6796875 1044 l 1,14,-1
 432.6796875 1082.28027344 l 1,15,-1
 241.280273438 1082.28027344 l 1,4,-1
240.120117188 932.639648438 m 1,16,-1
 240.120117188 812 l 1,17,-1
 432.6796875 812 l 1,18,-1
 432.6796875 851.440429688 l 1,19,-1
 356.120117188 851.440429688 l 1,20,-1
 356.120117188 932.639648438 l 1,21,-1
 240.120117188 932.639648438 l 1,16,-1
316.6796875 851.440429688 m 1,22,-1
 278.400390625 851.440429688 l 1,23,-1
 278.400390625 893.200195312 l 1,24,-1
 316.6796875 893.200195312 l 1,25,-1
 316.6796875 851.440429688 l 1,22,-1
240.120117188 780.6796875 m 1,26,-1
 240.120117188 742.400390625 l 1,27,-1
 316.6796875 742.400390625 l 1,28,-1
 316.6796875 699.48046875 l 1,29,-1
 240.120117188 699.48046875 l 1,30,-1
 240.120117188 661.200195312 l 1,31,-1
 356.120117188 661.200195312 l 1,32,-1
 356.120117188 742.400390625 l 1,33,-1
 432.6796875 742.400390625 l 1,34,-1
 432.6796875 780.6796875 l 1,35,-1
 240.120117188 780.6796875 l 1,26,-1
394.400390625 711.080078125 m 1,36,-1
 394.400390625 634.51953125 l 1,37,-1
 240.120117188 634.51953125 l 1,38,-1
 240.120117188 595.080078125 l 1,39,-1
 432.6796875 595.080078125 l 1,40,-1
 432.6796875 711.080078125 l 1,41,-1
 394.400390625 711.080078125 l 1,36,-1
316.6796875 569.559570312 m 1,42,-1
 316.6796875 504.599609375 l 1,43,-1
 356.120117188 504.599609375 l 1,44,-1
 356.120117188 531.280273438 l 1,45,-1
 394.400390625 531.280273438 l 1,46,-1
 394.400390625 476.759765625 l 1,47,-1
 278.400390625 476.759765625 l 1,48,-1
 278.400390625 569.559570312 l 1,49,-1
 240.120117188 569.559570312 l 1,50,-1
 240.120117188 438.48046875 l 1,51,-1
 432.6796875 438.48046875 l 1,52,-1
 432.6796875 569.559570312 l 1,53,-1
 316.6796875 569.559570312 l 1,42,-1
240.120117188 368.879882812 m 1,54,-1
 240.120117188 237.799804688 l 1,55,-1
 432.6796875 237.799804688 l 1,56,-1
 432.6796875 368.879882812 l 1,57,-1
 240.120117188 368.879882812 l 1,54,-1
394.400390625 276.080078125 m 1,58,-1
 278.400390625 276.080078125 l 1,59,-1
 278.400390625 330.599609375 l 1,60,-1
 394.400390625 330.599609375 l 1,61,-1
 394.400390625 276.080078125 l 1,58,-1
240.120117188 211.120117188 m 1,62,-1
 240.120117188 172.83984375 l 1,63,-1
 321.3203125 172.83984375 l 1,64,-1
 240.120117188 118.3203125 l 1,65,-1
 240.120117188 80.0400390625 l 1,66,-1
 432.6796875 80.0400390625 l 1,67,-1
 432.6796875 118.3203125 l 1,68,-1
 314.360351562 118.3203125 l 1,69,-1
 395.559570312 172.83984375 l 1,70,-1
 432.6796875 172.83984375 l 1,71,-1
 432.6796875 211.120117188 l 1,72,-1
 240.120117188 211.120117188 l 1,62,-1
EndSplineSet
EndChar

StartChar: A
Encoding: 65 65 2
Width: 46
VWidth: 1392
GlyphClass: 1
Flags: W
LayerCount: 2
Back
SplineSet
-428 -241 m 0,1,2
 -383 -241 -383 -241 -367 -238 c 128,-1,3
 -351 -235 -351 -235 -340 -224 c 0,4,5
 -324 -208 -324 -208 -324 -181 c 0,6,7
 -324 -168 -324 -168 -329 -151 c 0,8,9
 -336 -132 -336 -132 -366 -122 c 128,-1,10
 -396 -112 -396 -112 -445 -112 c 0,11,12
 -514 -112 -514 -112 -514 -133 c 0,13,14
 -514 -144 -514 -144 -494 -161 c 0,15,16
 -480 -172 -480 -172 -480 -180 c 0,17,18
 -480 -186 -480 -186 -494 -186 c 0,19,20
 -513 -186 -513 -186 -552 -175 c 128,-1,21
 -591 -164 -591 -164 -640 -144 c 0,22,23
 -660 -135 -660 -135 -677 -129 c 128,-1,24
 -694 -123 -694 -123 -701 -123 c 0,25,26
 -712 -123 -712 -123 -712 -134 c 0,27,28
 -712 -141 -712 -141 -709 -151 c 0,29,30
 -702 -179 -702 -179 -658 -201 c 128,-1,31
 -614 -223 -614 -223 -539 -233 c 0,32,0
 -480 -241 -480 -241 -428 -241 c 0,1,2
EndSplineSet
Fore
SplineSet
-716.879882812 -1.16015625 m 0,0,1
 -665.83984375 -26.6796875 -665.83984375 -26.6796875 -588.120117188 -37.1196289062 c 128,-1,2
 -510.400390625 -47.5595703125 -510.400390625 -47.5595703125 -454.140136719 -47.5595703125 c 128,-1,3
 -397.879882812 -47.5595703125 -397.879882812 -47.5595703125 -379.3203125 -44.080078125 c 128,-1,4
 -360.759765625 -40.599609375 -360.759765625 -40.599609375 -345.100097656 -24.9399414062 c 128,-1,5
 -329.440429688 -9.2802734375 -329.440429688 -9.2802734375 -329.440429688 13.919921875 c 128,-1,6
 -329.440429688 37.1201171875 -329.440429688 37.1201171875 -335.240234375 56.83984375 c 0,7,8
 -351.907900147 102.080078125 -351.907900147 102.080078125 -469.799804688 102.080078125 c 0,9,10
 -549.83984375 102.080078125 -549.83984375 102.080078125 -549.83984375 77.7197265625 c 0,11,12
 -549.83984375 64.9599609375 -549.83984375 64.9599609375 -530.120117188 48.7202148438 c 128,-1,13
 -510.400390625 32.48046875 -510.400390625 32.48046875 -510.400390625 23.2001953125 c 0,14,15
 -510.400390625 16.240234375 -510.400390625 16.240234375 -529.540039062 16.240234375 c 0,16,17
 -576.638002911 16.240234375 -576.638002911 16.240234375 -696 64.9599609375 c 0,18,19
 -750.132342349 89.3203125 -750.132342349 89.3203125 -764.8259368 89.3203125 c 128,-1,20
 -779.51953125 89.3203125 -779.51953125 89.3203125 -779.51953125 76.5595703125 c 0,21,22
 -779.51953125 30.1602672191 -779.51953125 30.1602672191 -716.879882812 -1.16015625 c 0,0,1
EndSplineSet
EndChar

StartChar: C
Encoding: 67 67 3
Width: 1503
VWidth: 1392
GlyphClass: 1
Flags: W
LayerCount: 2
Back
SplineSet
235 171.5 m 128,-1,1
 243 170 243 170 246.5 170 c 128,-1,2
 250 170 250 170 252 171 c 0,3,4
 259 174 259 174 262.5 185 c 128,-1,5
 266 196 266 196 261 200 c 0,6,7
 258 205 258 205 241 208 c 0,8,9
 198 215 198 215 175.5 232 c 128,-1,10
 153 249 153 249 153 271 c 0,11,12
 153 308 153 308 204.5 328 c 128,-1,13
 256 348 256 348 350 348 c 0,14,15
 540 348 540 348 606 275 c 0,16,17
 617 262 617 262 621.5 255 c 128,-1,18
 626 248 626 248 626 242 c 0,19,20
 626 217 626 217 586 215 c 0,21,22
 568 213 568 213 560.5 211 c 128,-1,23
 553 209 553 209 550 205 c 2,24,-1
 548 200 l 2,25,26
 548 195 548 195 557 189 c 0,27,28
 567 182 567 182 619.5 175 c 128,-1,29
 672 168 672 168 695 171 c 0,30,31
 729 176 729 176 743 179.5 c 128,-1,32
 757 183 757 183 763 191.5 c 128,-1,33
 769 200 769 200 769 219 c 0,34,35
 769 243 769 243 763 258.5 c 128,-1,36
 757 274 757 274 741 289 c 0,37,38
 681 349 681 349 514 371 c 0,39,40
 394 387 394 387 327 387 c 0,41,42
 275 387 275 387 224 378.5 c 128,-1,43
 173 370 173 370 111 350 c 0,44,45
 73 338 73 338 56 326 c 128,-1,46
 39 314 39 314 34 296 c 0,47,48
 31 286 31 286 31 274 c 256,49,50
 31 262 31 262 34 256 c 0,51,52
 44 229 44 229 88 208 c 128,-1,53
 132 187 132 187 209 176 c 0,54,0
 227 173 227 173 235 171.5 c 128,-1,1
957 175 m 0,56,57
 981 175 981 175 988 178 c 0,58,59
 998 182 998 182 998 190 c 256,60,61
 998 198 998 198 987 203 c 0,62,63
 977 206 977 206 970 220.5 c 128,-1,64
 963 235 963 235 948 284 c 0,65,66
 938 317 938 317 929 333 c 128,-1,67
 920 349 920 349 907 356.5 c 128,-1,68
 894 364 894 364 869 367 c 0,69,70
 851 370 851 370 835 370 c 0,71,72
 816 370 816 370 803.5 366.5 c 128,-1,73
 791 363 791 363 788 357 c 2,74,-1
 788 355 l 2,75,76
 788 348 788 348 801 343 c 0,77,78
 813 339 813 339 820 325 c 128,-1,79
 827 311 827 311 843 259 c 0,80,81
 854 224 854 224 867 206 c 128,-1,82
 880 188 880 188 901 181 c 0,83,55
 922 175 922 175 957 175 c 0,56,57
1137 175 m 0,85,86
 1161 175 1161 175 1168 178 c 0,87,88
 1178 182 1178 182 1178 190 c 256,89,90
 1178 198 1178 198 1167 203 c 0,91,92
 1157 206 1157 206 1150.5 220 c 128,-1,93
 1144 234 1144 234 1128 284 c 0,94,95
 1118 317 1118 317 1109 333 c 128,-1,96
 1100 349 1100 349 1087 356 c 128,-1,97
 1074 363 1074 363 1049 367 c 0,98,99
 1031 370 1031 370 1015 370 c 0,100,101
 996 370 996 370 983.5 366.5 c 128,-1,102
 971 363 971 363 968 357 c 2,103,-1
 968 355 l 2,104,105
 968 348 968 348 981 343 c 0,106,107
 993 339 993 339 1000 325 c 128,-1,108
 1007 311 1007 311 1023 259 c 0,109,110
 1034 224 1034 224 1047 206 c 128,-1,111
 1060 188 1060 188 1081 181 c 0,112,84
 1102 175 1102 175 1137 175 c 0,85,86
395 162 m 0,114,115
 420 162 420 162 446 165.5 c 128,-1,116
 472 169 472 169 483 175 c 0,117,118
 505 187 505 187 505 204 c 0,119,120
 505 220 505 220 487.5 237.5 c 128,-1,121
 470 255 470 255 439 268 c 0,122,123
 410 281 410 281 354.5 294.5 c 128,-1,124
 299 308 299 308 277 308 c 0,125,126
 265 308 265 308 257 303 c 128,-1,127
 249 298 249 298 249 290 c 0,128,129
 249 284 249 284 254 279 c 0,130,131
 257 276 257 276 271.5 272 c 128,-1,132
 286 268 286 268 304 266 c 0,133,134
 349 260 349 260 371.5 247.5 c 128,-1,135
 394 235 394 235 395 215 c 2,136,-1
 396 205 l 2,137,138
 396 197 396 197 392 195 c 128,-1,139
 388 193 388 193 375 191 c 0,140,141
 364 190 364 190 357 185.5 c 128,-1,142
 350 181 350 181 350 175 c 0,143,144
 350 167 350 167 364 164 c 0,145,113
 372 162 372 162 395 162 c 0,114,115
1214 -52 m 0,147,148
 1220 -52 1220 -52 1223 -46.5 c 128,-1,149
 1226 -41 1226 -41 1226 -32 c 0,150,151
 1226 -9 1226 -9 1211 3 c 0,152,153
 1111 88 1111 88 981 107 c 0,154,155
 957 110 957 110 856 110 c 0,156,157
 740 110 740 110 610 107 c 0,158,159
 479 104 479 104 371 104 c 0,160,161
 259 104 259 104 226 108 c 0,162,163
 90 125 90 125 57 145 c 0,164,165
 53 148 53 148 47 148 c 0,166,167
 38 148 38 148 33.5 139.5 c 128,-1,168
 29 131 29 131 31 118 c 0,169,170
 38 80 38 80 88 51 c 128,-1,171
 138 22 138 22 223 7 c 0,172,173
 318 -9 318 -9 426 -9 c 2,174,-1
 463 -9 l 2,175,176
 583 -6 583 -6 850 -6 c 0,177,178
 971 -6 971 -6 987 -7 c 0,179,180
 1089 -14 1089 -14 1145 -28 c 0,181,182
 1163 -32 1163 -32 1182 -38.5 c 128,-1,183
 1201 -45 1201 -45 1206 -49 c 0,184,146
 1211 -52 1211 -52 1214 -52 c 0,147,148
EndSplineSet
Fore
SplineSet
319 430.940429688 m 128,-1,1
 328.280273438 429.200195312 328.280273438 429.200195312 332.33984375 429.200195312 c 128,-1,2
 336.400390625 429.200195312 336.400390625 429.200195312 341.620117188 431.520019531 c 128,-1,3
 346.83984375 433.83984375 346.83984375 433.83984375 350.900390625 446.599609375 c 128,-1,4
 354.959960938 459.360351562 354.959960938 459.360351562 349.16015625 464 c 0,5,6
 345.6796875 469.799804688 345.6796875 469.799804688 325.959960938 473.280273438 c 0,7,8
 276.080078125 481.400390625 276.080078125 481.400390625 249.98046875 501.120117188 c 128,-1,9
 223.879882812 520.83984375 223.879882812 520.83984375 223.879882812 546.360351562 c 0,10,11
 223.879882812 589.280273438 223.879882812 589.280273438 283.620117188 612.48046875 c 128,-1,12
 343.360351562 635.6796875 343.360351562 635.6796875 452.400390625 635.6796875 c 0,13,14
 697.993124134 635.6796875 697.993124134 635.6796875 767.33984375 527.799804688 c 0,15,16
 772.559570312 519.6796875 772.559570312 519.6796875 772.559570312 512.719726562 c 0,17,18
 772.559570312 483.719726562 772.559570312 483.719726562 726.16015625 481.400390625 c 0,19,20
 690.093233715 477.392392498 690.093233715 477.392392498 684.400390625 469.799804688 c 1,21,-1
 682.080078125 464 l 1,22,23
 682.080078125 458.200195312 682.080078125 458.200195312 693.100097656 450.66015625 c 128,-1,24
 704.120117188 443.120117188 704.120117188 443.120117188 765.01953125 435 c 128,-1,25
 825.919921875 426.879882812 825.919921875 426.879882812 858.979980469 431.520019531 c 128,-1,26
 892.040039062 436.16015625 892.040039062 436.16015625 908.280273438 440.219726562 c 128,-1,27
 924.51953125 444.280273438 924.51953125 444.280273438 931.48046875 454.139648438 c 128,-1,28
 938.440429688 464 938.440429688 464 938.440429688 488.939941406 c 0,29,30
 938.440429688 536.788406319 938.440429688 536.788406319 905.959960938 567.240234375 c 0,31,32
 836.360351562 636.83984375 836.360351562 636.83984375 642.639648438 662.360351562 c 0,33,34
 503.440429688 680.919921875 503.440429688 680.919921875 434.420410156 680.919921875 c 0,35,36
 308.21064943 680.919921875 308.21064943 680.919921875 175.16015625 638 c 0,37,38
 131.080078125 624.080078125 131.080078125 624.080078125 111.360351562 610.16015625 c 0,39,40
 82.3603515625 589.690412762 82.3603515625 589.690412762 82.3603515625 549.83984375 c 256,41,42
 82.3603515625 504.836768284 82.3603515625 504.836768284 148.48046875 473.280273438 c 0,43,44
 199.51953125 448.919921875 199.51953125 448.919921875 288.83984375 436.16015625 c 0,45,0
 309.719726562 432.6796875 309.719726562 432.6796875 319 430.940429688 c 128,-1,1
960.48046875 646.120117188 m 1,46,-1
 960.48046875 643.799804688 l 2,47,48
 960.48046875 635.6796875 960.48046875 635.6796875 974.98046875 630.459960938 c 128,-1,49
 989.48046875 625.240234375 989.48046875 625.240234375 997.599609375 609 c 128,-1,50
 1005.71972656 592.759765625 1005.71972656 592.759765625 1021.37988281 542.299804688 c 128,-1,51
 1037.04003906 491.83984375 1037.04003906 491.83984375 1052.12011719 470.959960938 c 128,-1,52
 1067.20019531 450.080078125 1067.20019531 450.080078125 1091.5600586 442.540039062 c 128,-1,53
 1115.91992188 435 1115.91992188 435 1150.14013672 435 c 128,-1,54
 1184.36035156 435 1184.36035156 435 1194.22021484 439.060058594 c 128,-1,55
 1204.08007812 443.120117188 1204.08007812 443.120117188 1204.08007812 452.400390625 c 256,56,57
 1204.08007812 461.6796875 1204.08007812 461.6796875 1191.3203125 467.48046875 c 0,58,59
 1179.71972656 470.959960938 1179.71972656 470.959960938 1171.59960938 487.780273438 c 128,-1,60
 1163.48046875 504.599609375 1163.48046875 504.599609375 1148.98046875 552.159667969 c 128,-1,61
 1134.48046875 599.719726562 1134.48046875 599.719726562 1124.04003906 618.280273438 c 128,-1,62
 1113.59960938 636.83984375 1113.59960938 636.83984375 1098.51953125 645.540039062 c 0,63,64
 1071.37748696 661.200195312 1071.37748696 661.200195312 1019.69846841 661.200195312 c 128,-1,65
 968.019449859 661.200195312 968.019449859 661.200195312 960.48046875 646.120117188 c 1,46,-1
1169.28027344 646.120117188 m 1,66,-1
 1169.28027344 643.799804688 l 2,67,68
 1169.28027344 635.6796875 1169.28027344 635.6796875 1183.78027344 630.459960938 c 128,-1,69
 1198.28027344 625.240234375 1198.28027344 625.240234375 1206.40039062 609 c 128,-1,70
 1214.51953125 592.759765625 1214.51953125 592.759765625 1230.1796875 542.299804688 c 128,-1,71
 1245.83984375 491.83984375 1245.83984375 491.83984375 1260.91992188 470.959960938 c 128,-1,72
 1276 450.080078125 1276 450.080078125 1300.35986328 442.540039062 c 128,-1,73
 1324.71972656 435 1324.71972656 435 1358.9399414 435 c 128,-1,74
 1393.16015625 435 1393.16015625 435 1403.02001953 439.060058594 c 128,-1,75
 1412.87988281 443.120117188 1412.87988281 443.120117188 1412.87988281 452.400390625 c 256,76,77
 1412.87988281 461.6796875 1412.87988281 461.6796875 1400.12011719 467.48046875 c 0,78,79
 1388.51953125 470.959960938 1388.51953125 470.959960938 1380.98046875 487.200195312 c 128,-1,80
 1373.44042969 503.440429688 1373.44042969 503.440429688 1358.36035156 551.580078125 c 128,-1,81
 1343.28027344 599.719726562 1343.28027344 599.719726562 1332.83984375 618.280273438 c 128,-1,82
 1322.40039062 636.83984375 1322.40039062 636.83984375 1307.3203125 644.959960938 c 0,83,84
 1277.16015626 661.200195312 1277.16015626 661.200195312 1226.9897054 661.200195312 c 128,-1,85
 1176.81925453 661.200195312 1176.81925453 661.200195312 1169.28027344 646.120117188 c 1,66,-1
493 419.919921875 m 0,86,87
 579.033230258 419.919921875 579.033230258 419.919921875 605.616712785 434.419921875 c 128,-1,88
 632.200195312 448.919921875 632.200195312 448.919921875 632.200195312 468.060058594 c 128,-1,89
 632.200195312 487.200195312 632.200195312 487.200195312 611.900390625 507.5 c 128,-1,90
 591.599609375 527.799804688 591.599609375 527.799804688 556.799804688 542.879882813 c 128,-1,91
 522 557.959960938 522 557.959960938 457.620117188 573.620117188 c 128,-1,92
 393.240234375 589.280273438 393.240234375 589.280273438 373.520019531 589.280273438 c 0,93,94
 335.240234375 589.280273438 335.240234375 589.280273438 335.240234375 568.400390625 c 0,95,96
 335.240234375 561.440429688 335.240234375 561.440429688 339.879882812 556.800292969 c 0,97,98
 350.753541977 545.925489449 350.753541977 545.925489449 400.996888176 539.762549412 c 0,99,100
 502.304376369 527.335989036 502.304376369 527.335989036 504.599609375 481.400390625 c 1,101,-1
 505.759765625 469.799804688 l 2,102,103
 505.759765625 460.51953125 505.759765625 460.51953125 501.120117188 458.200195312 c 128,-1,104
 496.48046875 455.879882812 496.48046875 455.879882812 482.560058594 454.140136719 c 0,105,106
 452.400390625 450.37083941 452.400390625 450.37083941 452.400390625 435.145380643 c 128,-1,107
 452.400390625 419.919921875 452.400390625 419.919921875 493 419.919921875 c 0,86,87
1184.36035156 356.120117188 m 0,108,109
 1156.51953125 359.599609375 1156.51953125 359.599609375 1097.9399414 359.599609375 c 128,-1,110
 1039.36035156 359.599609375 1039.36035156 359.599609375 476.759765625 352.639648438 c 1,111,112
 346.83984375 352.639648438 346.83984375 352.639648438 308.559570312 357.280273438 c 0,113,114
 150.799804688 377 150.799804688 377 112.51953125 400.200195312 c 0,115,116
 107.879882812 403.6796875 107.879882812 403.6796875 99.180175781 403.6796875 c 128,-1,117
 90.48046875 403.6796875 90.48046875 403.6796875 85.259765625 393.8203125 c 128,-1,118
 80.0400390625 383.959960938 80.0400390625 383.959960938 82.3603515625 368.879882812 c 0,119,120
 90.48046875 324.799804688 90.48046875 324.799804688 148.48046875 291.16015625 c 128,-1,121
 206.48046875 257.51953125 206.48046875 257.51953125 310.880371094 239.539550781 c 128,-1,122
 415.280273438 221.559570312 415.280273438 221.559570312 540.559570312 221.559570312 c 2,123,-1
 583.48046875 221.559570312 l 1,124,125
 722.6796875 225.040039062 722.6796875 225.040039062 947.71972656 225.040039062 c 128,-1,126
 1172.75976562 225.040039062 1172.75976562 225.040039062 1191.3203125 223.879882812 c 0,127,128
 1340.67562506 213.629802968 1340.67562506 213.629802968 1417.51953125 187.33984375 c 0,129,130
 1439.55957031 179.799804688 1439.55957031 179.799804688 1445.35986328 175.739746094 c 128,-1,131
 1451.16015625 171.6796875 1451.16015625 171.6796875 1454.63964844 171.6796875 c 0,132,133
 1468.55957031 171.6796875 1468.55957031 171.6796875 1468.55957031 196.619628906 c 128,-1,134
 1468.55957031 221.559570312 1468.55957031 221.559570312 1451.16015625 235.48046875 c 0,135,136
 1335.16015625 334.080078125 1335.16015625 334.080078125 1184.36035156 356.120117188 c 0,108,109
EndSplineSet
EndChar

StartChar: D
Encoding: 68 68 4
Width: 46
VWidth: 1392
GlyphClass: 1
Flags: W
LayerCount: 2
Back
SplineSet
-289 -220.5 m 128,-1,1
 -271 -223 -271 -223 -246 -223 c 0,2,3
 -214 -223 -214 -223 -202.5 -221.5 c 128,-1,4
 -191 -220 -191 -220 -185.5 -213.5 c 128,-1,5
 -180 -207 -180 -207 -172 -189 c 0,6,7
 -166 -175 -166 -175 -156.5 -161.5 c 128,-1,8
 -147 -148 -147 -148 -140 -144 c 0,9,10
 -130 -138 -130 -138 -140 -136 c 128,-1,11
 -150 -134 -150 -134 -189 -133 c 0,12,13
 -225 -133 -225 -133 -237.5 -134.5 c 128,-1,14
 -250 -136 -250 -136 -255.5 -141.5 c 128,-1,15
 -261 -147 -261 -147 -266 -163 c 0,16,17
 -271 -176 -271 -176 -278 -186.5 c 128,-1,18
 -285 -197 -285 -197 -292 -199 c 0,19,20
 -298 -201 -298 -201 -302.5 -205.5 c 128,-1,21
 -307 -210 -307 -210 -307 -214 c 256,22,0
 -307 -218 -307 -218 -289 -220.5 c 128,-1,1
EndSplineSet
Fore
SplineSet
-309.719726562 -16.240234375 m 256,0,1
 -309.719726562 -26.6796875 -309.719726562 -26.6796875 -255.779785156 -26.6796875 c 128,-1,2
 -201.83984375 -26.6796875 -201.83984375 -26.6796875 -188.5 -24.9404296875 c 128,-1,3
 -175.16015625 -23.2001953125 -175.16015625 -23.2001953125 -168.780273438 -15.66015625 c 128,-1,4
 -162.400390625 -8.1201171875 -162.400390625 -8.1201171875 -154.280273438 10.4399414062 c 0,5,6
 -135.236155208 53.9688637173 -135.236155208 53.9688637173 -116 64.9599609375 c 0,7,8
 -104.400390625 71.919921875 -104.400390625 71.919921875 -116 74.240234375 c 128,-1,9
 -127.599609375 76.5595703125 -127.599609375 76.5595703125 -171.099609375 77.1396484375 c 128,-1,10
 -214.599609375 77.7197265625 -214.599609375 77.7197265625 -229.099609375 75.98046875 c 128,-1,11
 -243.599609375 74.240234375 -243.599609375 74.240234375 -249.98046875 67.8603515625 c 128,-1,12
 -256.360351562 61.48046875 -256.360351562 61.48046875 -262.16015625 44.66015625 c 0,13,14
 -275.502314127 5.96587653042 -275.502314127 5.96587653042 -292.3203125 1.16015625 c 0,15,16
 -299.280273438 -1.16015625 -299.280273438 -1.16015625 -304.5 -6.3798828125 c 128,-1,17
 -309.719726562 -11.599609375 -309.719726562 -11.599609375 -309.719726562 -16.240234375 c 256,0,1
EndSplineSet
EndChar

StartChar: E
Encoding: 69 69 5
Width: 1357
VWidth: 1392
GlyphClass: 1
Flags: W
LayerCount: 2
Back
Refer: 44 113 N 1 0 0 1 0 0 0
Refer: 77 -1 N 1 0 0 1 40 310 2
Fore
SplineSet
470.6796875 485.3203125 m 132,-1,1
 476.760742188 488.359375 476.760742188 488.359375 481.98046875 498.799804688 c 132,-1,2
 487.200195312 509.239257812 487.200195312 509.239257812 487.200195312 517.939453125 c 132,-1,3
 487.200195312 526.639648438 487.200195312 526.639648438 483.720703125 530.119140625 c 4,4,5
 477.919921875 538.239257812 477.919921875 538.239257812 452.400390625 541.719726562 c 4,6,7
 382.80078125 553.319335938 382.80078125 553.319335938 348 581.739257812 c 132,-1,8
 313.200195312 610.159179688 313.200195312 610.159179688 316.680664062 646.119140625 c 4,9,10
 322.48046875 700.639648438 322.48046875 700.639648438 401.360351562 729.639648438 c 132,-1,11
 480.240234375 758.639648438 480.240234375 758.639648438 621.760742188 758.639648438 c 4,12,13
 950.463867188 758.639648438 950.463867188 758.639648438 1041.68066406 614.219726562 c 4,14,15
 1048.640625 603.19921875 1048.640625 603.19921875 1048.640625 593.919921875 c 4,16,17
 1048.640625 555.639648438 1048.640625 555.639648438 987.16015625 552.159179688 c 4,18,19
 928 547.016601562 928 547.016601562 928 528.959960938 c 4,20,21
 928 520.83984375 928 520.83984375 941.33984375 512.139648438 c 132,-1,22
 954.680664062 503.439453125 954.680664062 503.439453125 1020.22070312 493.580078125 c 132,-1,23
 1085.76074219 483.719726562 1085.76074219 483.719726562 1117.08007812 483.719726562 c 132,-1,24
 1148.40039062 483.719726562 1148.40039062 483.719726562 1178.56054688 487.780273438 c 132,-1,25
 1208.72070312 491.83984375 1208.72070312 491.83984375 1230.18066406 497.639648438 c 132,-1,26
 1251.640625 503.439453125 1251.640625 503.439453125 1260.91992188 516.779296875 c 132,-1,27
 1270.20019531 530.119140625 1270.20019531 530.119140625 1270.20019531 563.1796875 c 132,-1,28
 1270.20019531 596.239257812 1270.20019531 596.239257812 1260.34082031 620.01953125 c 132,-1,29
 1250.48046875 643.799804688 1250.48046875 643.799804688 1226.12011719 667 c 4,30,31
 1135.640625 759.799804688 1135.640625 759.799804688 875.80078125 793.439453125 c 4,32,33
 676.271484375 818.959960938 676.271484375 818.959960938 591.015625 818.959960938 c 132,-1,34
 505.760742188 818.959960938 505.760742188 818.959960938 427.459960938 805.619140625 c 132,-1,35
 349.16015625 792.279296875 349.16015625 792.279296875 271.440429688 767.33984375 c 132,-1,36
 193.720703125 742.399414062 193.720703125 742.399414062 167.620117188 723.83984375 c 4,37,38
 127.600585938 695.380859375 127.600585938 695.380859375 127.600585938 643.490234375 c 132,-1,39
 127.600585938 591.599609375 127.600585938 591.599609375 197.200195312 551.580078125 c 132,-1,40
 266.80078125 511.559570312 266.80078125 511.559570312 403.680664062 491.83984375 c 4,41,42
 432.680664062 488.359375 432.680664062 488.359375 448.639648438 485.3203125 c 132,-1,0
 464.599609375 482.280273438 464.599609375 482.280273438 470.6796875 485.3203125 c 132,-1,1
621.760742188 491.83984375 m 4,43,44
 621.760742188 469.799804688 621.760742188 469.799804688 690.200195312 469.799804688 c 4,45,46
 729.640625 469.799804688 729.640625 469.799804688 770.240234375 475.599609375 c 132,-1,47
 810.840820312 481.399414062 810.840820312 481.399414062 828.240234375 491.83984375 c 4,48,49
 861.880859375 509.239257812 861.880859375 509.239257812 861.880859375 534.759765625 c 132,-1,50
 861.880859375 560.279296875 861.880859375 560.279296875 834.620117188 586.959960938 c 132,-1,51
 807.360351562 613.639648438 807.360351562 613.639648438 759.799804688 633.939453125 c 132,-1,52
 712.240234375 654.239257812 712.240234375 654.239257812 627.560546875 675.119140625 c 132,-1,53
 542.880859375 696 542.880859375 696 516.200195312 696 c 132,-1,54
 489.520507812 696 489.520507812 696 477.340820312 687.879882812 c 132,-1,55
 465.16015625 679.759765625 465.16015625 679.759765625 465.16015625 669.900390625 c 132,-1,56
 465.16015625 660.040039062 465.16015625 660.040039062 471.540039062 653.66015625 c 4,57,58
 483.0234375 642.17578125 483.0234375 642.17578125 549.840820312 631.040039062 c 4,59,60
 620.600585938 621.759765625 620.600585938 621.759765625 654.8203125 603.19921875 c 132,-1,61
 689.040039062 584.639648438 689.040039062 584.639648438 691.940429688 557.379882812 c 132,-1,62
 694.840820312 530.119140625 694.840820312 530.119140625 690.200195312 524.319335938 c 132,-1,63
 685.560546875 518.51953125 685.560546875 518.51953125 664.680664062 516.780273438 c 132,-1,64
 643.80078125 515.040039062 643.80078125 515.040039062 632.780273438 507.5 c 132,-1,65
 621.760742188 499.959960938 621.760742188 499.959960938 621.760742188 491.83984375 c 4,43,44
1260.91992188 219.8203125 m 132,-1,67
 1307.3203125 241.280273438 1307.3203125 241.280273438 1314.86035156 259.840820312 c 132,-1,68
 1322.40039062 278.400390625 1322.40039062 278.400390625 1322.40039062 293.48046875 c 4,69,70
 1322.40039062 338.719726562 1322.40039062 338.719726562 1259.75976562 370.040039062 c 132,-1,71
 1197.12011719 401.360351562 1197.12011719 401.360351562 1062.55957031 424.559570312 c 4,72,73
 997.599609375 436.16015625 997.599609375 436.16015625 976.719726562 436.16015625 c 132,-1,74
 955.83984375 436.16015625 955.83984375 436.16015625 948.879882812 425.720703125 c 132,-1,75
 941.919921875 415.280273438 941.919921875 415.280273438 941.919921875 408.3203125 c 132,-1,76
 941.919921875 401.360351562 941.919921875 401.360351562 955.259765625 396.139648438 c 132,-1,77
 968.599609375 390.919921875 968.599609375 390.919921875 1019.63964844 376.419921875 c 4,78,79
 1124.04003906 346.760742188 1124.04003906 346.760742188 1124.04003906 301.599609375 c 4,80,81
 1124.04003906 251.719726562 1124.04003906 251.719726562 1038.78027344 225.040039062 c 132,-1,82
 953.51953125 198.360351562 953.51953125 198.360351562 802.719726562 198.360351562 c 4,83,84
 584.638671875 198.360351562 584.638671875 198.360351562 487.200195312 230.83984375 c 4,85,86
 411.799804688 255.200195312 411.799804688 255.200195312 369.459960938 283.620117188 c 132,-1,87
 327.120117188 312.040039062 327.120117188 312.040039062 327.120117188 336.400390625 c 4,88,89
 327.120117188 365.400390625 327.120117188 365.400390625 385.120117188 377 c 4,90,91
 439.484375 388.444335938 439.484375 388.444335938 447.759765625 396.719726562 c 4,92,93
 465.765625 416.9765625 465.765625 416.9765625 348 430.360351562 c 4,94,95
 296.959960938 436.16015625 296.959960938 436.16015625 237.220703125 436.16015625 c 132,-1,96
 177.48046875 436.16015625 177.48046875 436.16015625 140.360351562 425.720703125 c 132,-1,97
 103.240234375 415.280273438 103.240234375 415.280273438 92.2197265625 406 c 132,-1,98
 81.2001953125 396.719726562 81.2001953125 396.719726562 81.2001953125 371.200195312 c 4,99,100
 81.2001953125 321.3203125 81.2001953125 321.3203125 136.879882812 276.66015625 c 132,-1,101
 192.559570312 232 192.559570312 232 292.899414062 203.580078125 c 4,102,103
 503.8203125 143.83984375 503.8203125 143.83984375 781.83984375 143.83984375 c 4,104,105
 990.639648438 143.83984375 990.639648438 143.83984375 1142.59960938 180.959960938 c 4,106,66
 1214.51953125 198.360351562 1214.51953125 198.360351562 1260.91992188 219.8203125 c 132,-1,67
EndSplineSet
EndChar

StartChar: F
Encoding: 70 70 6
Width: 46
VWidth: 1392
GlyphClass: 1
Flags: W
LayerCount: 2
Back
SplineSet
-381 -220.5 m 128,-1,1
 -363 -223 -363 -223 -338 -223 c 0,2,3
 -306 -223 -306 -223 -294.5 -221.5 c 128,-1,4
 -283 -220 -283 -220 -277.5 -213.5 c 128,-1,5
 -272 -207 -272 -207 -264 -189 c 0,6,7
 -258 -175 -258 -175 -248.5 -161.5 c 128,-1,8
 -239 -148 -239 -148 -232 -144 c 0,9,10
 -222 -138 -222 -138 -232 -136 c 128,-1,11
 -242 -134 -242 -134 -281 -133 c 0,12,13
 -317 -133 -317 -133 -329.5 -134.5 c 128,-1,14
 -342 -136 -342 -136 -347.5 -141.5 c 128,-1,15
 -353 -147 -353 -147 -358 -163 c 0,16,17
 -363 -176 -363 -176 -370 -186.5 c 128,-1,18
 -377 -197 -377 -197 -384 -199 c 0,19,20
 -390 -201 -390 -201 -394.5 -205.5 c 128,-1,21
 -399 -210 -399 -210 -399 -214 c 256,22,0
 -399 -218 -399 -218 -381 -220.5 c 128,-1,1
-217 -220.5 m 128,-1,24
 -199 -223 -199 -223 -174 -223 c 0,25,26
 -142 -223 -142 -223 -130.5 -221.5 c 128,-1,27
 -119 -220 -119 -220 -113.5 -213.5 c 128,-1,28
 -108 -207 -108 -207 -100 -189 c 0,29,30
 -94 -175 -94 -175 -84.5 -161.5 c 128,-1,31
 -75 -148 -75 -148 -68 -144 c 0,32,33
 -58 -138 -58 -138 -68 -136 c 128,-1,34
 -78 -134 -78 -134 -117 -133 c 0,35,36
 -153 -133 -153 -133 -165.5 -134.5 c 128,-1,37
 -178 -136 -178 -136 -183.5 -141.5 c 128,-1,38
 -189 -147 -189 -147 -194 -163 c 0,39,40
 -199 -176 -199 -176 -206 -186.5 c 128,-1,41
 -213 -197 -213 -197 -220 -199 c 0,42,43
 -226 -201 -226 -201 -230.5 -205.5 c 128,-1,44
 -235 -210 -235 -210 -235 -214 c 256,45,23
 -235 -218 -235 -218 -217 -220.5 c 128,-1,24
EndSplineSet
Fore
SplineSet
-416.440429688 -16.240234375 m 256,0,1
 -416.440429688 -26.6796875 -416.440429688 -26.6796875 -362.5 -26.6796875 c 128,-1,2
 -308.559570312 -26.6796875 -308.559570312 -26.6796875 -295.219726562 -24.9404296875 c 128,-1,3
 -281.879882812 -23.2001953125 -281.879882812 -23.2001953125 -275.5 -15.66015625 c 128,-1,4
 -269.120117188 -8.1201171875 -269.120117188 -8.1201171875 -261 10.4399414062 c 0,5,6
 -241.955881769 53.9688637178 -241.955881769 53.9688637178 -222.719726562 64.9599609375 c 0,7,8
 -211.120117188 71.919921875 -211.120117188 71.919921875 -222.719726562 74.240234375 c 128,-1,9
 -234.3203125 76.5595703125 -234.3203125 76.5595703125 -277.8203125 77.1396484375 c 128,-1,10
 -321.3203125 77.7197265625 -321.3203125 77.7197265625 -335.8203125 75.98046875 c 128,-1,11
 -350.3203125 74.240234375 -350.3203125 74.240234375 -356.700195312 67.8603515625 c 128,-1,12
 -363.080078125 61.48046875 -363.080078125 61.48046875 -368.879882812 44.66015625 c 0,13,14
 -382.222040688 5.96587653128 -382.222040688 5.96587653128 -399.040039062 1.16015625 c 0,15,16
 -406 -1.16015625 -406 -1.16015625 -411.219726562 -6.3798828125 c 128,-1,17
 -416.440429688 -11.599609375 -416.440429688 -11.599609375 -416.440429688 -16.240234375 c 256,0,1
-226.200195312 -16.240234375 m 256,18,19
 -226.200195312 -26.6796875 -226.200195312 -26.6796875 -172.260253906 -26.6796875 c 128,-1,20
 -118.3203125 -26.6796875 -118.3203125 -26.6796875 -104.98046875 -24.9404296875 c 128,-1,21
 -91.6396484375 -23.2001953125 -91.6396484375 -23.2001953125 -85.259765625 -15.66015625 c 128,-1,22
 -78.8798828125 -8.1201171875 -78.8798828125 -8.1201171875 -70.759765625 10.4399414062 c 0,23,24
 -51.7160930421 53.9678451074 -51.7160930421 53.9678451074 -32.48046875 64.9599609375 c 0,25,26
 -20.8798828125 71.919921875 -20.8798828125 71.919921875 -32.48046875 74.240234375 c 128,-1,27
 -44.080078125 76.5595703125 -44.080078125 76.5595703125 -87.580078125 77.1396484375 c 128,-1,28
 -131.080078125 77.7197265625 -131.080078125 77.7197265625 -145.580078125 75.98046875 c 128,-1,29
 -160.080078125 74.240234375 -160.080078125 74.240234375 -166.459960938 67.8603515625 c 128,-1,30
 -172.83984375 61.48046875 -172.83984375 61.48046875 -178.640136719 44.66015625 c 0,31,32
 -191.983594017 5.96536569703 -191.983594017 5.96536569703 -208.799804688 1.16015625 c 0,33,34
 -215.759765625 -1.16015625 -215.759765625 -1.16015625 -220.98046875 -6.3798828125 c 128,-1,35
 -226.200195312 -11.599609375 -226.200195312 -11.599609375 -226.200195312 -16.240234375 c 256,18,19
EndSplineSet
EndChar

StartChar: G
Encoding: 71 71 7
Width: 46
VWidth: 1392
GlyphClass: 1
Flags: W
LayerCount: 2
Back
SplineSet
-456 -220.5 m 128,-1,1
 -438 -223 -438 -223 -413 -223 c 0,2,3
 -381 -223 -381 -223 -369.5 -221.5 c 128,-1,4
 -358 -220 -358 -220 -352.5 -213.5 c 128,-1,5
 -347 -207 -347 -207 -339 -189 c 0,6,7
 -333 -175 -333 -175 -323.5 -161.5 c 128,-1,8
 -314 -148 -314 -148 -307 -144 c 0,9,10
 -297 -138 -297 -138 -307 -136 c 128,-1,11
 -317 -134 -317 -134 -356 -133 c 0,12,13
 -392 -133 -392 -133 -404.5 -134.5 c 128,-1,14
 -417 -136 -417 -136 -422.5 -141.5 c 128,-1,15
 -428 -147 -428 -147 -433 -163 c 0,16,17
 -438 -176 -438 -176 -445 -186.5 c 128,-1,18
 -452 -197 -452 -197 -459 -199 c 0,19,20
 -465 -201 -465 -201 -469.5 -205.5 c 128,-1,21
 -474 -210 -474 -210 -474 -214 c 256,22,0
 -474 -218 -474 -218 -456 -220.5 c 128,-1,1
-287 -220.5 m 128,-1,24
 -269 -223 -269 -223 -244 -223 c 0,25,26
 -212 -223 -212 -223 -200.5 -221.5 c 128,-1,27
 -189 -220 -189 -220 -183.5 -213.5 c 128,-1,28
 -178 -207 -178 -207 -170 -189 c 0,29,30
 -164 -175 -164 -175 -154.5 -161.5 c 128,-1,31
 -145 -148 -145 -148 -138 -144 c 0,32,33
 -128 -138 -128 -138 -138 -136 c 128,-1,34
 -148 -134 -148 -134 -187 -133 c 0,35,36
 -223 -133 -223 -133 -235.5 -134.5 c 128,-1,37
 -248 -136 -248 -136 -253.5 -141.5 c 128,-1,38
 -259 -147 -259 -147 -264 -163 c 0,39,40
 -269 -176 -269 -176 -276 -186.5 c 128,-1,41
 -283 -197 -283 -197 -290 -199 c 0,42,43
 -296 -201 -296 -201 -300.5 -205.5 c 128,-1,44
 -305 -210 -305 -210 -305 -214 c 256,45,23
 -305 -218 -305 -218 -287 -220.5 c 128,-1,24
-118 -220.5 m 128,-1,47
 -100 -223 -100 -223 -75 -223 c 0,48,49
 -43 -223 -43 -223 -31.5 -221.5 c 128,-1,50
 -20 -220 -20 -220 -14.5 -213.5 c 128,-1,51
 -9 -207 -9 -207 -1 -189 c 0,52,53
 5 -175 5 -175 14.5 -161.5 c 128,-1,54
 24 -148 24 -148 31 -144 c 0,55,56
 41 -138 41 -138 31 -136 c 128,-1,57
 21 -134 21 -134 -18 -133 c 0,58,59
 -54 -133 -54 -133 -66.5 -134.5 c 128,-1,60
 -79 -136 -79 -136 -84.5 -141.5 c 128,-1,61
 -90 -147 -90 -147 -95 -163 c 0,62,63
 -100 -176 -100 -176 -107 -186.5 c 128,-1,64
 -114 -197 -114 -197 -121 -199 c 0,65,66
 -127 -201 -127 -201 -131.5 -205.5 c 128,-1,67
 -136 -210 -136 -210 -136 -214 c 256,68,46
 -136 -218 -136 -218 -118 -220.5 c 128,-1,47
EndSplineSet
Fore
SplineSet
-503.440429688 -16.240234375 m 256,0,1
 -503.440429688 -26.6796875 -503.440429688 -26.6796875 -449.5 -26.6796875 c 128,-1,2
 -395.559570312 -26.6796875 -395.559570312 -26.6796875 -382.219726562 -24.9404296875 c 128,-1,3
 -368.879882812 -23.2001953125 -368.879882812 -23.2001953125 -362.5 -15.66015625 c 128,-1,4
 -356.120117188 -8.1201171875 -356.120117188 -8.1201171875 -348 10.4399414062 c 0,5,6
 -328.955881769 53.9688637178 -328.955881769 53.9688637178 -309.719726562 64.9599609375 c 0,7,8
 -298.120117188 71.919921875 -298.120117188 71.919921875 -309.719726562 74.240234375 c 128,-1,9
 -321.3203125 76.5595703125 -321.3203125 76.5595703125 -364.8203125 77.1396484375 c 128,-1,10
 -408.3203125 77.7197265625 -408.3203125 77.7197265625 -422.8203125 75.98046875 c 128,-1,11
 -437.3203125 74.240234375 -437.3203125 74.240234375 -443.700195312 67.8603515625 c 128,-1,12
 -450.080078125 61.48046875 -450.080078125 61.48046875 -455.879882812 44.66015625 c 0,13,14
 -469.222040688 5.96587653128 -469.222040688 5.96587653128 -486.040039062 1.16015625 c 0,15,16
 -493 -1.16015625 -493 -1.16015625 -498.219726562 -6.3798828125 c 128,-1,17
 -503.440429688 -11.599609375 -503.440429688 -11.599609375 -503.440429688 -16.240234375 c 256,0,1
-307.400390625 -16.240234375 m 256,18,19
 -307.400390625 -26.6796875 -307.400390625 -26.6796875 -253.459960938 -26.6796875 c 128,-1,20
 -199.51953125 -26.6796875 -199.51953125 -26.6796875 -186.1796875 -24.9404296875 c 128,-1,21
 -172.83984375 -23.2001953125 -172.83984375 -23.2001953125 -166.459960938 -15.66015625 c 128,-1,22
 -160.080078125 -8.1201171875 -160.080078125 -8.1201171875 -151.959960938 10.4399414062 c 0,23,24
 -132.915842708 53.9688637173 -132.915842708 53.9688637173 -113.6796875 64.9599609375 c 0,25,26
 -102.080078125 71.919921875 -102.080078125 71.919921875 -113.6796875 74.240234375 c 128,-1,27
 -125.280273438 76.5595703125 -125.280273438 76.5595703125 -168.780273438 77.1396484375 c 128,-1,28
 -212.280273438 77.7197265625 -212.280273438 77.7197265625 -226.780273438 75.98046875 c 128,-1,29
 -241.280273438 74.240234375 -241.280273438 74.240234375 -247.66015625 67.8603515625 c 128,-1,30
 -254.040039062 61.48046875 -254.040039062 61.48046875 -259.83984375 44.66015625 c 0,31,32
 -273.182001627 5.96587653042 -273.182001627 5.96587653042 -290 1.16015625 c 0,33,34
 -296.959960938 -1.16015625 -296.959960938 -1.16015625 -302.1796875 -6.3798828125 c 128,-1,35
 -307.400390625 -11.599609375 -307.400390625 -11.599609375 -307.400390625 -16.240234375 c 256,18,19
-111.360351562 -16.240234375 m 256,36,37
 -111.360351562 -26.6796875 -111.360351562 -26.6796875 -57.420410156 -26.6796875 c 128,-1,38
 -3.48046875 -26.6796875 -3.48046875 -26.6796875 9.8603515625 -24.9404296875 c 128,-1,39
 23.2001953125 -23.2001953125 23.2001953125 -23.2001953125 29.580078125 -15.66015625 c 128,-1,40
 35.9599609375 -8.1201171875 35.9599609375 -8.1201171875 44.080078125 10.4399414062 c 0,41,42
 63.1241963544 53.9688637164 63.1241963544 53.9688637164 82.3603515625 64.9599609375 c 0,43,44
 93.9599609375 71.919921875 93.9599609375 71.919921875 82.3603515625 74.240234375 c 128,-1,45
 70.759765625 76.5595703125 70.759765625 76.5595703125 27.259765625 77.1396484375 c 128,-1,46
 -16.240234375 77.7197265625 -16.240234375 77.7197265625 -30.740234375 75.98046875 c 128,-1,47
 -45.240234375 74.240234375 -45.240234375 74.240234375 -51.6201171875 67.8603515625 c 128,-1,48
 -58 61.48046875 -58 61.48046875 -63.7998046875 44.66015625 c 0,49,50
 -77.1419625632 5.96587653111 -77.1419625632 5.96587653111 -93.9599609375 1.16015625 c 0,51,52
 -100.919921875 -1.16015625 -100.919921875 -1.16015625 -106.139648438 -6.3798828125 c 128,-1,53
 -111.360351562 -11.599609375 -111.360351562 -11.599609375 -111.360351562 -16.240234375 c 256,36,37
EndSplineSet
EndChar

StartChar: H
Encoding: 72 72 8
Width: 46
VWidth: 1392
GlyphClass: 1
Flags: W
LayerCount: 2
Back
SplineSet
-325 -220.5 m 128,-1,1
 -307 -223 -307 -223 -282 -223 c 0,2,3
 -250 -223 -250 -223 -238.5 -221.5 c 128,-1,4
 -227 -220 -227 -220 -221.5 -213.5 c 128,-1,5
 -216 -207 -216 -207 -208 -189 c 0,6,7
 -202 -175 -202 -175 -192.5 -161.5 c 128,-1,8
 -183 -148 -183 -148 -176 -144 c 0,9,10
 -166 -138 -166 -138 -176 -136 c 128,-1,11
 -186 -134 -186 -134 -225 -133 c 0,12,13
 -261 -133 -261 -133 -273.5 -134.5 c 128,-1,14
 -286 -136 -286 -136 -291.5 -141.5 c 128,-1,15
 -297 -147 -297 -147 -302 -163 c 0,16,17
 -307 -176 -307 -176 -314 -186.5 c 128,-1,18
 -321 -197 -321 -197 -328 -199 c 0,19,20
 -334 -201 -334 -201 -338.5 -205.5 c 128,-1,21
 -343 -210 -343 -210 -343 -214 c 256,22,0
 -343 -218 -343 -218 -325 -220.5 c 128,-1,1
-157 -220.5 m 128,-1,24
 -139 -223 -139 -223 -114 -223 c 0,25,26
 -82 -223 -82 -223 -70.5 -221.5 c 128,-1,27
 -59 -220 -59 -220 -53.5 -213.5 c 128,-1,28
 -48 -207 -48 -207 -40 -189 c 0,29,30
 -34 -175 -34 -175 -24.5 -161.5 c 128,-1,31
 -15 -148 -15 -148 -8 -144 c 0,32,33
 2 -138 2 -138 -8 -136 c 128,-1,34
 -18 -134 -18 -134 -57 -133 c 0,35,36
 -93 -133 -93 -133 -105.5 -134.5 c 128,-1,37
 -118 -136 -118 -136 -123.5 -141.5 c 128,-1,38
 -129 -147 -129 -147 -134 -163 c 0,39,40
 -139 -176 -139 -176 -146 -186.5 c 128,-1,41
 -153 -197 -153 -197 -160 -199 c 0,42,43
 -166 -201 -166 -201 -170.5 -205.5 c 128,-1,44
 -175 -210 -175 -210 -175 -214 c 256,45,23
 -175 -218 -175 -218 -157 -220.5 c 128,-1,24
11 -220.5 m 128,-1,47
 29 -223 29 -223 54 -223 c 0,48,49
 86 -223 86 -223 97.5 -221.5 c 128,-1,50
 109 -220 109 -220 114.5 -213.5 c 128,-1,51
 120 -207 120 -207 128 -189 c 0,52,53
 134 -175 134 -175 143.5 -161.5 c 128,-1,54
 153 -148 153 -148 160 -144 c 0,55,56
 170 -138 170 -138 160 -136 c 128,-1,57
 150 -134 150 -134 111 -133 c 0,58,59
 75 -133 75 -133 62.5 -134.5 c 128,-1,60
 50 -136 50 -136 44.5 -141.5 c 128,-1,61
 39 -147 39 -147 34 -163 c 0,62,63
 29 -176 29 -176 22 -186.5 c 128,-1,64
 15 -197 15 -197 8 -199 c 0,65,66
 2 -201 2 -201 -2.5 -205.5 c 128,-1,67
 -7 -210 -7 -210 -7 -214 c 256,68,46
 -7 -218 -7 -218 11 -220.5 c 128,-1,47
-493 -221.5 m 128,-1,70
 -475 -224 -475 -224 -450 -224 c 0,71,72
 -418 -224 -418 -224 -406.5 -222.5 c 128,-1,73
 -395 -221 -395 -221 -389.5 -214.5 c 128,-1,74
 -384 -208 -384 -208 -376 -190 c 0,75,76
 -370 -176 -370 -176 -360.5 -162.5 c 128,-1,77
 -351 -149 -351 -149 -344 -145 c 0,78,79
 -334 -139 -334 -139 -344 -137 c 128,-1,80
 -354 -135 -354 -135 -393 -134 c 0,81,82
 -429 -134 -429 -134 -441.5 -135.5 c 128,-1,83
 -454 -137 -454 -137 -459.5 -142.5 c 128,-1,84
 -465 -148 -465 -148 -470 -164 c 0,85,86
 -475 -177 -475 -177 -482 -187.5 c 128,-1,87
 -489 -198 -489 -198 -496 -200 c 0,88,89
 -502 -202 -502 -202 -506.5 -206.5 c 128,-1,90
 -511 -211 -511 -211 -511 -215 c 256,91,69
 -511 -219 -511 -219 -493 -221.5 c 128,-1,70
EndSplineSet
Fore
SplineSet
-351.48046875 -16.240234375 m 256,0,1
 -351.48046875 -26.6796875 -351.48046875 -26.6796875 -297.540039062 -26.6796875 c 128,-1,2
 -243.599609375 -26.6796875 -243.599609375 -26.6796875 -230.259765625 -24.9404296875 c 128,-1,3
 -216.919921875 -23.2001953125 -216.919921875 -23.2001953125 -210.540039062 -15.66015625 c 128,-1,4
 -204.16015625 -8.1201171875 -204.16015625 -8.1201171875 -196.040039062 10.4399414062 c 0,5,6
 -176.995920834 53.9688637155 -176.995920834 53.9688637155 -157.759765625 64.9599609375 c 0,7,8
 -146.16015625 71.919921875 -146.16015625 71.919921875 -157.759765625 74.240234375 c 128,-1,9
 -169.360351562 76.5595703125 -169.360351562 76.5595703125 -212.860351562 77.1396484375 c 128,-1,10
 -256.360351562 77.7197265625 -256.360351562 77.7197265625 -270.860351562 75.98046875 c 128,-1,11
 -285.360351562 74.240234375 -285.360351562 74.240234375 -291.740234375 67.8603515625 c 128,-1,12
 -298.120117188 61.48046875 -298.120117188 61.48046875 -303.919921875 44.66015625 c 0,13,14
 -317.262079749 5.9658765318 -317.262079749 5.9658765318 -334.080078125 1.16015625 c 0,15,16
 -341.040039062 -1.16015625 -341.040039062 -1.16015625 -346.259765625 -6.3798828125 c 128,-1,17
 -351.48046875 -11.599609375 -351.48046875 -11.599609375 -351.48046875 -16.240234375 c 256,0,1
-156.599609375 -16.240234375 m 256,18,19
 -156.599609375 -26.6796875 -156.599609375 -26.6796875 -102.659667969 -26.6796875 c 128,-1,20
 -48.7197265625 -26.6796875 -48.7197265625 -26.6796875 -35.3798828125 -24.9404296875 c 128,-1,21
 -22.0400390625 -23.2001953125 -22.0400390625 -23.2001953125 -15.66015625 -15.66015625 c 128,-1,22
 -9.2802734375 -8.1201171875 -9.2802734375 -8.1201171875 -1.16015625 10.4399414062 c 0,23,24
 17.8839619794 53.9688637164 17.8839619794 53.9688637164 37.1201171875 64.9599609375 c 0,25,26
 48.7197265625 71.919921875 48.7197265625 71.919921875 37.1201171875 74.240234375 c 128,-1,27
 25.51953125 76.5595703125 25.51953125 76.5595703125 -17.98046875 77.1396484375 c 128,-1,28
 -61.48046875 77.7197265625 -61.48046875 77.7197265625 -75.98046875 75.98046875 c 128,-1,29
 -90.48046875 74.240234375 -90.48046875 74.240234375 -96.8603515625 67.8603515625 c 128,-1,30
 -103.240234375 61.48046875 -103.240234375 61.48046875 -109.040039062 44.66015625 c 0,31,32
 -122.382196938 5.96587653128 -122.382196938 5.96587653128 -139.200195312 1.16015625 c 0,33,34
 -146.16015625 -1.16015625 -146.16015625 -1.16015625 -151.379882812 -6.3798828125 c 128,-1,35
 -156.599609375 -11.599609375 -156.599609375 -11.599609375 -156.599609375 -16.240234375 c 256,18,19
38.2802734375 -16.240234375 m 256,36,37
 38.2802734375 -26.6796875 38.2802734375 -26.6796875 92.2202148438 -26.6796875 c 128,-1,38
 146.16015625 -26.6796875 146.16015625 -26.6796875 159.5 -24.9404296875 c 128,-1,39
 172.83984375 -23.2001953125 172.83984375 -23.2001953125 179.219726562 -15.66015625 c 128,-1,40
 185.599609375 -8.1201171875 185.599609375 -8.1201171875 193.719726562 10.4399414062 c 0,41,42
 212.763844792 53.9688637173 212.763844792 53.9688637173 232 64.9599609375 c 0,43,44
 243.599609375 71.919921875 243.599609375 71.919921875 232 74.240234375 c 128,-1,45
 220.400390625 76.5595703125 220.400390625 76.5595703125 176.900390625 77.1396484375 c 128,-1,46
 133.400390625 77.7197265625 133.400390625 77.7197265625 118.900390625 75.98046875 c 128,-1,47
 104.400390625 74.240234375 104.400390625 74.240234375 98.01953125 67.8603515625 c 128,-1,48
 91.6396484375 61.48046875 91.6396484375 61.48046875 85.83984375 44.66015625 c 0,49,50
 72.4976858743 5.96587653111 72.4976858743 5.96587653111 55.6796875 1.16015625 c 0,51,52
 48.7197265625 -1.16015625 48.7197265625 -1.16015625 43.5 -6.3798828125 c 128,-1,53
 38.2802734375 -11.599609375 38.2802734375 -11.599609375 38.2802734375 -16.240234375 c 256,36,37
-546.360351562 -17.400390625 m 256,54,55
 -546.360351562 -27.83984375 -546.360351562 -27.83984375 -492.420410156 -27.83984375 c 128,-1,56
 -438.48046875 -27.83984375 -438.48046875 -27.83984375 -425.139648438 -26.099609375 c 128,-1,57
 -411.799804688 -24.3603515625 -411.799804688 -24.3603515625 -405.419921875 -16.8203125 c 128,-1,58
 -399.040039062 -9.2802734375 -399.040039062 -9.2802734375 -390.919921875 9.27978515625 c 0,59,60
 -371.875803647 52.8087074649 -371.875803647 52.8087074649 -352.639648438 63.7998046875 c 0,61,62
 -341.040039062 70.759765625 -341.040039062 70.759765625 -352.639648438 73.080078125 c 128,-1,63
 -364.240234375 75.400390625 -364.240234375 75.400390625 -407.740234375 75.9799804688 c 128,-1,64
 -451.240234375 76.5595703125 -451.240234375 76.5595703125 -465.740234375 74.8203125 c 128,-1,65
 -480.240234375 73.080078125 -480.240234375 73.080078125 -486.620117188 66.7001953125 c 128,-1,66
 -493 60.3203125 -493 60.3203125 -498.799804688 43.5 c 0,67,68
 -512.141962563 4.80572028094 -512.141962563 4.80572028094 -528.959960938 0 c 0,69,70
 -535.919921875 -2.3203125 -535.919921875 -2.3203125 -541.139648438 -7.5400390625 c 128,-1,71
 -546.360351562 -12.759765625 -546.360351562 -12.759765625 -546.360351562 -17.400390625 c 256,54,55
EndSplineSet
EndChar

StartChar: I
Encoding: 73 73 9
Width: 1357
VWidth: 1392
GlyphClass: 1
Flags: W
LayerCount: 2
Back
Refer: 44 113 N 1 0 0 1 0 0 0
Refer: 72 42 N 1 0 0 1 -120 280 2
Fore
SplineSet
306.819335938 1081.11914062 m 0,0,1
 391.852539062 1001.21191406 391.852539062 1001.21191406 582.900390625 974.399414062 c 0,2,3
 615.959960938 969.759765625 615.959960938 969.759765625 636.259765625 968.52734375 c 128,-1,4
 656.559570312 967.294921875 656.559570312 967.294921875 656.559570312 961.639648438 c 0,5,6
 656.559570312 949.68359375 656.559570312 949.68359375 642.059570312 916.221679688 c 128,-1,7
 627.559570312 882.759765625 627.559570312 882.759765625 627.559570312 875.799804688 c 256,8,9
 627.559570312 868.83984375 627.559570312 868.83984375 632.779296875 865.939453125 c 128,-1,10
 638 863.0390625 638 863.0390625 647.279296875 860.719726562 c 128,-1,11
 656.559570312 858.399414062 656.559570312 858.399414062 672.799804688 854.33984375 c 128,-1,12
 689.040039062 850.279296875 689.040039062 850.279296875 725 851.439453125 c 0,13,14
 742.399414062 852.599609375 742.399414062 852.599609375 763.279296875 881.599609375 c 128,-1,15
 784.159179688 910.599609375 784.159179688 910.599609375 788.799804688 941.918945312 c 0,16,17
 788.799804688 945.399414062 788.799804688 945.399414062 802.719726562 945.399414062 c 2,18,-1
 849.119140625 944.239257812 l 2,19,20
 872.319335938 943.079101562 872.319335938 943.079101562 1007.45996094 939.01953125 c 128,-1,21
 1142.59960938 934.958984375 1142.59960938 934.958984375 1187.83984375 932.059570312 c 128,-1,22
 1233.08007812 929.159179688 1233.08007812 929.159179688 1258.59960938 919.299804688 c 128,-1,23
 1284.11914062 909.439453125 1284.11914062 909.439453125 1296.87988281 909.439453125 c 0,24,25
 1316.59960938 909.439453125 1316.59960938 909.439453125 1316.59960938 934.958984375 c 256,26,27
 1316.59960938 960.479492188 1316.59960938 960.479492188 1285.27929688 976.719726562 c 0,28,29
 1228.63574219 1006.09082031 1228.63574219 1006.09082031 988.319335938 1017.31933594 c 0,30,31
 855.099609375 1024.33203125 855.099609375 1024.33203125 794.599609375 1032.39941406 c 0,32,33
 792.279296875 1034.71972656 792.279296875 1034.71972656 792.279296875 1038.19921875 c 2,34,-1
 795.759765625 1062.55957031 l 1,35,36
 799.240234375 1076.47949219 799.240234375 1076.47949219 806.200195312 1078.79980469 c 128,-1,37
 813.159179688 1081.11914062 813.159179688 1081.11914062 818.379882812 1090.39941406 c 128,-1,38
 823.599609375 1099.6796875 823.599609375 1099.6796875 823.599609375 1112.43945312 c 0,39,40
 823.599609375 1139.515625 823.599609375 1139.515625 736.599609375 1143.75976562 c 0,41,42
 670.479492188 1147.23925781 670.479492188 1147.23925781 669.319335938 1074.15917969 c 1,43,44
 669.319335938 1074.15917969 669.319335938 1074.15917969 669.319335938 1057.91894531 c 128,-1,45
 669.319335938 1041.6796875 669.319335938 1041.6796875 664.6796875 1041.6796875 c 0,46,47
 552.607421875 1041.6796875 552.607421875 1041.6796875 473.859375 1108.95898438 c 0,48,49
 414.119140625 1159.99902344 414.119140625 1159.99902344 393.819335938 1232.49902344 c 0,50,51
 353.30859375 1377.18359375 353.30859375 1377.18359375 169.359375 1408.23925781 c 0,52,53
 110.19921875 1418.6796875 110.19921875 1418.6796875 73.080078125 1418.6796875 c 128,-1,54
 35.9599609375 1418.6796875 35.9599609375 1418.6796875 35.9599609375 1396.63964844 c 0,55,56
 35.9599609375 1388.51953125 35.9599609375 1388.51953125 42.919921875 1372.27929688 c 128,-1,57
 49.8798828125 1356.0390625 49.8798828125 1356.0390625 60.3193359375 1350.81933594 c 128,-1,58
 70.759765625 1345.59960938 70.759765625 1345.59960938 107.879882812 1345.59960938 c 128,-1,59
 145 1345.59960938 145 1345.59960938 172.259765625 1316.59960938 c 128,-1,60
 199.51953125 1287.59960938 199.51953125 1287.59960938 229.099609375 1206.97949219 c 128,-1,61
 258.6796875 1126.359375 258.6796875 1126.359375 306.819335938 1081.11914062 c 0,0,1
214.01953125 721.51953125 m 0,62,63
 299.052734375 641.611328125 299.052734375 641.611328125 490.099609375 614.799804688 c 0,64,65
 523.16015625 610.16015625 523.16015625 610.16015625 543.459960938 608.927734375 c 128,-1,66
 563.759765625 607.6953125 563.759765625 607.6953125 563.759765625 602.040039062 c 0,67,68
 563.759765625 590.083007812 563.759765625 590.083007812 549.259765625 556.622070312 c 128,-1,69
 534.759765625 523.16015625 534.759765625 523.16015625 534.759765625 516.200195312 c 256,70,71
 534.759765625 509.240234375 534.759765625 509.240234375 539.979492188 506.33984375 c 128,-1,72
 545.200195312 503.439453125 545.200195312 503.439453125 554.479492188 501.120117188 c 128,-1,73
 563.759765625 498.799804688 563.759765625 498.799804688 580 494.739257812 c 128,-1,74
 596.240234375 490.6796875 596.240234375 490.6796875 632.200195312 491.83984375 c 0,75,76
 649.599609375 493 649.599609375 493 670.479492188 522 c 128,-1,77
 691.359375 551 691.359375 551 696 582.319335938 c 0,78,79
 696 585.799804688 696 585.799804688 709.919921875 585.799804688 c 2,80,-1
 756.319335938 584.639648438 l 2,81,82
 779.51953125 583.479492188 779.51953125 583.479492188 914.659179688 579.418945312 c 128,-1,83
 1049.79980469 575.359375 1049.79980469 575.359375 1095.04003906 572.459960938 c 128,-1,84
 1140.28027344 569.559570312 1140.28027344 569.559570312 1165.79980469 559.69921875 c 128,-1,85
 1191.31933594 549.83984375 1191.31933594 549.83984375 1204.08007812 549.83984375 c 0,86,87
 1223.79980469 549.83984375 1223.79980469 549.83984375 1223.79980469 575.359375 c 256,88,89
 1223.79980469 600.879882812 1223.79980469 600.879882812 1192.47949219 617.120117188 c 0,90,91
 1135.83496094 646.490234375 1135.83496094 646.490234375 895.51953125 657.719726562 c 0,92,93
 762.299804688 664.732421875 762.299804688 664.732421875 701.799804688 672.799804688 c 0,94,95
 699.479492188 675.120117188 699.479492188 675.120117188 699.479492188 678.599609375 c 2,96,-1
 702.959960938 702.959960938 l 1,97,98
 706.440429688 716.879882812 706.440429688 716.879882812 713.399414062 719.200195312 c 128,-1,99
 720.359375 721.51953125 720.359375 721.51953125 725.579101562 730.799804688 c 128,-1,100
 730.799804688 740.080078125 730.799804688 740.080078125 730.799804688 752.83984375 c 0,101,102
 730.799804688 779.916015625 730.799804688 779.916015625 643.799804688 784.16015625 c 0,103,104
 577.6796875 787.639648438 577.6796875 787.639648438 576.51953125 714.559570312 c 1,105,106
 576.51953125 714.559570312 576.51953125 714.559570312 576.51953125 698.319335938 c 128,-1,107
 576.51953125 682.080078125 576.51953125 682.080078125 571.879882812 682.080078125 c 0,108,109
 459.807617188 682.080078125 459.807617188 682.080078125 381.059570312 749.359375 c 0,110,111
 321.319335938 800.399414062 321.319335938 800.399414062 301.01953125 872.899414062 c 0,112,113
 260.508789062 1017.58300781 260.508789062 1017.58300781 76.5595703125 1048.63964844 c 0,114,115
 17.3994140625 1059.08007812 17.3994140625 1059.08007812 -19.7197265625 1059.08007812 c 128,-1,116
 -56.83984375 1059.08007812 -56.83984375 1059.08007812 -56.83984375 1037.04003906 c 0,117,118
 -56.83984375 1028.91992188 -56.83984375 1028.91992188 -49.8798828125 1012.6796875 c 128,-1,119
 -42.919921875 996.439453125 -42.919921875 996.439453125 -32.48046875 991.219726562 c 128,-1,120
 -22.0400390625 986 -22.0400390625 986 15.080078125 986 c 128,-1,121
 52.2001953125 986 52.2001953125 986 79.4599609375 957 c 128,-1,122
 106.719726562 928 106.719726562 928 136.299804688 847.379882812 c 128,-1,123
 165.879882812 766.759765625 165.879882812 766.759765625 214.01953125 721.51953125 c 0,62,63
1260.91992188 219.8203125 m 128,-1,125
 1307.3203125 241.280273438 1307.3203125 241.280273438 1314.86035156 259.840820312 c 128,-1,126
 1322.40039062 278.400390625 1322.40039062 278.400390625 1322.40039062 293.48046875 c 0,127,128
 1322.40039062 338.719726562 1322.40039062 338.719726562 1259.75976562 370.040039062 c 128,-1,129
 1197.12011719 401.360351562 1197.12011719 401.360351562 1062.55957031 424.559570312 c 0,130,131
 997.599609375 436.16015625 997.599609375 436.16015625 976.719726562 436.16015625 c 128,-1,132
 955.83984375 436.16015625 955.83984375 436.16015625 948.879882812 425.720703125 c 128,-1,133
 941.919921875 415.280273438 941.919921875 415.280273438 941.919921875 408.3203125 c 128,-1,134
 941.919921875 401.360351562 941.919921875 401.360351562 955.259765625 396.139648438 c 128,-1,135
 968.599609375 390.919921875 968.599609375 390.919921875 1019.63964844 376.419921875 c 0,136,137
 1124.04003906 346.760742188 1124.04003906 346.760742188 1124.04003906 301.599609375 c 0,138,139
 1124.04003906 251.719726562 1124.04003906 251.719726562 1038.78027344 225.040039062 c 128,-1,140
 953.51953125 198.360351562 953.51953125 198.360351562 802.719726562 198.360351562 c 0,141,142
 584.638671875 198.360351562 584.638671875 198.360351562 487.200195312 230.83984375 c 0,143,144
 411.799804688 255.200195312 411.799804688 255.200195312 369.459960938 283.620117188 c 128,-1,145
 327.120117188 312.040039062 327.120117188 312.040039062 327.120117188 336.400390625 c 0,146,147
 327.120117188 365.400390625 327.120117188 365.400390625 385.120117188 377 c 0,148,149
 439.484375 388.444335938 439.484375 388.444335938 447.759765625 396.719726562 c 0,150,151
 465.765625 416.9765625 465.765625 416.9765625 348 430.360351562 c 0,152,153
 296.959960938 436.16015625 296.959960938 436.16015625 237.220703125 436.16015625 c 128,-1,154
 177.48046875 436.16015625 177.48046875 436.16015625 140.360351562 425.720703125 c 128,-1,155
 103.240234375 415.280273438 103.240234375 415.280273438 92.2197265625 406 c 128,-1,156
 81.2001953125 396.719726562 81.2001953125 396.719726562 81.2001953125 371.200195312 c 0,157,158
 81.2001953125 321.3203125 81.2001953125 321.3203125 136.879882812 276.66015625 c 128,-1,159
 192.559570312 232 192.559570312 232 292.899414062 203.580078125 c 0,160,161
 503.8203125 143.83984375 503.8203125 143.83984375 781.83984375 143.83984375 c 0,162,163
 990.639648438 143.83984375 990.639648438 143.83984375 1142.59960938 180.959960938 c 0,164,124
 1214.51953125 198.360351562 1214.51953125 198.360351562 1260.91992188 219.8203125 c 128,-1,125
EndSplineSet
EndChar

StartChar: J
Encoding: 74 74 10
Width: 46
VWidth: 1392
GlyphClass: 1
Flags: W
LayerCount: 2
Back
SplineSet
-23 -479 m 0,1,2
 7 -479 7 -479 25 -470 c 0,3,4
 37 -463 37 -463 45 -443.5 c 128,-1,5
 53 -424 53 -424 53 -403 c 0,6,7
 53 -391 53 -391 50 -380 c 0,8,9
 43 -359 43 -359 -1 -338 c 128,-1,10
 -45 -317 -45 -317 -113 -302 c 0,11,12
 -160 -293 -160 -293 -233.5 -289.5 c 128,-1,13
 -307 -286 -307 -286 -470 -286 c 0,14,15
 -715 -286 -715 -286 -852.5 -299.5 c 128,-1,16
 -990 -313 -990 -313 -990 -336 c 0,17,18
 -990 -344 -990 -344 -979 -347.5 c 128,-1,19
 -968 -351 -968 -351 -937 -351 c 0,20,21
 -928 -351 -928 -351 -874 -349 c 2,22,-1
 -838 -347 l 2,23,24
 -736 -341 -736 -341 -586 -341 c 0,25,26
 -424 -341 -424 -341 -283 -347.5 c 128,-1,27
 -142 -354 -142 -354 -112 -363 c 0,28,29
 -76 -374 -76 -374 -51.5 -390 c 128,-1,30
 -27 -406 -27 -406 -27 -416 c 0,31,32
 -27 -423 -27 -423 -42 -423 c 0,33,34
 -50 -423 -50 -423 -55 -422 c 0,35,36
 -73 -420 -73 -420 -83.5 -426 c 128,-1,37
 -94 -432 -94 -432 -94 -443 c 0,38,39
 -94 -456 -94 -456 -80 -466 c 0,40,0
 -63 -479 -63 -479 -23 -479 c 0,1,2
EndSplineSet
Fore
SplineSet
-50.4599609375 -262.16015625 m 128,-1,1
 -62.6396484375 -269.120117188 -62.6396484375 -269.120117188 -62.6396484375 -283.040039063 c 128,-1,2
 -62.6396484375 -296.959960938 -62.6396484375 -296.959960938 -44.6596679688 -310.299804688 c 128,-1,3
 -26.6796875 -323.639648438 -26.6796875 -323.639648438 13.919921875 -323.639648438 c 128,-1,4
 54.51953125 -323.639648438 54.51953125 -323.639648438 75.400390625 -313.200195312 c 0,5,6
 89.3203125 -305.080078125 89.3203125 -305.080078125 98.599609375 -282.459960938 c 128,-1,7
 107.879882812 -259.83984375 107.879882812 -259.83984375 107.879882812 -240.699707031 c 128,-1,8
 107.879882812 -221.559570312 107.879882812 -221.559570312 104.400390625 -208.799804688 c 0,9,10
 96.2802734375 -184.440429688 96.2802734375 -184.440429688 45.240234375 -160.080078125 c 128,-1,11
 -5.7998046875 -135.719726562 -5.7998046875 -135.719726562 -84.6796875 -118.3203125 c 0,12,13
 -139.200195312 -107.879882812 -139.200195312 -107.879882812 -224.459960938 -103.8203125 c 128,-1,14
 -309.719726562 -99.759765625 -309.719726562 -99.759765625 -546.359863281 -99.759765625 c 128,-1,15
 -783 -99.759765625 -783 -99.759765625 -942.5 -115.419921875 c 128,-1,16
 -1102 -131.080078125 -1102 -131.080078125 -1102 -157.759765625 c 0,17,18
 -1102 -167.040039062 -1102 -167.040039062 -1089.24023438 -171.099609375 c 128,-1,19
 -1076.48046875 -175.16015625 -1076.48046875 -175.16015625 -1053.28027344 -175.16015625 c 128,-1,20
 -1030.08007812 -175.16015625 -1030.08007812 -175.16015625 -967.440429688 -172.83984375 c 1,21,-1
 -925.6796875 -170.51953125 l 2,22,23
 -807.360351562 -163.559570312 -807.360351562 -163.559570312 -626.400390625 -163.559570312 c 128,-1,24
 -445.440429688 -163.559570312 -445.440429688 -163.559570312 -281.879882812 -171.099609375 c 128,-1,25
 -118.3203125 -178.639648438 -118.3203125 -178.639648438 -80.0400390625 -190.239746094 c 128,-1,26
 -41.759765625 -201.83984375 -41.759765625 -201.83984375 -13.33984375 -220.400390625 c 128,-1,27
 15.080078125 -238.959960938 15.080078125 -238.959960938 15.080078125 -250.559570312 c 0,28,29
 15.080078125 -258.6796875 15.080078125 -258.6796875 1.740234375 -258.6796875 c 128,-1,30
 -11.599609375 -258.6796875 -11.599609375 -258.6796875 -24.9399414062 -256.939941406 c 128,-1,0
 -38.2802734375 -255.200195312 -38.2802734375 -255.200195312 -50.4599609375 -262.16015625 c 128,-1,1
EndSplineSet
EndChar

StartChar: K
Encoding: 75 75 11
Width: 46
VWidth: 1392
GlyphClass: 1
Flags: W
LayerCount: 2
Back
Refer: 38 107 N 1 0 0 1 0 -160 2
Fore
SplineSet
-50.4599609375 -250.559570312 m 128,-1,1
 -62.6396484375 -257.51953125 -62.6396484375 -257.51953125 -62.6396484375 -271.439453125 c 128,-1,2
 -62.6396484375 -285.359375 -62.6396484375 -285.359375 -44.66015625 -298.700195312 c 128,-1,3
 -26.6796875 -312.040039062 -26.6796875 -312.040039062 13.919921875 -312.040039062 c 128,-1,4
 54.51953125 -312.040039062 54.51953125 -312.040039062 75.400390625 -301.599609375 c 0,5,6
 89.3203125 -293.479492188 89.3203125 -293.479492188 98.599609375 -270.859375 c 128,-1,7
 107.879882812 -248.239257812 107.879882812 -248.239257812 107.879882812 -229.099609375 c 128,-1,8
 107.879882812 -209.959960938 107.879882812 -209.959960938 104.400390625 -197.19921875 c 0,9,10
 96.2802734375 -172.83984375 96.2802734375 -172.83984375 45.240234375 -148.479492188 c 128,-1,11
 -5.7998046875 -124.119140625 -5.7998046875 -124.119140625 -84.6796875 -106.719726562 c 0,12,13
 -139.200195312 -96.279296875 -139.200195312 -96.279296875 -224.459960938 -92.2197265625 c 128,-1,14
 -309.719726562 -88.1591796875 -309.719726562 -88.1591796875 -546.359375 -88.1591796875 c 128,-1,15
 -783 -88.1591796875 -783 -88.1591796875 -942.5 -103.819335938 c 128,-1,16
 -1102 -119.479492188 -1102 -119.479492188 -1102 -146.159179688 c 0,17,18
 -1102 -155.439453125 -1102 -155.439453125 -1089.24023438 -159.5 c 128,-1,19
 -1076.48046875 -163.559570312 -1076.48046875 -163.559570312 -1053.28027344 -163.559570312 c 128,-1,20
 -1030.08007812 -163.559570312 -1030.08007812 -163.559570312 -967.440429688 -161.239257812 c 1,21,-1
 -925.6796875 -158.919921875 l 2,22,23
 -807.360351562 -151.959960938 -807.360351562 -151.959960938 -626.400390625 -151.959960938 c 128,-1,24
 -445.440429688 -151.959960938 -445.440429688 -151.959960938 -281.879882812 -159.5 c 128,-1,25
 -118.3203125 -167.040039062 -118.3203125 -167.040039062 -80.0400390625 -178.639648438 c 128,-1,26
 -41.759765625 -190.239257812 -41.759765625 -190.239257812 -13.33984375 -208.799804688 c 128,-1,27
 15.080078125 -227.359375 15.080078125 -227.359375 15.080078125 -238.959960938 c 0,28,29
 15.080078125 -247.080078125 15.080078125 -247.080078125 1.740234375 -247.080078125 c 128,-1,30
 -11.599609375 -247.080078125 -11.599609375 -247.080078125 -24.939453125 -245.33984375 c 128,-1,0
 -38.2802734375 -243.599609375 -38.2802734375 -243.599609375 -50.4599609375 -250.559570312 c 128,-1,1
-646.120117188 -314.359375 m 256,31,32
 -646.120117188 -324.799804688 -646.120117188 -324.799804688 -592.180664062 -324.799804688 c 128,-1,33
 -538.240234375 -324.799804688 -538.240234375 -324.799804688 -524.900390625 -323.059570312 c 128,-1,34
 -511.559570312 -321.319335938 -511.559570312 -321.319335938 -505.1796875 -313.779296875 c 128,-1,35
 -498.799804688 -306.239257812 -498.799804688 -306.239257812 -490.6796875 -287.6796875 c 0,36,37
 -471.637695312 -244.154296875 -471.637695312 -244.154296875 -452.400390625 -233.159179688 c 0,38,39
 -440.799804688 -226.19921875 -440.799804688 -226.19921875 -452.400390625 -223.879882812 c 128,-1,40
 -464 -221.559570312 -464 -221.559570312 -507.5 -220.979492188 c 128,-1,41
 -551 -220.399414062 -551 -220.399414062 -565.5 -222.139648438 c 128,-1,42
 -580 -223.879882812 -580 -223.879882812 -586.379882812 -230.259765625 c 128,-1,43
 -592.759765625 -236.639648438 -592.759765625 -236.639648438 -598.559570312 -253.459960938 c 0,44,45
 -611.904296875 -292.155273438 -611.904296875 -292.155273438 -628.719726562 -296.959960938 c 0,46,47
 -635.6796875 -299.279296875 -635.6796875 -299.279296875 -640.900390625 -304.5 c 128,-1,48
 -646.120117188 -309.719726562 -646.120117188 -309.719726562 -646.120117188 -314.359375 c 256,31,32
EndSplineSet
EndChar

StartChar: L
Encoding: 76 76 12
Width: 1671
VWidth: 1392
GlyphClass: 1
Flags: W
LayerCount: 2
Back
Refer: 70 33 N 1 0 0 1 0 0 0
Refer: 70 33 N 1 0 0 1 760 -160 2
Fore
SplineSet
1293.39941406 35.9599609375 m 128,-1,1
 1277.15917969 25.5205078125 1277.15917969 25.5205078125 1277.15917969 12.759765625 c 128,-1,2
 1277.15917969 -0 1277.15917969 -0 1303.25976562 -11.0205078125 c 128,-1,3
 1329.359375 -22.0400390625 1329.359375 -22.0400390625 1401.859375 -22.0400390625 c 128,-1,4
 1474.359375 -22.0400390625 1474.359375 -22.0400390625 1533.51953125 -4.6396484375 c 0,5,6
 1636.75976562 26.6806640625 1636.75976562 26.6806640625 1636.75976562 70.7607421875 c 0,7,8
 1636.75976562 95.1201171875 1636.75976562 95.1201171875 1603.11914062 126.440429688 c 256,9,10
 1569.47949219 157.760742188 1569.47949219 157.760742188 1465.65917969 190.8203125 c 128,-1,11
 1361.83984375 223.880859375 1361.83984375 223.880859375 1241.19921875 245.919921875 c 128,-1,12
 1120.55957031 267.959960938 1120.55957031 267.959960938 1048.05957031 267.959960938 c 128,-1,13
 975.559570312 267.959960938 975.559570312 267.959960938 967.439453125 248.240234375 c 0,14,15
 962.799804688 237.80078125 962.799804688 237.80078125 962.799804688 227.360351562 c 0,16,17
 962.799804688 206.48046875 962.799804688 206.48046875 995.859375 197.780273438 c 128,-1,18
 1028.91992188 189.080078125 1028.91992188 189.080078125 1128.6796875 183.860351562 c 128,-1,19
 1228.43945312 178.640625 1228.43945312 178.640625 1287.01953125 165.30078125 c 128,-1,20
 1345.59960938 151.959960938 1345.59960938 151.959960938 1369.95996094 127.599609375 c 128,-1,21
 1394.31933594 103.240234375 1394.31933594 103.240234375 1394.31933594 85.8408203125 c 0,22,23
 1394.31933594 60.3203125 1394.31933594 60.3203125 1338.63964844 51.0400390625 c 0,24,0
 1309.63964844 46.400390625 1309.63964844 46.400390625 1293.39941406 35.9599609375 c 128,-1,1
411.799804688 221.559570312 m 128,-1,26
 395.559570312 211.120117188 395.559570312 211.120117188 395.559570312 198.360351562 c 128,-1,27
 395.559570312 185.599609375 395.559570312 185.599609375 421.659179688 174.579101562 c 128,-1,28
 447.759765625 163.559570312 447.759765625 163.559570312 520.259765625 163.559570312 c 128,-1,29
 592.759765625 163.559570312 592.759765625 163.559570312 651.919921875 180.959960938 c 0,30,31
 755.16015625 212.280273438 755.16015625 212.280273438 755.16015625 256.360351562 c 0,32,33
 755.16015625 280.719726562 755.16015625 280.719726562 721.51953125 312.040039062 c 256,34,35
 687.879882812 343.360351562 687.879882812 343.360351562 584.059570312 376.419921875 c 128,-1,36
 480.240234375 409.48046875 480.240234375 409.48046875 359.599609375 431.51953125 c 128,-1,37
 238.959960938 453.559570312 238.959960938 453.559570312 166.459960938 453.559570312 c 128,-1,38
 93.9599609375 453.559570312 93.9599609375 453.559570312 85.83984375 433.83984375 c 0,39,40
 81.2001953125 423.400390625 81.2001953125 423.400390625 81.2001953125 412.959960938 c 0,41,42
 81.2001953125 392.080078125 81.2001953125 392.080078125 114.259765625 383.379882812 c 128,-1,43
 147.3203125 374.6796875 147.3203125 374.6796875 247.080078125 369.459960938 c 128,-1,44
 346.83984375 364.240234375 346.83984375 364.240234375 405.419921875 350.900390625 c 128,-1,45
 464 337.559570312 464 337.559570312 488.359375 313.19921875 c 128,-1,46
 512.719726562 288.83984375 512.719726562 288.83984375 512.719726562 271.440429688 c 0,47,48
 512.719726562 245.919921875 512.719726562 245.919921875 457.040039062 236.639648438 c 0,49,25
 428.040039062 232 428.040039062 232 411.799804688 221.559570312 c 128,-1,26
EndSplineSet
EndChar

StartChar: M
Encoding: 77 77 13
Width: 46
VWidth: 1392
GlyphClass: 1
Flags: W
LayerCount: 2
Back
Refer: 19 83 N 1 0 0 1 0 0 0
Refer: 14 78 N 1 0 0 1 0 0 0
Fore
SplineSet
-704.120117188 -402.51953125 m 256,0,1
 -555.70703125 -402.51953125 -555.70703125 -402.51953125 -476.212890625 -378.740234375 c 128,-1,2
 -396.719726562 -354.959960938 -396.719726562 -354.959960938 -320.16015625 -312.040039062 c 128,-1,3
 -243.599609375 -269.120117188 -243.599609375 -269.120117188 -150.799804688 -201.83984375 c 128,-1,4
 -58 -134.559570312 -58 -134.559570312 8.1201171875 -92.7998046875 c 128,-1,5
 74.240234375 -51.0400390625 74.240234375 -51.0400390625 92.7998046875 -31.3203125 c 128,-1,6
 111.360351562 -11.599609375 111.360351562 -11.599609375 103.8203125 -4.6396484375 c 128,-1,7
 96.2802734375 2.3203125 96.2802734375 2.3203125 52.7802734375 2.3203125 c 0,8,9
 -87.517578125 2.3203125 -87.517578125 2.3203125 -180.959960938 -31.3203125 c 0,10,11
 -209.959960938 -41.759765625 -209.959960938 -41.759765625 -229.680664062 -62.060546875 c 128,-1,12
 -249.400390625 -82.3603515625 -249.400390625 -82.3603515625 -309.719726562 -129.33984375 c 0,13,14
 -472.268554688 -255.940429688 -472.268554688 -255.940429688 -619.440429688 -306.240234375 c 0,15,16
 -685.559570312 -328.280273438 -685.559570312 -328.280273438 -760.959960938 -328.280273438 c 0,17,18
 -874.639648438 -328.280273438 -874.639648438 -328.280273438 -1015 -278.400390625 c 0,19,20
 -1026.59960938 -274.919921875 -1026.59960938 -274.919921875 -1057.33984375 -263.900390625 c 128,-1,21
 -1088.08007812 -252.879882812 -1088.08007812 -252.879882812 -1097.93945312 -252.879882812 c 128,-1,22
 -1107.79980469 -252.879882812 -1107.79980469 -252.879882812 -1111.86035156 -259.83984375 c 128,-1,23
 -1115.91992188 -266.799804688 -1115.91992188 -266.799804688 -1115.91992188 -271.440429688 c 0,24,25
 -1115.91992188 -291.16015625 -1115.91992188 -291.16015625 -1048.63964844 -320.16015625 c 0,26,27
 -907.120117188 -385.120117188 -907.120117188 -385.120117188 -745.879882812 -401.360351562 c 0,28,29
 -736.599609375 -402.51953125 -736.599609375 -402.51953125 -704.120117188 -402.51953125 c 256,0,1
-693.6796875 -59.16015625 m 0,30,31
 -642.639648438 -84.6796875 -642.639648438 -84.6796875 -564.919921875 -95.119140625 c 128,-1,32
 -487.200195312 -105.559570312 -487.200195312 -105.559570312 -430.939453125 -105.559570312 c 128,-1,33
 -374.6796875 -105.559570312 -374.6796875 -105.559570312 -356.120117188 -102.080078125 c 128,-1,34
 -337.559570312 -98.599609375 -337.559570312 -98.599609375 -321.899414062 -82.939453125 c 128,-1,35
 -306.240234375 -67.2802734375 -306.240234375 -67.2802734375 -306.240234375 -44.080078125 c 128,-1,36
 -306.240234375 -20.8798828125 -306.240234375 -20.8798828125 -312.040039062 -1.16015625 c 0,37,38
 -328.708007812 44.080078125 -328.708007812 44.080078125 -446.599609375 44.080078125 c 0,39,40
 -526.639648438 44.080078125 -526.639648438 44.080078125 -526.639648438 19.7197265625 c 0,41,42
 -526.639648438 6.9599609375 -526.639648438 6.9599609375 -506.919921875 -9.279296875 c 128,-1,43
 -487.200195312 -25.51953125 -487.200195312 -25.51953125 -487.200195312 -34.7998046875 c 0,44,45
 -487.200195312 -41.759765625 -487.200195312 -41.759765625 -506.33984375 -41.759765625 c 0,46,47
 -553.4375 -41.759765625 -553.4375 -41.759765625 -672.799804688 6.9599609375 c 0,48,49
 -726.932617188 31.3203125 -726.932617188 31.3203125 -741.625976562 31.3203125 c 128,-1,50
 -756.3203125 31.3203125 -756.3203125 31.3203125 -756.3203125 18.5595703125 c 0,51,52
 -756.3203125 -27.8388671875 -756.3203125 -27.8388671875 -693.6796875 -59.16015625 c 0,30,31
EndSplineSet
EndChar

StartChar: N
Encoding: 78 78 14
Width: 46
VWidth: 1392
GlyphClass: 1
Flags: W
LayerCount: 2
Back
SplineSet
-647 -547 m 256,1,2
 -619 -547 -619 -547 -569 -545 c 0,3,4
 -499 -541 -499 -541 -440.5 -523.5 c 128,-1,5
 -382 -506 -382 -506 -316 -469 c 128,-1,6
 -250 -432 -250 -432 -157 -365 c 0,7,8
 -90 -316 -90 -316 -8 -264 c 0,9,10
 24 -244 24 -244 40 -227 c 128,-1,11
 56 -210 56 -210 48 -203 c 0,12,13
 43 -198 43 -198 -1 -198 c 0,14,15
 -32 -198 -32 -198 -68 -201 c 128,-1,16
 -104 -204 -104 -204 -125 -208 c 0,17,18
 -171 -218 -171 -218 -196 -227 c 128,-1,19
 -221 -236 -221 -236 -235 -251 c 0,20,21
 -255 -271 -255 -271 -307 -311.5 c 128,-1,22
 -359 -352 -359 -352 -396 -375 c 0,23,24
 -495 -437 -495 -437 -574 -464 c 0,25,26
 -631 -483 -631 -483 -696 -483 c 0,27,28
 -794 -483 -794 -483 -915 -440 c 0,29,30
 -925 -437 -925 -437 -951.5 -427.5 c 128,-1,31
 -978 -418 -978 -418 -986 -418 c 0,32,33
 -995 -418 -995 -418 -999 -425 c 0,34,35
 -1002 -430 -1002 -430 -1002 -434 c 0,36,37
 -1002 -451 -1002 -451 -944 -476 c 0,38,39
 -822 -532 -822 -532 -683 -546 c 0,40,0
 -675 -547 -675 -547 -647 -547 c 256,1,2
EndSplineSet
Fore
SplineSet
-704.120117188 -402.51953125 m 260,1,2
 -555.706929213 -402.51953125 -555.706929213 -402.51953125 -476.213327888 -378.739746094 c 132,-1,3
 -396.719726562 -354.959960938 -396.719726562 -354.959960938 -320.16015625 -312.040039062 c 132,-1,4
 -243.599609375 -269.120117188 -243.599609375 -269.120117188 -150.799804688 -201.83984375 c 132,-1,5
 -58 -134.559570312 -58 -134.559570312 8.1201171875 -92.7998046873 c 132,-1,6
 74.240234375 -51.0400390625 74.240234375 -51.0400390625 92.7998046875 -31.3203125 c 132,-1,7
 111.360351562 -11.599609375 111.360351562 -11.599609375 103.8203125 -4.6396484375 c 132,-1,8
 96.2802734375 2.3203125 96.2802734375 2.3203125 52.7802734375 2.3203125 c 4,9,10
 -87.517626264 2.3203125 -87.517626264 2.3203125 -180.959960938 -31.3203125 c 4,11,12
 -209.959960938 -41.759765625 -209.959960938 -41.759765625 -229.680175781 -62.0600585938 c 132,-1,13
 -249.400390625 -82.3603515625 -249.400390625 -82.3603515625 -309.719726562 -129.33984375 c 4,14,15
 -472.268203487 -255.940707108 -472.268203487 -255.940707108 -619.440429688 -306.240234375 c 4,16,17
 -685.559570312 -328.280273438 -685.559570312 -328.280273438 -760.959960938 -328.280273438 c 4,18,19
 -874.639648438 -328.280273438 -874.639648438 -328.280273438 -1015 -278.400390625 c 4,20,21
 -1026.59960938 -274.919921875 -1026.59960938 -274.919921875 -1057.33984375 -263.900390625 c 132,-1,22
 -1088.08007812 -252.879882812 -1088.08007812 -252.879882812 -1097.9399414 -252.879882812 c 132,-1,23
 -1107.79980469 -252.879882812 -1107.79980469 -252.879882812 -1111.85986328 -259.83984375 c 132,-1,24
 -1115.91992188 -266.799804688 -1115.91992188 -266.799804688 -1115.91992188 -271.440429688 c 4,25,26
 -1115.91992188 -291.16015625 -1115.91992188 -291.16015625 -1048.63964844 -320.16015625 c 4,27,28
 -907.120117188 -385.120117188 -907.120117188 -385.120117188 -745.879882812 -401.360351562 c 4,29,0
 -736.599609375 -402.51953125 -736.599609375 -402.51953125 -704.120117188 -402.51953125 c 260,1,2
EndSplineSet
EndChar

StartChar: O
Encoding: 79 79 15
Width: 1357
VWidth: 1392
GlyphClass: 1
Flags: W
LayerCount: 2
Back
Refer: 17 81 N 1 0 0 1 0 0 0
Refer: 72 42 N 1 0 0 1 0 440 2
Fore
SplineSet
446.01953125 1266.71972656 m 0,0,1
 531.052734375 1186.8125 531.052734375 1186.8125 722.100585938 1160 c 0,2,3
 755.16015625 1155.36035156 755.16015625 1155.36035156 775.459960938 1154.12792969 c 128,-1,4
 795.759765625 1152.89550781 795.759765625 1152.89550781 795.759765625 1147.24023438 c 0,5,6
 795.759765625 1135.28417969 795.759765625 1135.28417969 781.259765625 1101.82226562 c 128,-1,7
 766.759765625 1068.36035156 766.759765625 1068.36035156 766.759765625 1061.40039062 c 256,8,9
 766.759765625 1054.44042969 766.759765625 1054.44042969 771.979492188 1051.54003906 c 128,-1,10
 777.200195312 1048.63964844 777.200195312 1048.63964844 786.479492188 1046.3203125 c 128,-1,11
 795.759765625 1044 795.759765625 1044 812 1039.94042969 c 128,-1,12
 828.240234375 1035.87988281 828.240234375 1035.87988281 864.200195312 1037.04003906 c 0,13,14
 881.599609375 1038.20019531 881.599609375 1038.20019531 902.479492188 1067.20019531 c 128,-1,15
 923.359375 1096.20019531 923.359375 1096.20019531 928 1127.51953125 c 0,16,17
 928 1131 928 1131 941.919921875 1131 c 2,18,-1
 988.319335938 1129.83984375 l 2,19,20
 1011.51953125 1128.6796875 1011.51953125 1128.6796875 1146.66015625 1124.62011719 c 128,-1,21
 1281.79980469 1120.55957031 1281.79980469 1120.55957031 1327.04003906 1117.66015625 c 128,-1,22
 1372.28027344 1114.75976562 1372.28027344 1114.75976562 1397.79980469 1104.90039062 c 128,-1,23
 1423.31933594 1095.04003906 1423.31933594 1095.04003906 1436.08007812 1095.04003906 c 0,24,25
 1455.79980469 1095.04003906 1455.79980469 1095.04003906 1455.79980469 1120.55957031 c 256,26,27
 1455.79980469 1146.08007812 1455.79980469 1146.08007812 1424.47949219 1162.3203125 c 0,28,29
 1367.8359375 1191.69140625 1367.8359375 1191.69140625 1127.51953125 1202.91992188 c 0,30,31
 994.299804688 1209.93261719 994.299804688 1209.93261719 933.799804688 1218 c 0,32,33
 931.479492188 1220.3203125 931.479492188 1220.3203125 931.479492188 1223.79980469 c 2,34,-1
 934.959960938 1248.16015625 l 1,35,36
 938.440429688 1262.08007812 938.440429688 1262.08007812 945.400390625 1264.40039062 c 128,-1,37
 952.359375 1266.71972656 952.359375 1266.71972656 957.580078125 1276 c 128,-1,38
 962.799804688 1285.28027344 962.799804688 1285.28027344 962.799804688 1298.04003906 c 0,39,40
 962.799804688 1325.11621094 962.799804688 1325.11621094 875.799804688 1329.36035156 c 0,41,42
 809.6796875 1332.83984375 809.6796875 1332.83984375 808.51953125 1259.75976562 c 1,43,44
 808.51953125 1259.75976562 808.51953125 1259.75976562 808.51953125 1243.51953125 c 128,-1,45
 808.51953125 1227.28027344 808.51953125 1227.28027344 803.879882812 1227.28027344 c 0,46,47
 691.807617188 1227.28027344 691.807617188 1227.28027344 613.059570312 1294.55957031 c 0,48,49
 553.319335938 1345.59960938 553.319335938 1345.59960938 533.01953125 1418.09960938 c 0,50,51
 492.508789062 1562.78417969 492.508789062 1562.78417969 308.559570312 1593.83984375 c 0,52,53
 249.399414062 1604.28027344 249.399414062 1604.28027344 212.280273438 1604.28027344 c 128,-1,54
 175.16015625 1604.28027344 175.16015625 1604.28027344 175.16015625 1582.24023438 c 0,55,56
 175.16015625 1574.12011719 175.16015625 1574.12011719 182.120117188 1557.87988281 c 128,-1,57
 189.080078125 1541.63964844 189.080078125 1541.63964844 199.51953125 1536.41992188 c 128,-1,58
 209.959960938 1531.20019531 209.959960938 1531.20019531 247.080078125 1531.20019531 c 128,-1,59
 284.200195312 1531.20019531 284.200195312 1531.20019531 311.459960938 1502.20019531 c 128,-1,60
 338.719726562 1473.20019531 338.719726562 1473.20019531 368.299804688 1392.58007812 c 128,-1,61
 397.879882812 1311.95996094 397.879882812 1311.95996094 446.01953125 1266.71972656 c 0,0,1
353.219726562 907.120117188 m 0,62,63
 438.252929688 827.211914062 438.252929688 827.211914062 629.299804688 800.400390625 c 0,64,65
 662.360351562 795.760742188 662.360351562 795.760742188 682.66015625 794.528320312 c 128,-1,66
 702.959960938 793.295898438 702.959960938 793.295898438 702.959960938 787.640625 c 0,67,68
 702.959960938 775.68359375 702.959960938 775.68359375 688.459960938 742.22265625 c 128,-1,69
 673.959960938 708.760742188 673.959960938 708.760742188 673.959960938 701.80078125 c 256,70,71
 673.959960938 694.840820312 673.959960938 694.840820312 679.1796875 691.940429688 c 128,-1,72
 684.400390625 689.040039062 684.400390625 689.040039062 693.6796875 686.720703125 c 128,-1,73
 702.959960938 684.400390625 702.959960938 684.400390625 719.200195312 680.33984375 c 128,-1,74
 735.440429688 676.280273438 735.440429688 676.280273438 771.400390625 677.440429688 c 0,75,76
 788.799804688 678.600585938 788.799804688 678.600585938 809.6796875 707.600585938 c 128,-1,77
 830.559570312 736.600585938 830.559570312 736.600585938 835.200195312 767.919921875 c 0,78,79
 835.200195312 771.400390625 835.200195312 771.400390625 849.120117188 771.400390625 c 2,80,-1
 895.51953125 770.240234375 l 2,81,82
 918.719726562 769.080078125 918.719726562 769.080078125 1053.859375 765.01953125 c 128,-1,83
 1189 760.959960938 1189 760.959960938 1234.24023438 758.060546875 c 128,-1,84
 1279.48046875 755.16015625 1279.48046875 755.16015625 1305 745.299804688 c 128,-1,85
 1330.51953125 735.440429688 1330.51953125 735.440429688 1343.28027344 735.440429688 c 0,86,87
 1363 735.440429688 1363 735.440429688 1363 760.959960938 c 256,88,89
 1363 786.48046875 1363 786.48046875 1331.6796875 802.720703125 c 0,90,91
 1275.03515625 832.090820312 1275.03515625 832.090820312 1034.71972656 843.3203125 c 0,92,93
 901.5 850.333007812 901.5 850.333007812 841 858.400390625 c 0,94,95
 838.6796875 860.720703125 838.6796875 860.720703125 838.6796875 864.200195312 c 2,96,-1
 842.16015625 888.560546875 l 1,97,98
 845.640625 902.48046875 845.640625 902.48046875 852.599609375 904.80078125 c 128,-1,99
 859.559570312 907.120117188 859.559570312 907.120117188 864.779296875 916.400390625 c 128,-1,100
 870 925.680664062 870 925.680664062 870 938.440429688 c 0,101,102
 870 965.516601562 870 965.516601562 783 969.760742188 c 0,103,104
 716.879882812 973.240234375 716.879882812 973.240234375 715.719726562 900.16015625 c 1,105,106
 715.719726562 900.16015625 715.719726562 900.16015625 715.719726562 883.919921875 c 128,-1,107
 715.719726562 867.680664062 715.719726562 867.680664062 711.080078125 867.680664062 c 0,108,109
 599.0078125 867.680664062 599.0078125 867.680664062 520.259765625 934.959960938 c 0,110,111
 460.51953125 986 460.51953125 986 440.219726562 1058.5 c 0,112,113
 399.708984375 1203.18359375 399.708984375 1203.18359375 215.759765625 1234.24023438 c 0,114,115
 156.599609375 1244.68066406 156.599609375 1244.68066406 119.48046875 1244.68066406 c 128,-1,116
 82.3603515625 1244.68066406 82.3603515625 1244.68066406 82.3603515625 1222.640625 c 0,117,118
 82.3603515625 1214.52050781 82.3603515625 1214.52050781 89.3203125 1198.28027344 c 128,-1,119
 96.2802734375 1182.04003906 96.2802734375 1182.04003906 106.719726562 1176.8203125 c 128,-1,120
 117.16015625 1171.60058594 117.16015625 1171.60058594 154.280273438 1171.60058594 c 128,-1,121
 191.400390625 1171.60058594 191.400390625 1171.60058594 218.66015625 1142.60058594 c 128,-1,122
 245.919921875 1113.60058594 245.919921875 1113.60058594 275.5 1032.98046875 c 128,-1,123
 305.080078125 952.360351562 305.080078125 952.360351562 353.219726562 907.120117188 c 0,62,63
1260.91992188 219.8203125 m 128,-1,125
 1307.3203125 241.280273438 1307.3203125 241.280273438 1314.86035156 259.840820312 c 128,-1,126
 1322.40039062 278.400390625 1322.40039062 278.400390625 1322.40039062 293.48046875 c 0,127,128
 1322.40039062 338.719726562 1322.40039062 338.719726562 1259.75976562 370.040039062 c 128,-1,129
 1197.12011719 401.360351562 1197.12011719 401.360351562 1062.55957031 424.559570312 c 0,130,131
 997.599609375 436.16015625 997.599609375 436.16015625 976.719726562 436.16015625 c 128,-1,132
 955.83984375 436.16015625 955.83984375 436.16015625 948.879882812 425.720703125 c 128,-1,133
 941.919921875 415.280273438 941.919921875 415.280273438 941.919921875 408.3203125 c 128,-1,134
 941.919921875 401.360351562 941.919921875 401.360351562 955.259765625 396.139648438 c 128,-1,135
 968.599609375 390.919921875 968.599609375 390.919921875 1019.63964844 376.419921875 c 0,136,137
 1124.04003906 346.760742188 1124.04003906 346.760742188 1124.04003906 301.599609375 c 0,138,139
 1124.04003906 251.719726562 1124.04003906 251.719726562 1038.78027344 225.040039062 c 128,-1,140
 953.51953125 198.360351562 953.51953125 198.360351562 802.719726562 198.360351562 c 0,141,142
 584.638671875 198.360351562 584.638671875 198.360351562 487.200195312 230.83984375 c 0,143,144
 411.799804688 255.200195312 411.799804688 255.200195312 369.459960938 283.620117188 c 128,-1,145
 327.120117188 312.040039062 327.120117188 312.040039062 327.120117188 336.400390625 c 0,146,147
 327.120117188 365.400390625 327.120117188 365.400390625 385.120117188 377 c 0,148,149
 439.484375 388.444335938 439.484375 388.444335938 447.759765625 396.719726562 c 0,150,151
 465.765625 416.9765625 465.765625 416.9765625 348 430.360351562 c 0,152,153
 296.959960938 436.16015625 296.959960938 436.16015625 237.220703125 436.16015625 c 128,-1,154
 177.48046875 436.16015625 177.48046875 436.16015625 140.360351562 425.720703125 c 128,-1,155
 103.240234375 415.280273438 103.240234375 415.280273438 92.2197265625 406 c 128,-1,156
 81.2001953125 396.719726562 81.2001953125 396.719726562 81.2001953125 371.200195312 c 0,157,158
 81.2001953125 321.3203125 81.2001953125 321.3203125 136.879882812 276.66015625 c 128,-1,159
 192.559570312 232 192.559570312 232 292.899414062 203.580078125 c 0,160,161
 503.8203125 143.83984375 503.8203125 143.83984375 781.83984375 143.83984375 c 0,162,163
 990.639648438 143.83984375 990.639648438 143.83984375 1142.59960938 180.959960938 c 0,164,124
 1214.51953125 198.360351562 1214.51953125 198.360351562 1260.91992188 219.8203125 c 128,-1,125
551 418.759765625 m 128,-1,166
 534.759765625 408.3203125 534.759765625 408.3203125 534.759765625 395.559570312 c 128,-1,167
 534.759765625 382.799804688 534.759765625 382.799804688 560.859375 371.779296875 c 128,-1,168
 586.959960938 360.759765625 586.959960938 360.759765625 659.459960938 360.759765625 c 128,-1,169
 731.959960938 360.759765625 731.959960938 360.759765625 791.120117188 378.16015625 c 0,170,171
 894.360351562 409.48046875 894.360351562 409.48046875 894.360351562 453.560546875 c 0,172,173
 894.360351562 477.919921875 894.360351562 477.919921875 860.719726562 509.240234375 c 256,174,175
 827.080078125 540.560546875 827.080078125 540.560546875 723.259765625 573.620117188 c 128,-1,176
 619.440429688 606.680664062 619.440429688 606.680664062 498.799804688 628.719726562 c 128,-1,177
 378.16015625 650.759765625 378.16015625 650.759765625 305.66015625 650.759765625 c 128,-1,178
 233.16015625 650.759765625 233.16015625 650.759765625 225.040039062 631.040039062 c 0,179,180
 220.400390625 620.600585938 220.400390625 620.600585938 220.400390625 610.16015625 c 0,181,182
 220.400390625 589.280273438 220.400390625 589.280273438 253.459960938 580.580078125 c 128,-1,183
 286.520507812 571.879882812 286.520507812 571.879882812 386.280273438 566.66015625 c 128,-1,184
 486.040039062 561.440429688 486.040039062 561.440429688 544.620117188 548.100585938 c 128,-1,185
 603.200195312 534.759765625 603.200195312 534.759765625 627.559570312 510.399414062 c 128,-1,186
 651.919921875 486.040039062 651.919921875 486.040039062 651.919921875 468.640625 c 0,187,188
 651.919921875 443.120117188 651.919921875 443.120117188 596.240234375 433.83984375 c 0,189,165
 567.240234375 429.200195312 567.240234375 429.200195312 551 418.759765625 c 128,-1,166
EndSplineSet
EndChar

StartChar: P
Encoding: 80 80 16
Width: 1648
VWidth: 1392
GlyphClass: 1
Flags: W
LayerCount: 2
Back
Refer: 55 48 N 1 0 0 1 0 0 0
Refer: 70 33 N 1 0 0 1 740 -260 2
Fore
SplineSet
1270.20019531 -80.0400390625 m 128,-1,1
 1253.95996094 -90.4794921875 1253.95996094 -90.4794921875 1253.95996094 -103.240234375 c 128,-1,2
 1253.95996094 -116 1253.95996094 -116 1280.05957031 -127.020507812 c 128,-1,3
 1306.16015625 -138.040039062 1306.16015625 -138.040039062 1378.66015625 -138.040039062 c 128,-1,4
 1451.16015625 -138.040039062 1451.16015625 -138.040039062 1510.3203125 -120.639648438 c 0,5,6
 1613.56054688 -89.3193359375 1613.56054688 -89.3193359375 1613.56054688 -45.2392578125 c 0,7,8
 1613.56054688 -20.8798828125 1613.56054688 -20.8798828125 1579.91992188 10.4404296875 c 256,9,10
 1546.28027344 41.7607421875 1546.28027344 41.7607421875 1442.45996094 74.8203125 c 128,-1,11
 1338.640625 107.880859375 1338.640625 107.880859375 1218 129.919921875 c 128,-1,12
 1097.36035156 151.959960938 1097.36035156 151.959960938 1024.86035156 151.959960938 c 128,-1,13
 952.360351562 151.959960938 952.360351562 151.959960938 944.240234375 132.240234375 c 0,14,15
 939.600585938 121.80078125 939.600585938 121.80078125 939.600585938 111.360351562 c 0,16,17
 939.600585938 90.48046875 939.600585938 90.48046875 972.66015625 81.7802734375 c 128,-1,18
 1005.72070312 73.080078125 1005.72070312 73.080078125 1105.48046875 67.8603515625 c 128,-1,19
 1205.24023438 62.640625 1205.24023438 62.640625 1263.8203125 49.30078125 c 128,-1,20
 1322.40039062 35.9599609375 1322.40039062 35.9599609375 1346.75976562 11.599609375 c 128,-1,21
 1371.12011719 -12.759765625 1371.12011719 -12.759765625 1371.12011719 -30.1591796875 c 0,22,23
 1371.12011719 -55.6796875 1371.12011719 -55.6796875 1315.44042969 -64.9599609375 c 0,24,0
 1286.44042969 -69.599609375 1286.44042969 -69.599609375 1270.20019531 -80.0400390625 c 128,-1,1
380.48046875 230.259765625 m 132,-1,26
 432.6796875 225.040039062 432.6796875 225.040039062 476.1796875 225.040039062 c 132,-1,27
 519.6796875 225.040039062 519.6796875 225.040039062 946.559570312 232 c 5,28,29
 1075.3203125 232 1075.3203125 232 1137.37988281 223.299804688 c 132,-1,30
 1199.44042969 214.599609375 1199.44042969 214.599609375 1226.12011719 200.6796875 c 132,-1,31
 1252.79980469 186.759765625 1252.79980469 186.759765625 1265.55957031 186.759765625 c 4,32,33
 1288.75976562 186.759765625 1288.75976562 186.759765625 1288.75976562 214.599609375 c 4,34,35
 1288.75976562 232 1288.75976562 232 1276.58007812 252.299804688 c 132,-1,36
 1264.40039062 272.599609375 1264.40039062 272.599609375 1242.36035156 285.360351562 c 4,37,38
 1129.83984375 350.3203125 1129.83984375 350.3203125 854.919921875 350.3203125 c 4,39,40
 720.360351562 350.3203125 720.360351562 350.3203125 506.919921875 331.759765625 c 5,41,-1
 482.559570312 329.440429688 l 6,42,43
 363.080078125 319 363.080078125 319 334.66015625 319 c 132,-1,44
 306.240234375 319 306.240234375 319 296.379882812 322.48046875 c 132,-1,45
 286.51953125 325.959960938 286.51953125 325.959960938 271.439453125 339.299804688 c 132,-1,46
 256.360351562 352.639648438 256.360351562 352.639648438 256.360351562 368.879882812 c 132,-1,47
 256.360351562 385.120117188 256.360351562 385.120117188 284.200195312 406 c 4,48,49
 302.760742188 422.240234375 302.760742188 422.240234375 314.940429688 422.240234375 c 132,-1,50
 327.120117188 422.240234375 327.120117188 422.240234375 359.020507812 406 c 132,-1,51
 390.919921875 389.759765625 390.919921875 389.759765625 403.100585938 389.759765625 c 132,-1,52
 415.280273438 389.759765625 415.280273438 389.759765625 424.560546875 397.879882812 c 132,-1,53
 433.83984375 406 433.83984375 406 433.83984375 418.1796875 c 132,-1,54
 433.83984375 430.360351562 433.83984375 430.360351562 412.959960938 446.599609375 c 132,-1,55
 392.080078125 462.83984375 392.080078125 462.83984375 338.719726562 482.560546875 c 132,-1,56
 285.360351562 502.280273438 285.360351562 502.280273438 234.900390625 502.280273438 c 132,-1,57
 184.440429688 502.280273438 184.440429688 502.280273438 145.580078125 484.880859375 c 132,-1,58
 106.719726562 467.48046875 106.719726562 467.48046875 96.8603515625 460.51953125 c 132,-1,59
 87 453.559570312 87 453.559570312 84.099609375 443.120117188 c 132,-1,60
 81.2001953125 432.6796875 81.2001953125 432.6796875 81.2001953125 403.099609375 c 132,-1,61
 81.2001953125 373.51953125 81.2001953125 373.51953125 88.740234375 355.540039062 c 132,-1,62
 96.2802734375 337.559570312 96.2802734375 337.559570312 118.3203125 323.059570312 c 132,-1,63
 140.360351562 308.559570312 140.360351562 308.559570312 193.719726562 284.779296875 c 132,-1,64
 247.080078125 261 247.080078125 261 287.6796875 248.240234375 c 132,-1,25
 328.280273438 235.48046875 328.280273438 235.48046875 380.48046875 230.259765625 c 132,-1,26
EndSplineSet
EndChar

StartChar: Q
Encoding: 81 81 17
Width: 1357
VWidth: 1392
GlyphClass: 1
Flags: W
LayerCount: 2
Back
Refer: 44 113 N 1 0 0 1 0 0 0
Refer: 70 33 N 1 0 0 1 120 170 2
Fore
SplineSet
551 418.759765625 m 132,-1,1
 534.759765625 408.3203125 534.759765625 408.3203125 534.759765625 395.559570312 c 132,-1,2
 534.759765625 382.799804688 534.759765625 382.799804688 560.859375 371.779296875 c 132,-1,3
 586.959960938 360.759765625 586.959960938 360.759765625 659.459960938 360.759765625 c 132,-1,4
 731.959960938 360.759765625 731.959960938 360.759765625 791.120117188 378.16015625 c 4,5,6
 894.360351562 409.48046875 894.360351562 409.48046875 894.360351562 453.560546875 c 4,7,8
 894.360351562 477.919921875 894.360351562 477.919921875 860.719726562 509.240234375 c 260,9,10
 827.080078125 540.560546875 827.080078125 540.560546875 723.259765625 573.620117188 c 132,-1,11
 619.440429688 606.680664062 619.440429688 606.680664062 498.799804688 628.719726562 c 132,-1,12
 378.16015625 650.759765625 378.16015625 650.759765625 305.66015625 650.759765625 c 132,-1,13
 233.16015625 650.759765625 233.16015625 650.759765625 225.040039062 631.040039062 c 4,14,15
 220.400390625 620.600585938 220.400390625 620.600585938 220.400390625 610.16015625 c 4,16,17
 220.400390625 589.280273438 220.400390625 589.280273438 253.459960938 580.580078125 c 132,-1,18
 286.520507812 571.879882812 286.520507812 571.879882812 386.280273438 566.66015625 c 132,-1,19
 486.040039062 561.440429688 486.040039062 561.440429688 544.620117188 548.100585938 c 132,-1,20
 603.200195312 534.759765625 603.200195312 534.759765625 627.559570312 510.399414062 c 132,-1,21
 651.919921875 486.040039062 651.919921875 486.040039062 651.919921875 468.640625 c 4,22,23
 651.919921875 443.120117188 651.919921875 443.120117188 596.240234375 433.83984375 c 4,24,0
 567.240234375 429.200195312 567.240234375 429.200195312 551 418.759765625 c 132,-1,1
1260.91992188 219.8203125 m 132,-1,26
 1307.3203125 241.280273438 1307.3203125 241.280273438 1314.86035156 259.840820312 c 132,-1,27
 1322.40039062 278.400390625 1322.40039062 278.400390625 1322.40039062 293.48046875 c 4,28,29
 1322.40039062 338.719726562 1322.40039062 338.719726562 1259.75976562 370.040039062 c 132,-1,30
 1197.12011719 401.360351562 1197.12011719 401.360351562 1062.55957031 424.559570312 c 4,31,32
 997.599609375 436.16015625 997.599609375 436.16015625 976.719726562 436.16015625 c 132,-1,33
 955.83984375 436.16015625 955.83984375 436.16015625 948.879882812 425.720703125 c 132,-1,34
 941.919921875 415.280273438 941.919921875 415.280273438 941.919921875 408.3203125 c 132,-1,35
 941.919921875 401.360351562 941.919921875 401.360351562 955.259765625 396.139648438 c 132,-1,36
 968.599609375 390.919921875 968.599609375 390.919921875 1019.63964844 376.419921875 c 4,37,38
 1124.04003906 346.760742188 1124.04003906 346.760742188 1124.04003906 301.599609375 c 4,39,40
 1124.04003906 251.719726562 1124.04003906 251.719726562 1038.78027344 225.040039062 c 132,-1,41
 953.51953125 198.360351562 953.51953125 198.360351562 802.719726562 198.360351562 c 4,42,43
 584.638671875 198.360351562 584.638671875 198.360351562 487.200195312 230.83984375 c 4,44,45
 411.799804688 255.200195312 411.799804688 255.200195312 369.459960938 283.620117188 c 132,-1,46
 327.120117188 312.040039062 327.120117188 312.040039062 327.120117188 336.400390625 c 4,47,48
 327.120117188 365.400390625 327.120117188 365.400390625 385.120117188 377 c 4,49,50
 439.484375 388.444335938 439.484375 388.444335938 447.759765625 396.719726562 c 4,51,52
 465.765625 416.9765625 465.765625 416.9765625 348 430.360351562 c 4,53,54
 296.959960938 436.16015625 296.959960938 436.16015625 237.220703125 436.16015625 c 132,-1,55
 177.48046875 436.16015625 177.48046875 436.16015625 140.360351562 425.720703125 c 132,-1,56
 103.240234375 415.280273438 103.240234375 415.280273438 92.2197265625 406 c 132,-1,57
 81.2001953125 396.719726562 81.2001953125 396.719726562 81.2001953125 371.200195312 c 4,58,59
 81.2001953125 321.3203125 81.2001953125 321.3203125 136.879882812 276.66015625 c 132,-1,60
 192.559570312 232 192.559570312 232 292.899414062 203.580078125 c 4,61,62
 503.8203125 143.83984375 503.8203125 143.83984375 781.83984375 143.83984375 c 4,63,64
 990.639648438 143.83984375 990.639648438 143.83984375 1142.59960938 180.959960938 c 4,65,25
 1214.51953125 198.360351562 1214.51953125 198.360351562 1260.91992188 219.8203125 c 132,-1,26
EndSplineSet
EndChar

StartChar: R
Encoding: 82 82 18
Width: 1357
VWidth: 1392
GlyphClass: 1
Flags: W
LayerCount: 2
Back
Refer: 44 113 N 1 0 0 1 0 0 0
Refer: 91 36 N 1 0 0 1 -120 270 2
Fore
SplineSet
214.01953125 709.919921875 m 0,0,1
 299.052734375 630.01171875 299.052734375 630.01171875 490.100585938 603.200195312 c 0,2,3
 523.16015625 598.560546875 523.16015625 598.560546875 543.459960938 597.328125 c 128,-1,4
 563.759765625 596.094726562 563.759765625 596.094726562 563.759765625 590.440429688 c 0,5,6
 563.759765625 578.483398438 563.759765625 578.483398438 549.259765625 545.022460938 c 128,-1,7
 534.759765625 511.560546875 534.759765625 511.560546875 534.759765625 504.600585938 c 256,8,9
 534.759765625 497.640625 534.759765625 497.640625 539.979492188 494.740234375 c 128,-1,10
 545.200195312 491.83984375 545.200195312 491.83984375 554.479492188 489.520507812 c 128,-1,11
 563.759765625 487.200195312 563.759765625 487.200195312 580 483.139648438 c 128,-1,12
 596.240234375 479.080078125 596.240234375 479.080078125 632.200195312 480.240234375 c 0,13,14
 649.599609375 481.400390625 649.599609375 481.400390625 670.479492188 510.400390625 c 128,-1,15
 691.359375 539.400390625 691.359375 539.400390625 696 570.719726562 c 0,16,17
 696 574.200195312 696 574.200195312 709.919921875 574.200195312 c 2,18,-1
 756.319335938 573.040039062 l 2,19,20
 779.51953125 571.879882812 779.51953125 571.879882812 914.66015625 567.819335938 c 128,-1,21
 1049.79980469 563.759765625 1049.79980469 563.759765625 1095.04003906 560.860351562 c 128,-1,22
 1140.28027344 557.959960938 1140.28027344 557.959960938 1165.79980469 548.099609375 c 128,-1,23
 1191.31933594 538.240234375 1191.31933594 538.240234375 1204.08007812 538.240234375 c 0,24,25
 1223.79980469 538.240234375 1223.79980469 538.240234375 1223.79980469 563.759765625 c 256,26,27
 1223.79980469 589.280273438 1223.79980469 589.280273438 1192.47949219 605.520507812 c 0,28,29
 1135.8359375 634.890625 1135.8359375 634.890625 895.51953125 646.120117188 c 0,30,31
 762.299804688 653.1328125 762.299804688 653.1328125 701.799804688 661.200195312 c 0,32,33
 699.479492188 663.520507812 699.479492188 663.520507812 699.479492188 667 c 2,34,-1
 702.959960938 691.360351562 l 1,35,36
 706.440429688 705.280273438 706.440429688 705.280273438 713.400390625 707.599609375 c 128,-1,37
 720.359375 709.919921875 720.359375 709.919921875 725.580078125 719.200195312 c 128,-1,38
 730.799804688 728.48046875 730.799804688 728.48046875 730.799804688 741.240234375 c 0,39,40
 730.799804688 768.315429688 730.799804688 768.315429688 643.799804688 772.560546875 c 0,41,42
 577.6796875 776.040039062 577.6796875 776.040039062 576.51953125 702.959960938 c 1,43,44
 576.51953125 702.959960938 576.51953125 702.959960938 576.51953125 686.719726562 c 128,-1,45
 576.51953125 670.48046875 576.51953125 670.48046875 571.879882812 670.48046875 c 0,46,47
 459.807617188 670.48046875 459.807617188 670.48046875 381.059570312 737.759765625 c 0,48,49
 321.319335938 788.799804688 321.319335938 788.799804688 301.01953125 861.299804688 c 0,50,51
 260.508789062 1005.98339844 260.508789062 1005.98339844 76.5595703125 1037.04003906 c 0,52,53
 17.3994140625 1047.48046875 17.3994140625 1047.48046875 -19.7197265625 1047.48046875 c 128,-1,54
 -56.83984375 1047.48046875 -56.83984375 1047.48046875 -56.83984375 1025.44042969 c 0,55,56
 -56.83984375 1017.3203125 -56.83984375 1017.3203125 -49.8798828125 1001.08007812 c 128,-1,57
 -42.919921875 984.83984375 -42.919921875 984.83984375 -32.48046875 979.620117188 c 128,-1,58
 -22.0400390625 974.400390625 -22.0400390625 974.400390625 15.080078125 974.400390625 c 128,-1,59
 52.2001953125 974.400390625 52.2001953125 974.400390625 79.4599609375 945.400390625 c 128,-1,60
 106.719726562 916.400390625 106.719726562 916.400390625 136.299804688 835.780273438 c 128,-1,61
 165.879882812 755.16015625 165.879882812 755.16015625 214.01953125 709.919921875 c 0,0,1
1260.91992188 219.8203125 m 128,-1,63
 1307.3203125 241.280273438 1307.3203125 241.280273438 1314.86035156 259.840820312 c 128,-1,64
 1322.40039062 278.400390625 1322.40039062 278.400390625 1322.40039062 293.48046875 c 0,65,66
 1322.40039062 338.719726562 1322.40039062 338.719726562 1259.75976562 370.040039062 c 128,-1,67
 1197.12011719 401.360351562 1197.12011719 401.360351562 1062.55957031 424.559570312 c 0,68,69
 997.599609375 436.16015625 997.599609375 436.16015625 976.719726562 436.16015625 c 128,-1,70
 955.83984375 436.16015625 955.83984375 436.16015625 948.879882812 425.720703125 c 128,-1,71
 941.919921875 415.280273438 941.919921875 415.280273438 941.919921875 408.3203125 c 128,-1,72
 941.919921875 401.360351562 941.919921875 401.360351562 955.259765625 396.139648438 c 128,-1,73
 968.599609375 390.919921875 968.599609375 390.919921875 1019.63964844 376.419921875 c 0,74,75
 1124.04003906 346.760742188 1124.04003906 346.760742188 1124.04003906 301.599609375 c 0,76,77
 1124.04003906 251.719726562 1124.04003906 251.719726562 1038.78027344 225.040039062 c 128,-1,78
 953.51953125 198.360351562 953.51953125 198.360351562 802.719726562 198.360351562 c 0,79,80
 584.638671875 198.360351562 584.638671875 198.360351562 487.200195312 230.83984375 c 0,81,82
 411.799804688 255.200195312 411.799804688 255.200195312 369.459960938 283.620117188 c 128,-1,83
 327.120117188 312.040039062 327.120117188 312.040039062 327.120117188 336.400390625 c 0,84,85
 327.120117188 365.400390625 327.120117188 365.400390625 385.120117188 377 c 0,86,87
 439.484375 388.444335938 439.484375 388.444335938 447.759765625 396.719726562 c 0,88,89
 465.765625 416.9765625 465.765625 416.9765625 348 430.360351562 c 0,90,91
 296.959960938 436.16015625 296.959960938 436.16015625 237.220703125 436.16015625 c 128,-1,92
 177.48046875 436.16015625 177.48046875 436.16015625 140.360351562 425.720703125 c 128,-1,93
 103.240234375 415.280273438 103.240234375 415.280273438 92.2197265625 406 c 128,-1,94
 81.2001953125 396.719726562 81.2001953125 396.719726562 81.2001953125 371.200195312 c 0,95,96
 81.2001953125 321.3203125 81.2001953125 321.3203125 136.879882812 276.66015625 c 128,-1,97
 192.559570312 232 192.559570312 232 292.899414062 203.580078125 c 0,98,99
 503.8203125 143.83984375 503.8203125 143.83984375 781.83984375 143.83984375 c 0,100,101
 990.639648438 143.83984375 990.639648438 143.83984375 1142.59960938 180.959960938 c 0,102,62
 1214.51953125 198.360351562 1214.51953125 198.360351562 1260.91992188 219.8203125 c 128,-1,63
EndSplineSet
EndChar

StartChar: S
Encoding: 83 83 19
Width: 46
VWidth: 1392
GlyphClass: 1
Flags: W
LayerCount: 2
Back
SplineSet
-408 -291 m 0,1,2
 -363 -291 -363 -291 -347 -288 c 128,-1,3
 -331 -285 -331 -285 -320 -274 c 0,4,5
 -304 -258 -304 -258 -304 -231 c 0,6,7
 -304 -218 -304 -218 -309 -201 c 0,8,9
 -316 -182 -316 -182 -346 -172 c 128,-1,10
 -376 -162 -376 -162 -425 -162 c 0,11,12
 -494 -162 -494 -162 -494 -183 c 0,13,14
 -494 -194 -494 -194 -474 -211 c 0,15,16
 -460 -222 -460 -222 -460 -230 c 0,17,18
 -460 -236 -460 -236 -474 -236 c 0,19,20
 -493 -236 -493 -236 -532 -225 c 128,-1,21
 -571 -214 -571 -214 -620 -194 c 0,22,23
 -640 -185 -640 -185 -657 -179 c 128,-1,24
 -674 -173 -674 -173 -681 -173 c 0,25,26
 -692 -173 -692 -173 -692 -184 c 0,27,28
 -692 -191 -692 -191 -689 -201 c 0,29,30
 -682 -229 -682 -229 -638 -251 c 128,-1,31
 -594 -273 -594 -273 -519 -283 c 0,32,0
 -460 -291 -460 -291 -408 -291 c 0,1,2
EndSplineSet
Fore
SplineSet
-693.6796875 -59.16015625 m 0,0,1
 -642.639648438 -84.6796875 -642.639648438 -84.6796875 -564.919921875 -95.119628906 c 128,-1,2
 -487.200195312 -105.559570312 -487.200195312 -105.559570312 -430.939941406 -105.559570312 c 128,-1,3
 -374.6796875 -105.559570312 -374.6796875 -105.559570312 -356.120117188 -102.080078125 c 128,-1,4
 -337.559570312 -98.599609375 -337.559570312 -98.599609375 -321.899902344 -82.9399414062 c 128,-1,5
 -306.240234375 -67.2802734375 -306.240234375 -67.2802734375 -306.240234375 -44.080078125 c 128,-1,6
 -306.240234375 -20.8798828125 -306.240234375 -20.8798828125 -312.040039062 -1.16015625 c 0,7,8
 -328.707704836 44.080078125 -328.707704836 44.080078125 -446.599609375 44.080078125 c 0,9,10
 -526.639648438 44.080078125 -526.639648438 44.080078125 -526.639648438 19.7197265625 c 0,11,12
 -526.639648438 6.9599609375 -526.639648438 6.9599609375 -506.919921875 -9.27978515625 c 128,-1,13
 -487.200195312 -25.51953125 -487.200195312 -25.51953125 -487.200195312 -34.7998046875 c 0,14,15
 -487.200195312 -41.759765625 -487.200195312 -41.759765625 -506.340332031 -41.759765625 c 0,16,17
 -553.437807599 -41.759765625 -553.437807599 -41.759765625 -672.799804688 6.9599609375 c 0,18,19
 -726.932147037 31.3203125 -726.932147037 31.3203125 -741.626229769 31.3203125 c 128,-1,20
 -756.3203125 31.3203125 -756.3203125 31.3203125 -756.3203125 18.5595703125 c 0,21,22
 -756.3203125 -27.8392444899 -756.3203125 -27.8392444899 -693.6796875 -59.16015625 c 0,0,1
EndSplineSet
EndChar

StartChar: T
Encoding: 84 84 20
Width: 1357
VWidth: 1392
GlyphClass: 1
Flags: W
LayerCount: 2
Back
Refer: 17 81 N 1 0 0 1 0 0 0
Refer: 91 36 N 1 0 0 1 0 450 2
Fore
SplineSet
353.219726562 918.719726562 m 0,0,1
 438.252929688 838.811523438 438.252929688 838.811523438 629.299804688 812 c 0,2,3
 662.360351562 807.360351562 662.360351562 807.360351562 682.66015625 806.127929688 c 128,-1,4
 702.959960938 804.895507812 702.959960938 804.895507812 702.959960938 799.240234375 c 0,5,6
 702.959960938 787.283203125 702.959960938 787.283203125 688.459960938 753.822265625 c 128,-1,7
 673.959960938 720.360351562 673.959960938 720.360351562 673.959960938 713.400390625 c 256,8,9
 673.959960938 706.440429688 673.959960938 706.440429688 679.1796875 703.540039062 c 128,-1,10
 684.400390625 700.639648438 684.400390625 700.639648438 693.6796875 698.3203125 c 128,-1,11
 702.959960938 696 702.959960938 696 719.200195312 691.939453125 c 128,-1,12
 735.440429688 687.879882812 735.440429688 687.879882812 771.400390625 689.040039062 c 0,13,14
 788.799804688 690.200195312 788.799804688 690.200195312 809.6796875 719.200195312 c 128,-1,15
 830.559570312 748.200195312 830.559570312 748.200195312 835.200195312 779.51953125 c 0,16,17
 835.200195312 783 835.200195312 783 849.120117188 783 c 2,18,-1
 895.51953125 781.83984375 l 2,19,20
 918.719726562 780.6796875 918.719726562 780.6796875 1053.859375 776.619140625 c 128,-1,21
 1189 772.559570312 1189 772.559570312 1234.24023438 769.66015625 c 128,-1,22
 1279.48046875 766.759765625 1279.48046875 766.759765625 1305 756.899414062 c 128,-1,23
 1330.51953125 747.040039062 1330.51953125 747.040039062 1343.28027344 747.040039062 c 0,24,25
 1363 747.040039062 1363 747.040039062 1363 772.559570312 c 256,26,27
 1363 798.080078125 1363 798.080078125 1331.6796875 814.3203125 c 0,28,29
 1275.03515625 843.690429688 1275.03515625 843.690429688 1034.71972656 854.919921875 c 0,30,31
 901.5 861.932617188 901.5 861.932617188 841 870 c 0,32,33
 838.6796875 872.3203125 838.6796875 872.3203125 838.6796875 875.799804688 c 2,34,-1
 842.16015625 900.16015625 l 1,35,36
 845.640625 914.080078125 845.640625 914.080078125 852.599609375 916.400390625 c 128,-1,37
 859.559570312 918.719726562 859.559570312 918.719726562 864.779296875 928 c 128,-1,38
 870 937.280273438 870 937.280273438 870 950.040039062 c 0,39,40
 870 977.116210938 870 977.116210938 783 981.360351562 c 0,41,42
 716.879882812 984.83984375 716.879882812 984.83984375 715.719726562 911.759765625 c 1,43,44
 715.719726562 911.759765625 715.719726562 911.759765625 715.719726562 895.51953125 c 128,-1,45
 715.719726562 879.280273438 715.719726562 879.280273438 711.080078125 879.280273438 c 0,46,47
 599.0078125 879.280273438 599.0078125 879.280273438 520.259765625 946.559570312 c 0,48,49
 460.51953125 997.599609375 460.51953125 997.599609375 440.219726562 1070.09960938 c 0,50,51
 399.708984375 1214.78320312 399.708984375 1214.78320312 215.759765625 1245.83984375 c 0,52,53
 156.599609375 1256.28027344 156.599609375 1256.28027344 119.48046875 1256.28027344 c 128,-1,54
 82.3603515625 1256.28027344 82.3603515625 1256.28027344 82.3603515625 1234.24023438 c 0,55,56
 82.3603515625 1226.12011719 82.3603515625 1226.12011719 89.3203125 1209.87988281 c 128,-1,57
 96.2802734375 1193.63964844 96.2802734375 1193.63964844 106.719726562 1188.41992188 c 128,-1,58
 117.16015625 1183.20019531 117.16015625 1183.20019531 154.280273438 1183.20019531 c 128,-1,59
 191.400390625 1183.20019531 191.400390625 1183.20019531 218.66015625 1154.20019531 c 128,-1,60
 245.919921875 1125.20019531 245.919921875 1125.20019531 275.5 1044.58007812 c 128,-1,61
 305.080078125 963.959960938 305.080078125 963.959960938 353.219726562 918.719726562 c 0,0,1
551 418.759765625 m 128,-1,63
 534.759765625 408.3203125 534.759765625 408.3203125 534.759765625 395.559570312 c 128,-1,64
 534.759765625 382.799804688 534.759765625 382.799804688 560.859375 371.779296875 c 128,-1,65
 586.959960938 360.759765625 586.959960938 360.759765625 659.459960938 360.759765625 c 128,-1,66
 731.959960938 360.759765625 731.959960938 360.759765625 791.120117188 378.16015625 c 0,67,68
 894.360351562 409.48046875 894.360351562 409.48046875 894.360351562 453.560546875 c 0,69,70
 894.360351562 477.919921875 894.360351562 477.919921875 860.719726562 509.240234375 c 256,71,72
 827.080078125 540.560546875 827.080078125 540.560546875 723.259765625 573.620117188 c 128,-1,73
 619.440429688 606.680664062 619.440429688 606.680664062 498.799804688 628.719726562 c 128,-1,74
 378.16015625 650.759765625 378.16015625 650.759765625 305.66015625 650.759765625 c 128,-1,75
 233.16015625 650.759765625 233.16015625 650.759765625 225.040039062 631.040039062 c 0,76,77
 220.400390625 620.600585938 220.400390625 620.600585938 220.400390625 610.16015625 c 0,78,79
 220.400390625 589.280273438 220.400390625 589.280273438 253.459960938 580.580078125 c 128,-1,80
 286.520507812 571.879882812 286.520507812 571.879882812 386.280273438 566.66015625 c 128,-1,81
 486.040039062 561.440429688 486.040039062 561.440429688 544.620117188 548.100585938 c 128,-1,82
 603.200195312 534.759765625 603.200195312 534.759765625 627.559570312 510.399414062 c 128,-1,83
 651.919921875 486.040039062 651.919921875 486.040039062 651.919921875 468.640625 c 0,84,85
 651.919921875 443.120117188 651.919921875 443.120117188 596.240234375 433.83984375 c 0,86,62
 567.240234375 429.200195312 567.240234375 429.200195312 551 418.759765625 c 128,-1,63
1260.91992188 219.8203125 m 128,-1,88
 1307.3203125 241.280273438 1307.3203125 241.280273438 1314.86035156 259.840820312 c 128,-1,89
 1322.40039062 278.400390625 1322.40039062 278.400390625 1322.40039062 293.48046875 c 0,90,91
 1322.40039062 338.719726562 1322.40039062 338.719726562 1259.75976562 370.040039062 c 128,-1,92
 1197.12011719 401.360351562 1197.12011719 401.360351562 1062.55957031 424.559570312 c 0,93,94
 997.599609375 436.16015625 997.599609375 436.16015625 976.719726562 436.16015625 c 128,-1,95
 955.83984375 436.16015625 955.83984375 436.16015625 948.879882812 425.720703125 c 128,-1,96
 941.919921875 415.280273438 941.919921875 415.280273438 941.919921875 408.3203125 c 128,-1,97
 941.919921875 401.360351562 941.919921875 401.360351562 955.259765625 396.139648438 c 128,-1,98
 968.599609375 390.919921875 968.599609375 390.919921875 1019.63964844 376.419921875 c 0,99,100
 1124.04003906 346.760742188 1124.04003906 346.760742188 1124.04003906 301.599609375 c 0,101,102
 1124.04003906 251.719726562 1124.04003906 251.719726562 1038.78027344 225.040039062 c 128,-1,103
 953.51953125 198.360351562 953.51953125 198.360351562 802.719726562 198.360351562 c 0,104,105
 584.638671875 198.360351562 584.638671875 198.360351562 487.200195312 230.83984375 c 0,106,107
 411.799804688 255.200195312 411.799804688 255.200195312 369.459960938 283.620117188 c 128,-1,108
 327.120117188 312.040039062 327.120117188 312.040039062 327.120117188 336.400390625 c 0,109,110
 327.120117188 365.400390625 327.120117188 365.400390625 385.120117188 377 c 0,111,112
 439.484375 388.444335938 439.484375 388.444335938 447.759765625 396.719726562 c 0,113,114
 465.765625 416.9765625 465.765625 416.9765625 348 430.360351562 c 0,115,116
 296.959960938 436.16015625 296.959960938 436.16015625 237.220703125 436.16015625 c 128,-1,117
 177.48046875 436.16015625 177.48046875 436.16015625 140.360351562 425.720703125 c 128,-1,118
 103.240234375 415.280273438 103.240234375 415.280273438 92.2197265625 406 c 128,-1,119
 81.2001953125 396.719726562 81.2001953125 396.719726562 81.2001953125 371.200195312 c 0,120,121
 81.2001953125 321.3203125 81.2001953125 321.3203125 136.879882812 276.66015625 c 128,-1,122
 192.559570312 232 192.559570312 232 292.899414062 203.580078125 c 0,123,124
 503.8203125 143.83984375 503.8203125 143.83984375 781.83984375 143.83984375 c 0,125,126
 990.639648438 143.83984375 990.639648438 143.83984375 1142.59960938 180.959960938 c 0,127,87
 1214.51953125 198.360351562 1214.51953125 198.360351562 1260.91992188 219.8203125 c 128,-1,88
EndSplineSet
EndChar

StartChar: U
Encoding: 85 85 21
Width: 1357
VWidth: 1392
GlyphClass: 1
Flags: W
LayerCount: 2
Back
Refer: 5 69 N 1 0 0 1 0 0 0
Refer: 91 36 N 1 0 0 1 0 650 2
Fore
SplineSet
353.219726562 1150.71972656 m 0,0,1
 438.252929688 1070.81152344 438.252929688 1070.81152344 629.299804688 1044 c 0,2,3
 662.360351562 1039.36035156 662.360351562 1039.36035156 682.66015625 1038.12792969 c 128,-1,4
 702.959960938 1036.89550781 702.959960938 1036.89550781 702.959960938 1031.24023438 c 0,5,6
 702.959960938 1019.28320312 702.959960938 1019.28320312 688.459960938 985.822265625 c 128,-1,7
 673.959960938 952.360351562 673.959960938 952.360351562 673.959960938 945.400390625 c 256,8,9
 673.959960938 938.440429688 673.959960938 938.440429688 679.1796875 935.540039062 c 128,-1,10
 684.400390625 932.639648438 684.400390625 932.639648438 693.6796875 930.3203125 c 128,-1,11
 702.959960938 928 702.959960938 928 719.200195312 923.939453125 c 128,-1,12
 735.440429688 919.879882812 735.440429688 919.879882812 771.400390625 921.040039062 c 0,13,14
 788.799804688 922.200195312 788.799804688 922.200195312 809.6796875 951.200195312 c 128,-1,15
 830.559570312 980.200195312 830.559570312 980.200195312 835.200195312 1011.51953125 c 0,16,17
 835.200195312 1015 835.200195312 1015 849.120117188 1015 c 2,18,-1
 895.51953125 1013.83984375 l 2,19,20
 918.719726562 1012.6796875 918.719726562 1012.6796875 1053.859375 1008.61914062 c 128,-1,21
 1189 1004.55957031 1189 1004.55957031 1234.24023438 1001.66015625 c 128,-1,22
 1279.48046875 998.759765625 1279.48046875 998.759765625 1305 988.899414062 c 128,-1,23
 1330.51953125 979.040039062 1330.51953125 979.040039062 1343.28027344 979.040039062 c 0,24,25
 1363 979.040039062 1363 979.040039062 1363 1004.55957031 c 256,26,27
 1363 1030.08007812 1363 1030.08007812 1331.6796875 1046.3203125 c 0,28,29
 1275.03515625 1075.69042969 1275.03515625 1075.69042969 1034.71972656 1086.91992188 c 0,30,31
 901.5 1093.93261719 901.5 1093.93261719 841 1102 c 0,32,33
 838.6796875 1104.3203125 838.6796875 1104.3203125 838.6796875 1107.79980469 c 2,34,-1
 842.16015625 1132.16015625 l 1,35,36
 845.640625 1146.08007812 845.640625 1146.08007812 852.599609375 1148.40039062 c 128,-1,37
 859.559570312 1150.71972656 859.559570312 1150.71972656 864.779296875 1160 c 128,-1,38
 870 1169.28027344 870 1169.28027344 870 1182.04003906 c 0,39,40
 870 1209.11621094 870 1209.11621094 783 1213.36035156 c 0,41,42
 716.879882812 1216.83984375 716.879882812 1216.83984375 715.719726562 1143.75976562 c 1,43,44
 715.719726562 1143.75976562 715.719726562 1143.75976562 715.719726562 1127.51953125 c 128,-1,45
 715.719726562 1111.28027344 715.719726562 1111.28027344 711.080078125 1111.28027344 c 0,46,47
 599.0078125 1111.28027344 599.0078125 1111.28027344 520.259765625 1178.55957031 c 0,48,49
 460.51953125 1229.59960938 460.51953125 1229.59960938 440.219726562 1302.09960938 c 0,50,51
 399.708984375 1446.78320312 399.708984375 1446.78320312 215.759765625 1477.83984375 c 0,52,53
 156.599609375 1488.28027344 156.599609375 1488.28027344 119.48046875 1488.28027344 c 128,-1,54
 82.3603515625 1488.28027344 82.3603515625 1488.28027344 82.3603515625 1466.24023438 c 0,55,56
 82.3603515625 1458.12011719 82.3603515625 1458.12011719 89.3203125 1441.87988281 c 128,-1,57
 96.2802734375 1425.63964844 96.2802734375 1425.63964844 106.719726562 1420.41992188 c 128,-1,58
 117.16015625 1415.20019531 117.16015625 1415.20019531 154.280273438 1415.20019531 c 128,-1,59
 191.400390625 1415.20019531 191.400390625 1415.20019531 218.66015625 1386.20019531 c 128,-1,60
 245.919921875 1357.20019531 245.919921875 1357.20019531 275.5 1276.58007812 c 128,-1,61
 305.080078125 1195.95996094 305.080078125 1195.95996094 353.219726562 1150.71972656 c 0,0,1
470.6796875 485.3203125 m 128,-1,63
 476.760742188 488.359375 476.760742188 488.359375 481.98046875 498.799804688 c 128,-1,64
 487.200195312 509.239257812 487.200195312 509.239257812 487.200195312 517.939453125 c 128,-1,65
 487.200195312 526.639648438 487.200195312 526.639648438 483.720703125 530.119140625 c 0,66,67
 477.919921875 538.239257812 477.919921875 538.239257812 452.400390625 541.719726562 c 0,68,69
 382.80078125 553.319335938 382.80078125 553.319335938 348 581.739257812 c 128,-1,70
 313.200195312 610.159179688 313.200195312 610.159179688 316.680664062 646.119140625 c 0,71,72
 322.48046875 700.639648438 322.48046875 700.639648438 401.360351562 729.639648438 c 128,-1,73
 480.240234375 758.639648438 480.240234375 758.639648438 621.760742188 758.639648438 c 0,74,75
 950.463867188 758.639648438 950.463867188 758.639648438 1041.68066406 614.219726562 c 0,76,77
 1048.640625 603.19921875 1048.640625 603.19921875 1048.640625 593.919921875 c 0,78,79
 1048.640625 555.639648438 1048.640625 555.639648438 987.16015625 552.159179688 c 0,80,81
 928 547.016601562 928 547.016601562 928 528.959960938 c 0,82,83
 928 520.83984375 928 520.83984375 941.33984375 512.139648438 c 128,-1,84
 954.680664062 503.439453125 954.680664062 503.439453125 1020.22070312 493.580078125 c 128,-1,85
 1085.76074219 483.719726562 1085.76074219 483.719726562 1117.08007812 483.719726562 c 128,-1,86
 1148.40039062 483.719726562 1148.40039062 483.719726562 1178.56054688 487.780273438 c 128,-1,87
 1208.72070312 491.83984375 1208.72070312 491.83984375 1230.18066406 497.639648438 c 128,-1,88
 1251.640625 503.439453125 1251.640625 503.439453125 1260.91992188 516.779296875 c 128,-1,89
 1270.20019531 530.119140625 1270.20019531 530.119140625 1270.20019531 563.1796875 c 128,-1,90
 1270.20019531 596.239257812 1270.20019531 596.239257812 1260.34082031 620.01953125 c 128,-1,91
 1250.48046875 643.799804688 1250.48046875 643.799804688 1226.12011719 667 c 0,92,93
 1135.640625 759.799804688 1135.640625 759.799804688 875.80078125 793.439453125 c 0,94,95
 676.271484375 818.959960938 676.271484375 818.959960938 591.015625 818.959960938 c 128,-1,96
 505.760742188 818.959960938 505.760742188 818.959960938 427.459960938 805.619140625 c 128,-1,97
 349.16015625 792.279296875 349.16015625 792.279296875 271.440429688 767.33984375 c 128,-1,98
 193.720703125 742.399414062 193.720703125 742.399414062 167.620117188 723.83984375 c 0,99,100
 127.600585938 695.380859375 127.600585938 695.380859375 127.600585938 643.490234375 c 128,-1,101
 127.600585938 591.599609375 127.600585938 591.599609375 197.200195312 551.580078125 c 128,-1,102
 266.80078125 511.559570312 266.80078125 511.559570312 403.680664062 491.83984375 c 0,103,104
 432.680664062 488.359375 432.680664062 488.359375 448.639648438 485.3203125 c 128,-1,62
 464.599609375 482.280273438 464.599609375 482.280273438 470.6796875 485.3203125 c 128,-1,63
621.760742188 491.83984375 m 0,105,106
 621.760742188 469.799804688 621.760742188 469.799804688 690.200195312 469.799804688 c 0,107,108
 729.640625 469.799804688 729.640625 469.799804688 770.240234375 475.599609375 c 128,-1,109
 810.840820312 481.399414062 810.840820312 481.399414062 828.240234375 491.83984375 c 0,110,111
 861.880859375 509.239257812 861.880859375 509.239257812 861.880859375 534.759765625 c 128,-1,112
 861.880859375 560.279296875 861.880859375 560.279296875 834.620117188 586.959960938 c 128,-1,113
 807.360351562 613.639648438 807.360351562 613.639648438 759.799804688 633.939453125 c 128,-1,114
 712.240234375 654.239257812 712.240234375 654.239257812 627.560546875 675.119140625 c 128,-1,115
 542.880859375 696 542.880859375 696 516.200195312 696 c 128,-1,116
 489.520507812 696 489.520507812 696 477.340820312 687.879882812 c 128,-1,117
 465.16015625 679.759765625 465.16015625 679.759765625 465.16015625 669.900390625 c 128,-1,118
 465.16015625 660.040039062 465.16015625 660.040039062 471.540039062 653.66015625 c 0,119,120
 483.0234375 642.17578125 483.0234375 642.17578125 549.840820312 631.040039062 c 0,121,122
 620.600585938 621.759765625 620.600585938 621.759765625 654.8203125 603.19921875 c 128,-1,123
 689.040039062 584.639648438 689.040039062 584.639648438 691.940429688 557.379882812 c 128,-1,124
 694.840820312 530.119140625 694.840820312 530.119140625 690.200195312 524.319335938 c 128,-1,125
 685.560546875 518.51953125 685.560546875 518.51953125 664.680664062 516.780273438 c 128,-1,126
 643.80078125 515.040039062 643.80078125 515.040039062 632.780273438 507.5 c 128,-1,127
 621.760742188 499.959960938 621.760742188 499.959960938 621.760742188 491.83984375 c 0,105,106
1260.91992188 219.8203125 m 128,-1,129
 1307.3203125 241.280273438 1307.3203125 241.280273438 1314.86035156 259.840820312 c 128,-1,130
 1322.40039062 278.400390625 1322.40039062 278.400390625 1322.40039062 293.48046875 c 0,131,132
 1322.40039062 338.719726562 1322.40039062 338.719726562 1259.75976562 370.040039062 c 128,-1,133
 1197.12011719 401.360351562 1197.12011719 401.360351562 1062.55957031 424.559570312 c 0,134,135
 997.599609375 436.16015625 997.599609375 436.16015625 976.719726562 436.16015625 c 128,-1,136
 955.83984375 436.16015625 955.83984375 436.16015625 948.879882812 425.720703125 c 128,-1,137
 941.919921875 415.280273438 941.919921875 415.280273438 941.919921875 408.3203125 c 128,-1,138
 941.919921875 401.360351562 941.919921875 401.360351562 955.259765625 396.139648438 c 128,-1,139
 968.599609375 390.919921875 968.599609375 390.919921875 1019.63964844 376.419921875 c 0,140,141
 1124.04003906 346.760742188 1124.04003906 346.760742188 1124.04003906 301.599609375 c 0,142,143
 1124.04003906 251.719726562 1124.04003906 251.719726562 1038.78027344 225.040039062 c 128,-1,144
 953.51953125 198.360351562 953.51953125 198.360351562 802.719726562 198.360351562 c 0,145,146
 584.638671875 198.360351562 584.638671875 198.360351562 487.200195312 230.83984375 c 0,147,148
 411.799804688 255.200195312 411.799804688 255.200195312 369.459960938 283.620117188 c 128,-1,149
 327.120117188 312.040039062 327.120117188 312.040039062 327.120117188 336.400390625 c 0,150,151
 327.120117188 365.400390625 327.120117188 365.400390625 385.120117188 377 c 0,152,153
 439.484375 388.444335938 439.484375 388.444335938 447.759765625 396.719726562 c 0,154,155
 465.765625 416.9765625 465.765625 416.9765625 348 430.360351562 c 0,156,157
 296.959960938 436.16015625 296.959960938 436.16015625 237.220703125 436.16015625 c 128,-1,158
 177.48046875 436.16015625 177.48046875 436.16015625 140.360351562 425.720703125 c 128,-1,159
 103.240234375 415.280273438 103.240234375 415.280273438 92.2197265625 406 c 128,-1,160
 81.2001953125 396.719726562 81.2001953125 396.719726562 81.2001953125 371.200195312 c 0,161,162
 81.2001953125 321.3203125 81.2001953125 321.3203125 136.879882812 276.66015625 c 128,-1,163
 192.559570312 232 192.559570312 232 292.899414062 203.580078125 c 0,164,165
 503.8203125 143.83984375 503.8203125 143.83984375 781.83984375 143.83984375 c 0,166,167
 990.639648438 143.83984375 990.639648438 143.83984375 1142.59960938 180.959960938 c 0,168,128
 1214.51953125 198.360351562 1214.51953125 198.360351562 1260.91992188 219.8203125 c 128,-1,129
EndSplineSet
EndChar

StartChar: V
Encoding: 86 86 22
Width: 1965
VWidth: 1392
GlyphClass: 1
Flags: W
LayerCount: 2
Back
SplineSet
270 196 m 0,1,2
 314 196 314 196 349 207 c 0,3,4
 407 226 407 226 407 255 c 0,5,6
 407 273 407 273 388 292 c 0,7,8
 369 312 369 312 311 333.5 c 128,-1,9
 253 355 253 355 185.5 369 c 128,-1,10
 118 383 118 383 75 383 c 0,11,12
 36 383 36 383 32 371 c 0,13,14
 29 364 29 364 29 357 c 0,15,16
 29 344 29 344 47.5 338 c 128,-1,17
 66 332 66 332 115 329 c 0,18,19
 178 325 178 325 211 316.5 c 128,-1,20
 244 308 244 308 258 292 c 0,21,22
 271 278 271 278 271 266 c 0,23,24
 271 249 271 249 240 243 c 0,25,26
 224 240 224 240 215 233.5 c 128,-1,27
 206 227 206 227 206 219 c 0,28,29
 206 210 206 210 220 203 c 0,30,0
 235 196 235 196 270 196 c 0,1,2
623 182 m 0,32,33
 632 182 632 182 636 184.5 c 128,-1,34
 640 187 640 187 642 193 c 0,35,36
 646 204 646 204 638.5 210.5 c 128,-1,37
 631 217 631 217 607 221 c 0,38,39
 578 226 578 226 560 242 c 128,-1,40
 542 258 542 258 542 277 c 0,41,42
 542 313 542 313 585.5 330.5 c 128,-1,43
 629 348 629 348 722 348 c 0,44,45
 819 348 819 348 878.5 330.5 c 128,-1,46
 938 313 938 313 972 274 c 0,47,48
 987 258 987 258 987 247 c 0,49,50
 987 238 987 238 976 232.5 c 128,-1,51
 965 227 965 227 937 221 c 0,52,53
 926 219 926 219 919 216 c 128,-1,54
 912 213 912 213 912 209 c 0,55,56
 912 198 912 198 951.5 190 c 128,-1,57
 991 182 991 182 1034 182 c 0,58,59
 1073 182 1073 182 1091 189 c 256,60,61
 1109 196 1109 196 1113 202 c 128,-1,62
 1117 208 1117 208 1119 230 c 0,63,64
 1122 283 1122 283 1066 317 c 128,-1,65
 1010 351 1010 351 885 371 c 0,66,67
 777 388 777 388 711 388 c 0,68,69
 651 388 651 388 592 376 c 0,70,71
 503 358 503 358 464 336 c 128,-1,72
 425 314 425 314 425 281 c 0,73,74
 425 277 425 277 427 267 c 0,75,76
 432 242 432 242 471 221.5 c 128,-1,77
 510 201 510 201 575 188 c 0,78,31
 611 182 611 182 623 182 c 0,32,33
1327 175 m 0,80,81
 1351 175 1351 175 1358 178 c 0,82,83
 1368 182 1368 182 1368 190 c 256,84,85
 1368 198 1368 198 1357 203 c 0,86,87
 1347 206 1347 206 1340 220.5 c 128,-1,88
 1333 235 1333 235 1318 284 c 0,89,90
 1308 317 1308 317 1299 333 c 128,-1,91
 1290 349 1290 349 1277 356.5 c 128,-1,92
 1264 364 1264 364 1239 367 c 0,93,94
 1221 370 1221 370 1205 370 c 0,95,96
 1186 370 1186 370 1173.5 366.5 c 128,-1,97
 1161 363 1161 363 1158 357 c 2,98,-1
 1158 355 l 2,99,100
 1158 348 1158 348 1171 343 c 0,101,102
 1183 339 1183 339 1190 325 c 128,-1,103
 1197 311 1197 311 1213 259 c 0,104,105
 1224 224 1224 224 1237 206 c 128,-1,106
 1250 188 1250 188 1271 181 c 0,107,79
 1292 175 1292 175 1327 175 c 0,80,81
1507 175 m 0,109,110
 1531 175 1531 175 1538 178 c 0,111,112
 1548 182 1548 182 1548 190 c 256,113,114
 1548 198 1548 198 1537 203 c 0,115,116
 1527 206 1527 206 1520.5 220 c 128,-1,117
 1514 234 1514 234 1498 284 c 0,118,119
 1488 317 1488 317 1479 333 c 128,-1,120
 1470 349 1470 349 1457 356 c 128,-1,121
 1444 363 1444 363 1419 367 c 0,122,123
 1401 370 1401 370 1385 370 c 0,124,125
 1366 370 1366 370 1353.5 366.5 c 128,-1,126
 1341 363 1341 363 1338 357 c 2,127,-1
 1338 355 l 2,128,129
 1338 348 1338 348 1351 343 c 0,130,131
 1363 339 1363 339 1370 325 c 128,-1,132
 1377 311 1377 311 1393 259 c 0,133,134
 1404 224 1404 224 1417 206 c 128,-1,135
 1430 188 1430 188 1451 181 c 0,136,108
 1472 175 1472 175 1507 175 c 0,109,110
1613 -52 m 0,138,139
 1619 -52 1619 -52 1622 -46.5 c 128,-1,140
 1625 -41 1625 -41 1625 -32 c 0,141,142
 1625 -9 1625 -9 1610 3 c 0,143,144
 1510 88 1510 88 1380 107 c 0,145,146
 1356 110 1356 110 1255 110 c 0,147,148
 1140 110 1140 110 1009 107 c 0,149,150
 879 104 879 104 770 104 c 0,151,152
 658 104 658 104 625 108 c 0,153,154
 489 125 489 125 456 145 c 0,155,156
 452 148 452 148 446 148 c 0,157,158
 437 148 437 148 432.5 139.5 c 128,-1,159
 428 131 428 131 430 118 c 0,160,161
 437 80 437 80 487 51 c 128,-1,162
 537 22 537 22 622 7 c 0,163,164
 717 -9 717 -9 825 -9 c 2,165,-1
 862 -9 l 2,166,167
 982 -6 982 -6 1249 -6 c 0,168,169
 1370 -6 1370 -6 1386 -7 c 0,170,171
 1488 -14 1488 -14 1544 -28 c 0,172,173
 1562 -32 1562 -32 1581 -38.5 c 128,-1,174
 1600 -45 1600 -45 1605 -49 c 0,175,137
 1610 -52 1610 -52 1613 -52 c 0,138,139
EndSplineSet
Fore
SplineSet
360.759765625 540.559570312 m 4,0,1
 360.759765625 520.83984375 360.759765625 520.83984375 323.060058594 513.662868504 c 132,-1,2
 285.360351562 506.485893259 285.360351562 506.485893259 285.360351562 485.459960938 c 4,3,4
 285.360351562 475.599609375 285.360351562 475.599609375 302.180175781 467.479980469 c 132,-1,5
 319 459.360351562 319 459.360351562 364.819824219 459.360351562 c 132,-1,6
 410.639648438 459.360351562 410.639648438 459.360351562 451.240234375 472.120117188 c 4,7,8
 518.51953125 494.16015625 518.51953125 494.16015625 518.51953125 527.799804688 c 4,9,10
 518.51953125 548.6796875 518.51953125 548.6796875 496.479980469 571.299804688 c 132,-1,11
 474.440429688 593.919921875 474.440429688 593.919921875 407.16015625 618.860351562 c 132,-1,12
 339.879882812 643.799804688 339.879882812 643.799804688 261.580078125 660.040039062 c 132,-1,13
 183.280273438 676.280273438 183.280273438 676.280273438 135.720214844 676.280273438 c 132,-1,14
 88.16015625 676.280273438 88.16015625 676.280273438 83.51953125 662.360351562 c 4,15,16
 80.0400390625 654.240234375 80.0400390625 654.240234375 80.0400390625 646.120117188 c 4,17,18
 80.0400390625 631.040039062 80.0400390625 631.040039062 101.5 624.080078125 c 132,-1,19
 122.959960938 617.120117188 122.959960938 617.120117188 187.919921875 613.060058594 c 4,20,21
 315.617735919 605.078825233 315.617735919 605.078825233 345.6796875 570.719726562 c 4,22,23
 360.759765625 554.48046875 360.759765625 554.48046875 360.759765625 540.559570312 c 4,0,1
696.580078125 454.140136719 m 132,-1,25
 755.16015625 443.120117188 755.16015625 443.120117188 767.33984375 443.120117188 c 4,26,27
 786.866265199 443.120117188 786.866265199 443.120117188 791.313015412 455.879882813 c 132,-1,28
 795.759765625 468.639648438 795.759765625 468.639648438 787.059570312 476.1796875 c 132,-1,29
 778.360351562 483.719726562 778.360351562 483.719726562 747.620117187 488.939941406 c 132,-1,30
 716.879882812 494.16015625 716.879882812 494.16015625 696 512.719726562 c 132,-1,31
 675.120117188 531.280273438 675.120117188 531.280273438 675.120117188 553.3203125 c 4,32,33
 675.120117188 595.080078125 675.120117188 595.080078125 725.580078125 615.379882812 c 132,-1,34
 776.040039062 635.6796875 776.040039062 635.6796875 886.240234375 635.6796875 c 132,-1,35
 996.440429688 635.6796875 996.440429688 635.6796875 1065.45996094 615.379882812 c 132,-1,36
 1134.48046875 595.080078125 1134.48046875 595.080078125 1173.91992188 549.83984375 c 4,37,38
 1191.3203125 531.280273438 1191.3203125 531.280273438 1191.3203125 519.680175781 c 132,-1,39
 1191.3203125 508.080078125 1191.3203125 508.080078125 1178.55957031 501.700195312 c 132,-1,40
 1165.79980469 495.3203125 1165.79980469 495.3203125 1143.1796875 490.680175781 c 4,41,42
 1104.3203125 482.70882836 1104.3203125 482.70882836 1104.3203125 474.440429688 c 4,43,44
 1104.3203125 461.6796875 1104.3203125 461.6796875 1150.13964844 452.400390625 c 132,-1,45
 1195.95996094 443.120117188 1195.95996094 443.120117188 1243.52001953 443.120117188 c 132,-1,46
 1291.08007812 443.120117188 1291.08007812 443.120117188 1311.95996094 451.240234375 c 260,47,48
 1332.83984375 459.360351562 1332.83984375 459.360351562 1337.48046875 466.3203125 c 132,-1,49
 1342.12011719 473.280273438 1342.12011719 473.280273438 1344.44042969 498.799804688 c 4,50,51
 1347.91992188 560.280273438 1347.91992188 560.280273438 1282.95996094 599.719726562 c 132,-1,52
 1218 639.16015625 1218 639.16015625 1082.85986328 660.620117188 c 132,-1,53
 947.719726562 682.080078125 947.719726562 682.080078125 874.639648437 682.080078125 c 132,-1,54
 801.559570312 682.080078125 801.559570312 682.080078125 715.719726562 664.680175781 c 132,-1,55
 629.879882812 647.280273438 629.879882812 647.280273438 584.639648438 621.759765625 c 132,-1,56
 539.400390625 596.240234375 539.400390625 596.240234375 539.400390625 557.959960938 c 4,57,58
 539.400390625 516.98733167 539.400390625 516.98733167 588.700195312 491.07374396 c 132,-1,24
 638 465.16015625 638 465.16015625 696.580078125 454.140136719 c 132,-1,25
1389.6796875 646.120117188 m 5,59,-1
 1389.6796875 643.799804688 l 6,60,61
 1389.6796875 635.6796875 1389.6796875 635.6796875 1404.1796875 630.459960938 c 132,-1,62
 1418.6796875 625.240234375 1418.6796875 625.240234375 1426.79980469 609 c 132,-1,63
 1434.91992188 592.759765625 1434.91992188 592.759765625 1450.58007813 542.299804688 c 132,-1,64
 1466.24023438 491.83984375 1466.24023438 491.83984375 1481.3203125 470.959960938 c 132,-1,65
 1496.40039062 450.080078125 1496.40039062 450.080078125 1520.7602539 442.540039062 c 132,-1,66
 1545.12011719 435 1545.12011719 435 1579.33984375 435 c 132,-1,67
 1613.55957031 435 1613.55957031 435 1623.41992188 439.060058594 c 132,-1,68
 1633.28027344 443.120117188 1633.28027344 443.120117188 1633.28027344 452.400390625 c 260,69,70
 1633.28027344 461.6796875 1633.28027344 461.6796875 1620.51953125 467.48046875 c 4,71,72
 1608.91992188 470.959960938 1608.91992188 470.959960938 1600.79980469 487.780273438 c 132,-1,73
 1592.6796875 504.599609375 1592.6796875 504.599609375 1578.1796875 552.159667969 c 132,-1,74
 1563.6796875 599.719726562 1563.6796875 599.719726562 1553.24023438 618.280273438 c 132,-1,75
 1542.79980469 636.83984375 1542.79980469 636.83984375 1527.71972656 645.540039062 c 4,76,77
 1500.57592448 661.200195312 1500.57592448 661.200195312 1448.8983545 661.200195312 c 132,-1,78
 1397.22078452 661.200195312 1397.22078452 661.200195312 1389.6796875 646.120117188 c 5,59,-1
1598.48046875 646.120117188 m 5,79,-1
 1598.48046875 643.799804688 l 6,80,81
 1598.48046875 635.6796875 1598.48046875 635.6796875 1612.98046875 630.459960938 c 132,-1,82
 1627.48046875 625.240234375 1627.48046875 625.240234375 1635.59960938 609 c 132,-1,83
 1643.71972656 592.759765625 1643.71972656 592.759765625 1659.37988281 542.299804688 c 132,-1,84
 1675.04003906 491.83984375 1675.04003906 491.83984375 1690.12011719 470.959960938 c 132,-1,85
 1705.20019531 450.080078125 1705.20019531 450.080078125 1729.5600586 442.540039062 c 132,-1,86
 1753.91992188 435 1753.91992188 435 1788.14013672 435 c 132,-1,87
 1822.36035156 435 1822.36035156 435 1832.22021484 439.060058594 c 132,-1,88
 1842.08007812 443.120117188 1842.08007812 443.120117188 1842.08007812 452.400390625 c 260,89,90
 1842.08007812 461.6796875 1842.08007812 461.6796875 1829.3203125 467.48046875 c 4,91,92
 1817.71972656 470.959960938 1817.71972656 470.959960938 1810.1796875 487.200195312 c 132,-1,93
 1802.63964844 503.440429688 1802.63964844 503.440429688 1787.5600586 551.580078125 c 132,-1,94
 1772.48046875 599.719726562 1772.48046875 599.719726562 1762.04003906 618.280273438 c 132,-1,95
 1751.59960938 636.83984375 1751.59960938 636.83984375 1736.51953125 644.959960938 c 4,96,97
 1706.36132813 661.200195312 1706.36132813 661.200195312 1656.190389 661.200195312 c 132,-1,98
 1606.01944986 661.200195312 1606.01944986 661.200195312 1598.48046875 646.120117188 c 5,79,-1
1647.20019531 356.120117188 m 4,99,100
 1619.36035156 359.599609375 1619.36035156 359.599609375 1560.78027344 359.599609375 c 132,-1,101
 1502.20019531 359.599609375 1502.20019531 359.599609375 939.599609375 352.639648438 c 5,102,103
 809.6796875 352.639648438 809.6796875 352.639648438 771.400390625 357.280273438 c 4,104,105
 613.639648438 377 613.639648438 377 575.360351562 400.200195312 c 4,106,107
 570.719726562 403.6796875 570.719726562 403.6796875 562.020019531 403.6796875 c 132,-1,108
 553.3203125 403.6796875 553.3203125 403.6796875 548.099609375 393.8203125 c 132,-1,109
 542.879882812 383.959960938 542.879882812 383.959960938 545.200195312 368.879882812 c 4,110,111
 553.3203125 324.799804688 553.3203125 324.799804688 611.3203125 291.16015625 c 132,-1,112
 669.3203125 257.51953125 669.3203125 257.51953125 773.720214844 239.539550781 c 132,-1,113
 878.120117188 221.559570312 878.120117188 221.559570312 1003.40039062 221.559570312 c 6,114,-1
 1046.3203125 221.559570312 l 5,115,116
 1185.51953125 225.040039062 1185.51953125 225.040039062 1410.55957031 225.040039062 c 132,-1,117
 1635.59960938 225.040039062 1635.59960938 225.040039062 1654.16015625 223.879882812 c 4,118,119
 1803.51212164 213.630117278 1803.51212164 213.630117278 1880.36035156 187.33984375 c 4,120,121
 1902.40039062 179.799804688 1902.40039062 179.799804688 1908.20019531 175.739746094 c 132,-1,122
 1914 171.6796875 1914 171.6796875 1917.48046875 171.6796875 c 4,123,124
 1931.40039062 171.6796875 1931.40039062 171.6796875 1931.40039062 196.619628906 c 132,-1,125
 1931.40039062 221.559570312 1931.40039062 221.559570312 1914 235.48046875 c 4,126,127
 1798 334.080078125 1798 334.080078125 1647.20019531 356.120117188 c 4,99,100
EndSplineSet
EndChar

StartChar: W
Encoding: 87 87 23
Width: 1357
VWidth: 1392
GlyphClass: 1
Flags: W
LayerCount: 2
Back
Refer: 44 113 N 1 0 0 1 0 0 0
Refer: 107 -1 N 1 0 0 1 40 310 2
Fore
SplineSet
470.6796875 485.3203125 m 132,-1,1
 476.760742188 488.359375 476.760742188 488.359375 481.98046875 498.799804688 c 132,-1,2
 487.200195312 509.239257812 487.200195312 509.239257812 487.200195312 517.939453125 c 132,-1,3
 487.200195312 526.639648438 487.200195312 526.639648438 483.720703125 530.119140625 c 4,4,5
 477.919921875 538.239257812 477.919921875 538.239257812 452.400390625 541.719726562 c 4,6,7
 382.80078125 553.319335938 382.80078125 553.319335938 348 581.739257812 c 132,-1,8
 313.200195312 610.159179688 313.200195312 610.159179688 316.680664062 646.119140625 c 4,9,10
 322.48046875 700.639648438 322.48046875 700.639648438 401.360351562 729.639648438 c 132,-1,11
 480.240234375 758.639648438 480.240234375 758.639648438 621.760742188 758.639648438 c 4,12,13
 950.463867188 758.639648438 950.463867188 758.639648438 1041.68066406 614.219726562 c 4,14,15
 1048.640625 603.19921875 1048.640625 603.19921875 1048.640625 593.919921875 c 4,16,17
 1048.640625 555.639648438 1048.640625 555.639648438 987.16015625 552.159179688 c 4,18,19
 928 547.016601562 928 547.016601562 928 528.959960938 c 4,20,21
 928 520.83984375 928 520.83984375 941.33984375 512.139648438 c 132,-1,22
 954.680664062 503.439453125 954.680664062 503.439453125 1020.22070312 493.580078125 c 132,-1,23
 1085.76074219 483.719726562 1085.76074219 483.719726562 1117.08007812 483.719726562 c 132,-1,24
 1148.40039062 483.719726562 1148.40039062 483.719726562 1178.56054688 487.780273438 c 132,-1,25
 1208.72070312 491.83984375 1208.72070312 491.83984375 1230.18066406 497.639648438 c 132,-1,26
 1251.640625 503.439453125 1251.640625 503.439453125 1260.91992188 516.779296875 c 132,-1,27
 1270.20019531 530.119140625 1270.20019531 530.119140625 1270.20019531 563.1796875 c 132,-1,28
 1270.20019531 596.239257812 1270.20019531 596.239257812 1260.34082031 620.01953125 c 132,-1,29
 1250.48046875 643.799804688 1250.48046875 643.799804688 1226.12011719 667 c 4,30,31
 1135.640625 759.799804688 1135.640625 759.799804688 875.80078125 793.439453125 c 4,32,33
 676.271484375 818.959960938 676.271484375 818.959960938 591.015625 818.959960938 c 132,-1,34
 505.760742188 818.959960938 505.760742188 818.959960938 427.459960938 805.619140625 c 132,-1,35
 349.16015625 792.279296875 349.16015625 792.279296875 271.440429688 767.33984375 c 132,-1,36
 193.720703125 742.399414062 193.720703125 742.399414062 167.620117188 723.83984375 c 4,37,38
 127.600585938 695.380859375 127.600585938 695.380859375 127.600585938 643.490234375 c 132,-1,39
 127.600585938 591.599609375 127.600585938 591.599609375 197.200195312 551.580078125 c 132,-1,40
 266.80078125 511.559570312 266.80078125 511.559570312 403.680664062 491.83984375 c 4,41,42
 432.680664062 488.359375 432.680664062 488.359375 448.639648438 485.3203125 c 132,-1,0
 464.599609375 482.280273438 464.599609375 482.280273438 470.6796875 485.3203125 c 132,-1,1
1260.91992188 219.8203125 m 132,-1,44
 1307.3203125 241.280273438 1307.3203125 241.280273438 1314.86035156 259.840820312 c 132,-1,45
 1322.40039062 278.400390625 1322.40039062 278.400390625 1322.40039062 293.48046875 c 4,46,47
 1322.40039062 338.719726562 1322.40039062 338.719726562 1259.75976562 370.040039062 c 132,-1,48
 1197.12011719 401.360351562 1197.12011719 401.360351562 1062.55957031 424.559570312 c 4,49,50
 997.599609375 436.16015625 997.599609375 436.16015625 976.719726562 436.16015625 c 132,-1,51
 955.83984375 436.16015625 955.83984375 436.16015625 948.879882812 425.720703125 c 132,-1,52
 941.919921875 415.280273438 941.919921875 415.280273438 941.919921875 408.3203125 c 132,-1,53
 941.919921875 401.360351562 941.919921875 401.360351562 955.259765625 396.139648438 c 132,-1,54
 968.599609375 390.919921875 968.599609375 390.919921875 1019.63964844 376.419921875 c 4,55,56
 1124.04003906 346.760742188 1124.04003906 346.760742188 1124.04003906 301.599609375 c 4,57,58
 1124.04003906 251.719726562 1124.04003906 251.719726562 1038.78027344 225.040039062 c 132,-1,59
 953.51953125 198.360351562 953.51953125 198.360351562 802.719726562 198.360351562 c 4,60,61
 584.638671875 198.360351562 584.638671875 198.360351562 487.200195312 230.83984375 c 4,62,63
 411.799804688 255.200195312 411.799804688 255.200195312 369.459960938 283.620117188 c 132,-1,64
 327.120117188 312.040039062 327.120117188 312.040039062 327.120117188 336.400390625 c 4,65,66
 327.120117188 365.400390625 327.120117188 365.400390625 385.120117188 377 c 4,67,68
 439.484375 388.444335938 439.484375 388.444335938 447.759765625 396.719726562 c 4,69,70
 465.765625 416.9765625 465.765625 416.9765625 348 430.360351562 c 4,71,72
 296.959960938 436.16015625 296.959960938 436.16015625 237.220703125 436.16015625 c 132,-1,73
 177.48046875 436.16015625 177.48046875 436.16015625 140.360351562 425.720703125 c 132,-1,74
 103.240234375 415.280273438 103.240234375 415.280273438 92.2197265625 406 c 132,-1,75
 81.2001953125 396.719726562 81.2001953125 396.719726562 81.2001953125 371.200195312 c 4,76,77
 81.2001953125 321.3203125 81.2001953125 321.3203125 136.879882812 276.66015625 c 132,-1,78
 192.559570312 232 192.559570312 232 292.899414062 203.580078125 c 4,79,80
 503.8203125 143.83984375 503.8203125 143.83984375 781.83984375 143.83984375 c 4,81,82
 990.639648438 143.83984375 990.639648438 143.83984375 1142.59960938 180.959960938 c 4,83,43
 1214.51953125 198.360351562 1214.51953125 198.360351562 1260.91992188 219.8203125 c 132,-1,44
EndSplineSet
EndChar

StartChar: X
Encoding: 88 88 24
Width: 1503
VWidth: 1392
GlyphClass: 1
Flags: W
LayerCount: 2
Back
SplineSet
400 186 m 0,1,2
 471 186 471 186 522 201 c 0,3,4
 611 228 611 228 611 266 c 0,5,6
 611 287 611 287 582 314 c 256,7,8
 553 341 553 341 463.5 369.5 c 128,-1,9
 374 398 374 398 270 417 c 128,-1,10
 166 436 166 436 100 436 c 0,11,12
 41 436 41 436 34 419 c 0,13,14
 30 410 30 410 30 401 c 0,15,16
 30 383 30 383 58.5 375.5 c 128,-1,17
 87 368 87 368 162 364 c 0,18,19
 259 359 259 359 309.5 347.5 c 128,-1,20
 360 336 360 336 382 314 c 0,21,22
 402 294 402 294 402 279 c 0,23,24
 402 257 402 257 354 249 c 0,25,26
 329 245 329 245 315 236 c 128,-1,27
 301 227 301 227 301 217 c 0,28,29
 301 205 301 205 323 196 c 0,30,0
 346 186 346 186 400 186 c 0,1,2
908 182 m 0,32,33
 935 182 935 182 943 186 c 0,34,35
 954 190 954 190 954 199 c 0,36,37
 954 209 954 209 942 213 c 0,38,39
 931 217 931 217 923 233 c 128,-1,40
 915 249 915 249 899 303 c 0,41,42
 888 340 888 340 878 358 c 128,-1,43
 868 376 868 376 853 384 c 128,-1,44
 838 392 838 392 811 396 c 0,45,46
 791 399 791 399 774 399 c 0,47,48
 753 399 753 399 738.5 395 c 128,-1,49
 724 391 724 391 721 384 c 2,50,-1
 721 382 l 2,51,52
 721 379 721 379 725 375 c 128,-1,53
 729 371 729 371 736 369 c 0,54,55
 749 364 749 364 757 348 c 128,-1,56
 765 332 765 332 782 276 c 0,57,58
 794 236 794 236 808.5 216 c 128,-1,59
 823 196 823 196 847 189 c 0,60,31
 868 182 868 182 908 182 c 0,32,33
1108 182 m 0,62,63
 1135 182 1135 182 1143 186 c 0,64,65
 1154 190 1154 190 1154 199 c 0,66,67
 1154 209 1154 209 1142 213 c 0,68,69
 1131 217 1131 217 1123.5 232.5 c 128,-1,70
 1116 248 1116 248 1099 303 c 0,71,72
 1088 339 1088 339 1078 357 c 128,-1,73
 1068 375 1068 375 1053 383.5 c 128,-1,74
 1038 392 1038 392 1011 396 c 0,75,76
 992 399 992 399 974 399 c 0,77,78
 953 399 953 399 938.5 395 c 128,-1,79
 924 391 924 391 921 384 c 2,80,-1
 921 382 l 2,81,82
 921 379 921 379 925 375 c 128,-1,83
 929 371 929 371 936 369 c 0,84,85
 949 364 949 364 957 348 c 128,-1,86
 965 332 965 332 982 276 c 0,87,88
 994 236 994 236 1008.5 216 c 128,-1,89
 1023 196 1023 196 1047 189 c 0,90,61
 1068 182 1068 182 1108 182 c 0,62,63
1214 -52 m 0,92,93
 1220 -52 1220 -52 1223 -46.5 c 128,-1,94
 1226 -41 1226 -41 1226 -32 c 0,95,96
 1226 -9 1226 -9 1211 3 c 0,97,98
 1111 88 1111 88 981 107 c 0,99,100
 957 110 957 110 856 110 c 0,101,102
 740 110 740 110 610 107 c 0,103,104
 479 104 479 104 371 104 c 0,105,106
 259 104 259 104 226 108 c 0,107,108
 90 125 90 125 57 145 c 0,109,110
 53 148 53 148 47 148 c 0,111,112
 38 148 38 148 33.5 139.5 c 128,-1,113
 29 131 29 131 31 118 c 0,114,115
 38 80 38 80 88 51 c 128,-1,116
 138 22 138 22 223 7 c 0,117,118
 318 -9 318 -9 426 -9 c 2,119,-1
 463 -9 l 2,120,121
 583 -6 583 -6 850 -6 c 0,122,123
 971 -6 971 -6 987 -7 c 0,124,125
 1089 -14 1089 -14 1145 -28 c 0,126,127
 1163 -32 1163 -32 1182 -38.5 c 128,-1,128
 1201 -45 1201 -45 1206 -49 c 0,129,91
 1211 -52 1211 -52 1214 -52 c 0,92,93
EndSplineSet
Fore
SplineSet
411.799804688 505.759765625 m 132,-1,1
 395.559570312 495.3203125 395.559570312 495.3203125 395.559570312 482.560058594 c 132,-1,2
 395.559570312 469.799804688 395.559570312 469.799804688 421.659667969 458.779785156 c 132,-1,3
 447.759765625 447.759765625 447.759765625 447.759765625 520.259765625 447.759765625 c 132,-1,4
 592.759765625 447.759765625 592.759765625 447.759765625 651.919921875 465.16015625 c 4,5,6
 755.16015625 496.48046875 755.16015625 496.48046875 755.16015625 540.559570312 c 4,7,8
 755.16015625 564.919921875 755.16015625 564.919921875 721.51953125 596.240234375 c 260,9,10
 687.879882812 627.559570312 687.879882812 627.559570312 584.059570312 660.620117188 c 132,-1,11
 480.240234375 693.6796875 480.240234375 693.6796875 359.599609375 715.719726562 c 132,-1,12
 238.959960938 737.759765625 238.959960938 737.759765625 166.459960938 737.759765625 c 132,-1,13
 93.9599609375 737.759765625 93.9599609375 737.759765625 85.83984375 718.040039062 c 4,14,15
 81.2001953125 707.599609375 81.2001953125 707.599609375 81.2001953125 697.16015625 c 4,16,17
 81.2001953125 676.280273438 81.2001953125 676.280273438 114.259765625 667.580078125 c 132,-1,18
 147.3203125 658.879882812 147.3203125 658.879882812 247.080078125 653.66015625 c 132,-1,19
 346.83984375 648.440429688 346.83984375 648.440429688 405.419921875 635.099609375 c 132,-1,20
 464 621.759765625 464 621.759765625 488.359863281 597.399902344 c 132,-1,21
 512.719726562 573.040039062 512.719726562 573.040039062 512.719726562 555.639648438 c 4,22,23
 512.719726562 530.120117188 512.719726562 530.120117188 457.040039062 520.83984375 c 4,24,0
 428.040039062 516.200195312 428.040039062 516.200195312 411.799804688 505.759765625 c 132,-1,1
882.759765625 677.440429688 m 5,25,-1
 882.759765625 675.120117188 l 6,26,27
 882.759765625 671.639648438 882.759765625 671.639648438 887.400390625 667 c 132,-1,28
 892.040039062 662.360351562 892.040039062 662.360351562 903.640136719 658.300292969 c 132,-1,29
 915.240234375 654.240234375 915.240234375 654.240234375 924.51953125 635.6796875 c 132,-1,30
 933.799804688 617.120117188 933.799804688 617.120117188 950.620117188 561.439941406 c 132,-1,31
 967.440429688 505.759765625 967.440429688 505.759765625 984.259765625 482.559570312 c 132,-1,32
 1001.08007812 459.360351562 1001.08007812 459.360351562 1027.18017578 451.240234375 c 132,-1,33
 1053.28027344 443.120117188 1053.28027344 443.120117188 1103.16015625 443.120117188 c 132,-1,34
 1153.04003906 443.120117188 1153.04003906 443.120117188 1153.04003906 462.83984375 c 4,35,36
 1153.04003906 474.440429688 1153.04003906 474.440429688 1139.12011719 479.080078125 c 4,37,38
 1126.36035156 483.719726562 1126.36035156 483.719726562 1117.08007812 502.280273438 c 132,-1,39
 1107.79980469 520.83984375 1107.79980469 520.83984375 1092.14013672 573.620117188 c 132,-1,40
 1076.48046875 626.400390625 1076.48046875 626.400390625 1064.87988281 647.280273438 c 132,-1,41
 1053.28027344 668.16015625 1053.28027344 668.16015625 1035.87988281 677.440429688 c 4,42,43
 1003.2546081 694.83984375 1003.2546081 694.83984375 946.736529639 694.83984375 c 132,-1,44
 890.218451182 694.83984375 890.218451182 694.83984375 882.759765625 677.440429688 c 5,25,-1
1114.75976562 677.440429688 m 5,45,-1
 1114.75976562 675.120117188 l 6,46,47
 1114.75976562 671.639648438 1114.75976562 671.639648438 1119.40039062 667 c 132,-1,48
 1124.04003906 662.360351562 1124.04003906 662.360351562 1135.64013672 658.300292969 c 132,-1,49
 1147.24023438 654.240234375 1147.24023438 654.240234375 1156.51953125 635.6796875 c 132,-1,50
 1165.79980469 617.120117188 1165.79980469 617.120117188 1182.62011719 561.439941406 c 132,-1,51
 1199.44042969 505.759765625 1199.44042969 505.759765625 1216.25976562 482.559570312 c 132,-1,52
 1233.08007812 459.360351562 1233.08007812 459.360351562 1259.18017578 451.240234375 c 132,-1,53
 1285.28027344 443.120117188 1285.28027344 443.120117188 1335.16015625 443.120117188 c 132,-1,54
 1385.04003906 443.120117188 1385.04003906 443.120117188 1385.04003906 462.83984375 c 4,55,56
 1385.04003906 474.440429688 1385.04003906 474.440429688 1371.12011719 479.080078125 c 4,57,58
 1358.36035156 483.719726562 1358.36035156 483.719726562 1349.66015625 501.700195312 c 132,-1,59
 1340.95996094 519.6796875 1340.95996094 519.6796875 1324.72021485 572.459960938 c 132,-1,60
 1308.48046875 625.240234375 1308.48046875 625.240234375 1296.87988281 646.120117188 c 132,-1,61
 1285.28027344 667 1285.28027344 667 1267.87988281 676.860351562 c 4,62,63
 1236.15042438 694.83984375 1236.15042438 694.83984375 1179.18443779 694.83984375 c 132,-1,64
 1122.2184512 694.83984375 1122.2184512 694.83984375 1114.75976562 677.440429688 c 5,45,-1
1184.36035156 356.120117188 m 4,65,66
 1156.51953125 359.599609375 1156.51953125 359.599609375 1097.9399414 359.599609375 c 132,-1,67
 1039.36035156 359.599609375 1039.36035156 359.599609375 476.759765625 352.639648438 c 5,68,69
 346.83984375 352.639648438 346.83984375 352.639648438 308.559570312 357.280273438 c 4,70,71
 150.799804688 377 150.799804688 377 112.51953125 400.200195312 c 4,72,73
 107.879882812 403.6796875 107.879882812 403.6796875 99.180175781 403.6796875 c 132,-1,74
 90.48046875 403.6796875 90.48046875 403.6796875 85.259765625 393.8203125 c 132,-1,75
 80.0400390625 383.959960938 80.0400390625 383.959960938 82.3603515625 368.879882812 c 4,76,77
 90.48046875 324.799804688 90.48046875 324.799804688 148.48046875 291.16015625 c 132,-1,78
 206.48046875 257.51953125 206.48046875 257.51953125 310.880371094 239.539550781 c 132,-1,79
 415.280273438 221.559570312 415.280273438 221.559570312 540.559570312 221.559570312 c 6,80,-1
 583.48046875 221.559570312 l 5,81,82
 722.6796875 225.040039062 722.6796875 225.040039062 947.71972656 225.040039062 c 132,-1,83
 1172.75976562 225.040039062 1172.75976562 225.040039062 1191.3203125 223.879882812 c 4,84,85
 1340.67562506 213.629802968 1340.67562506 213.629802968 1417.51953125 187.33984375 c 4,86,87
 1439.55957031 179.799804688 1439.55957031 179.799804688 1445.35986328 175.739746094 c 132,-1,88
 1451.16015625 171.6796875 1451.16015625 171.6796875 1454.63964844 171.6796875 c 4,89,90
 1468.55957031 171.6796875 1468.55957031 171.6796875 1468.55957031 196.619628906 c 132,-1,91
 1468.55957031 221.559570312 1468.55957031 221.559570312 1451.16015625 235.48046875 c 4,92,93
 1335.16015625 334.080078125 1335.16015625 334.080078125 1184.36035156 356.120117188 c 4,65,66
EndSplineSet
EndChar

StartChar: Y
Encoding: 89 89 25
Width: 1357
VWidth: 1392
GlyphClass: 1
Flags: W
LayerCount: 2
Back
Refer: 23 87 N 1 0 0 1 0 0 0
Refer: 91 36 N 1 0 0 1 0 650 2
Fore
SplineSet
353.219726562 1150.71972656 m 0,0,1
 438.252929688 1070.81152344 438.252929688 1070.81152344 629.299804688 1044 c 0,2,3
 662.360351562 1039.36035156 662.360351562 1039.36035156 682.66015625 1038.12792969 c 128,-1,4
 702.959960938 1036.89550781 702.959960938 1036.89550781 702.959960938 1031.24023438 c 0,5,6
 702.959960938 1019.28320312 702.959960938 1019.28320312 688.459960938 985.822265625 c 128,-1,7
 673.959960938 952.360351562 673.959960938 952.360351562 673.959960938 945.400390625 c 256,8,9
 673.959960938 938.440429688 673.959960938 938.440429688 679.1796875 935.540039062 c 128,-1,10
 684.400390625 932.639648438 684.400390625 932.639648438 693.6796875 930.3203125 c 128,-1,11
 702.959960938 928 702.959960938 928 719.200195312 923.939453125 c 128,-1,12
 735.440429688 919.879882812 735.440429688 919.879882812 771.400390625 921.040039062 c 0,13,14
 788.799804688 922.200195312 788.799804688 922.200195312 809.6796875 951.200195312 c 128,-1,15
 830.559570312 980.200195312 830.559570312 980.200195312 835.200195312 1011.51953125 c 0,16,17
 835.200195312 1015 835.200195312 1015 849.120117188 1015 c 2,18,-1
 895.51953125 1013.83984375 l 2,19,20
 918.719726562 1012.6796875 918.719726562 1012.6796875 1053.859375 1008.61914062 c 128,-1,21
 1189 1004.55957031 1189 1004.55957031 1234.24023438 1001.66015625 c 128,-1,22
 1279.48046875 998.759765625 1279.48046875 998.759765625 1305 988.899414062 c 128,-1,23
 1330.51953125 979.040039062 1330.51953125 979.040039062 1343.28027344 979.040039062 c 0,24,25
 1363 979.040039062 1363 979.040039062 1363 1004.55957031 c 256,26,27
 1363 1030.08007812 1363 1030.08007812 1331.6796875 1046.3203125 c 0,28,29
 1275.03515625 1075.69042969 1275.03515625 1075.69042969 1034.71972656 1086.91992188 c 0,30,31
 901.5 1093.93261719 901.5 1093.93261719 841 1102 c 0,32,33
 838.6796875 1104.3203125 838.6796875 1104.3203125 838.6796875 1107.79980469 c 2,34,-1
 842.16015625 1132.16015625 l 1,35,36
 845.640625 1146.08007812 845.640625 1146.08007812 852.599609375 1148.40039062 c 128,-1,37
 859.559570312 1150.71972656 859.559570312 1150.71972656 864.779296875 1160 c 128,-1,38
 870 1169.28027344 870 1169.28027344 870 1182.04003906 c 0,39,40
 870 1209.11621094 870 1209.11621094 783 1213.36035156 c 0,41,42
 716.879882812 1216.83984375 716.879882812 1216.83984375 715.719726562 1143.75976562 c 1,43,44
 715.719726562 1143.75976562 715.719726562 1143.75976562 715.719726562 1127.51953125 c 128,-1,45
 715.719726562 1111.28027344 715.719726562 1111.28027344 711.080078125 1111.28027344 c 0,46,47
 599.0078125 1111.28027344 599.0078125 1111.28027344 520.259765625 1178.55957031 c 0,48,49
 460.51953125 1229.59960938 460.51953125 1229.59960938 440.219726562 1302.09960938 c 0,50,51
 399.708984375 1446.78320312 399.708984375 1446.78320312 215.759765625 1477.83984375 c 0,52,53
 156.599609375 1488.28027344 156.599609375 1488.28027344 119.48046875 1488.28027344 c 128,-1,54
 82.3603515625 1488.28027344 82.3603515625 1488.28027344 82.3603515625 1466.24023438 c 0,55,56
 82.3603515625 1458.12011719 82.3603515625 1458.12011719 89.3203125 1441.87988281 c 128,-1,57
 96.2802734375 1425.63964844 96.2802734375 1425.63964844 106.719726562 1420.41992188 c 128,-1,58
 117.16015625 1415.20019531 117.16015625 1415.20019531 154.280273438 1415.20019531 c 128,-1,59
 191.400390625 1415.20019531 191.400390625 1415.20019531 218.66015625 1386.20019531 c 128,-1,60
 245.919921875 1357.20019531 245.919921875 1357.20019531 275.5 1276.58007812 c 128,-1,61
 305.080078125 1195.95996094 305.080078125 1195.95996094 353.219726562 1150.71972656 c 0,0,1
470.6796875 485.3203125 m 128,-1,63
 476.760742188 488.359375 476.760742188 488.359375 481.98046875 498.799804688 c 128,-1,64
 487.200195312 509.239257812 487.200195312 509.239257812 487.200195312 517.939453125 c 128,-1,65
 487.200195312 526.639648438 487.200195312 526.639648438 483.720703125 530.119140625 c 0,66,67
 477.919921875 538.239257812 477.919921875 538.239257812 452.400390625 541.719726562 c 0,68,69
 382.80078125 553.319335938 382.80078125 553.319335938 348 581.739257812 c 128,-1,70
 313.200195312 610.159179688 313.200195312 610.159179688 316.680664062 646.119140625 c 0,71,72
 322.48046875 700.639648438 322.48046875 700.639648438 401.360351562 729.639648438 c 128,-1,73
 480.240234375 758.639648438 480.240234375 758.639648438 621.760742188 758.639648438 c 0,74,75
 950.463867188 758.639648438 950.463867188 758.639648438 1041.68066406 614.219726562 c 0,76,77
 1048.640625 603.19921875 1048.640625 603.19921875 1048.640625 593.919921875 c 0,78,79
 1048.640625 555.639648438 1048.640625 555.639648438 987.16015625 552.159179688 c 0,80,81
 928 547.016601562 928 547.016601562 928 528.959960938 c 0,82,83
 928 520.83984375 928 520.83984375 941.33984375 512.139648438 c 128,-1,84
 954.680664062 503.439453125 954.680664062 503.439453125 1020.22070312 493.580078125 c 128,-1,85
 1085.76074219 483.719726562 1085.76074219 483.719726562 1117.08007812 483.719726562 c 128,-1,86
 1148.40039062 483.719726562 1148.40039062 483.719726562 1178.56054688 487.780273438 c 128,-1,87
 1208.72070312 491.83984375 1208.72070312 491.83984375 1230.18066406 497.639648438 c 128,-1,88
 1251.640625 503.439453125 1251.640625 503.439453125 1260.91992188 516.779296875 c 128,-1,89
 1270.20019531 530.119140625 1270.20019531 530.119140625 1270.20019531 563.1796875 c 128,-1,90
 1270.20019531 596.239257812 1270.20019531 596.239257812 1260.34082031 620.01953125 c 128,-1,91
 1250.48046875 643.799804688 1250.48046875 643.799804688 1226.12011719 667 c 0,92,93
 1135.640625 759.799804688 1135.640625 759.799804688 875.80078125 793.439453125 c 0,94,95
 676.271484375 818.959960938 676.271484375 818.959960938 591.015625 818.959960938 c 128,-1,96
 505.760742188 818.959960938 505.760742188 818.959960938 427.459960938 805.619140625 c 128,-1,97
 349.16015625 792.279296875 349.16015625 792.279296875 271.440429688 767.33984375 c 128,-1,98
 193.720703125 742.399414062 193.720703125 742.399414062 167.620117188 723.83984375 c 0,99,100
 127.600585938 695.380859375 127.600585938 695.380859375 127.600585938 643.490234375 c 128,-1,101
 127.600585938 591.599609375 127.600585938 591.599609375 197.200195312 551.580078125 c 128,-1,102
 266.80078125 511.559570312 266.80078125 511.559570312 403.680664062 491.83984375 c 0,103,104
 432.680664062 488.359375 432.680664062 488.359375 448.639648438 485.3203125 c 128,-1,62
 464.599609375 482.280273438 464.599609375 482.280273438 470.6796875 485.3203125 c 128,-1,63
1260.91992188 219.8203125 m 128,-1,106
 1307.3203125 241.280273438 1307.3203125 241.280273438 1314.86035156 259.840820312 c 128,-1,107
 1322.40039062 278.400390625 1322.40039062 278.400390625 1322.40039062 293.48046875 c 0,108,109
 1322.40039062 338.719726562 1322.40039062 338.719726562 1259.75976562 370.040039062 c 128,-1,110
 1197.12011719 401.360351562 1197.12011719 401.360351562 1062.55957031 424.559570312 c 0,111,112
 997.599609375 436.16015625 997.599609375 436.16015625 976.719726562 436.16015625 c 128,-1,113
 955.83984375 436.16015625 955.83984375 436.16015625 948.879882812 425.720703125 c 128,-1,114
 941.919921875 415.280273438 941.919921875 415.280273438 941.919921875 408.3203125 c 128,-1,115
 941.919921875 401.360351562 941.919921875 401.360351562 955.259765625 396.139648438 c 128,-1,116
 968.599609375 390.919921875 968.599609375 390.919921875 1019.63964844 376.419921875 c 0,117,118
 1124.04003906 346.760742188 1124.04003906 346.760742188 1124.04003906 301.599609375 c 0,119,120
 1124.04003906 251.719726562 1124.04003906 251.719726562 1038.78027344 225.040039062 c 128,-1,121
 953.51953125 198.360351562 953.51953125 198.360351562 802.719726562 198.360351562 c 0,122,123
 584.638671875 198.360351562 584.638671875 198.360351562 487.200195312 230.83984375 c 0,124,125
 411.799804688 255.200195312 411.799804688 255.200195312 369.459960938 283.620117188 c 128,-1,126
 327.120117188 312.040039062 327.120117188 312.040039062 327.120117188 336.400390625 c 0,127,128
 327.120117188 365.400390625 327.120117188 365.400390625 385.120117188 377 c 0,129,130
 439.484375 388.444335938 439.484375 388.444335938 447.759765625 396.719726562 c 0,131,132
 465.765625 416.9765625 465.765625 416.9765625 348 430.360351562 c 0,133,134
 296.959960938 436.16015625 296.959960938 436.16015625 237.220703125 436.16015625 c 128,-1,135
 177.48046875 436.16015625 177.48046875 436.16015625 140.360351562 425.720703125 c 128,-1,136
 103.240234375 415.280273438 103.240234375 415.280273438 92.2197265625 406 c 128,-1,137
 81.2001953125 396.719726562 81.2001953125 396.719726562 81.2001953125 371.200195312 c 0,138,139
 81.2001953125 321.3203125 81.2001953125 321.3203125 136.879882812 276.66015625 c 128,-1,140
 192.559570312 232 192.559570312 232 292.899414062 203.580078125 c 0,141,142
 503.8203125 143.83984375 503.8203125 143.83984375 781.83984375 143.83984375 c 0,143,144
 990.639648438 143.83984375 990.639648438 143.83984375 1142.59960938 180.959960938 c 0,145,105
 1214.51953125 198.360351562 1214.51953125 198.360351562 1260.91992188 219.8203125 c 128,-1,106
EndSplineSet
EndChar

StartChar: Z
Encoding: 90 90 26
Width: 1353
VWidth: 1392
GlyphClass: 1
Flags: W
LayerCount: 2
Back
Refer: 56 49 N 1 0 0 1 0 0 0
Refer: 108 96 N 1 0 0 1 270 240 2
Fore
SplineSet
395.560546875 665.840820312 m 1,0,-1
 395.560546875 663.520507812 l 2,1,2
 395.560546875 660.040039062 395.560546875 660.040039062 400.200195312 655.400390625 c 128,-1,3
 404.83984375 650.760742188 404.83984375 650.760742188 416.439453125 646.700195312 c 128,-1,4
 428.040039062 642.640625 428.040039062 642.640625 437.3203125 624.080078125 c 128,-1,5
 446.600585938 605.520507812 446.600585938 605.520507812 463.419921875 549.83984375 c 128,-1,6
 480.240234375 494.16015625 480.240234375 494.16015625 497.060546875 470.959960938 c 128,-1,7
 513.879882812 447.760742188 513.879882812 447.760742188 539.979492188 439.640625 c 128,-1,8
 566.080078125 431.520507812 566.080078125 431.520507812 615.959960938 431.520507812 c 128,-1,9
 665.83984375 431.520507812 665.83984375 431.520507812 665.83984375 451.240234375 c 256,10,11
 665.83984375 461.680664062 665.83984375 461.680664062 652.5 466.900390625 c 128,-1,12
 639.16015625 472.120117188 639.16015625 472.120117188 629.879882812 490.680664062 c 128,-1,13
 620.600585938 509.240234375 620.600585938 509.240234375 604.940429688 562.020507812 c 128,-1,14
 589.280273438 614.80078125 589.280273438 614.80078125 577.680664062 635.680664062 c 128,-1,15
 566.080078125 656.560546875 566.080078125 656.560546875 548.680664062 665.840820312 c 0,16,17
 516.053710938 683.240234375 516.053710938 683.240234375 459.53515625 683.240234375 c 128,-1,18
 403.016601562 683.240234375 403.016601562 683.240234375 395.560546875 665.840820312 c 1,0,-1
627.560546875 665.840820312 m 1,19,-1
 627.560546875 663.520507812 l 2,20,21
 627.560546875 660.040039062 627.560546875 660.040039062 632.200195312 655.400390625 c 128,-1,22
 636.83984375 650.760742188 636.83984375 650.760742188 648.439453125 646.700195312 c 128,-1,23
 660.040039062 642.640625 660.040039062 642.640625 669.3203125 624.080078125 c 128,-1,24
 678.600585938 605.520507812 678.600585938 605.520507812 695.419921875 549.83984375 c 128,-1,25
 712.240234375 494.16015625 712.240234375 494.16015625 729.060546875 470.959960938 c 128,-1,26
 745.879882812 447.760742188 745.879882812 447.760742188 771.979492188 439.640625 c 128,-1,27
 798.080078125 431.520507812 798.080078125 431.520507812 847.959960938 431.520507812 c 128,-1,28
 897.83984375 431.520507812 897.83984375 431.520507812 897.83984375 451.240234375 c 256,29,30
 897.83984375 461.680664062 897.83984375 461.680664062 884.5 466.900390625 c 128,-1,31
 871.16015625 472.120117188 871.16015625 472.120117188 862.459960938 490.100585938 c 128,-1,32
 853.759765625 508.080078125 853.759765625 508.080078125 837.51953125 560.860351562 c 128,-1,33
 821.280273438 613.640625 821.280273438 613.640625 809.680664062 634.520507812 c 128,-1,34
 798.080078125 655.400390625 798.080078125 655.400390625 780.680664062 665.260742188 c 0,35,36
 748.94921875 683.240234375 748.94921875 683.240234375 691.983398438 683.240234375 c 128,-1,37
 635.016601562 683.240234375 635.016601562 683.240234375 627.560546875 665.840820312 c 1,19,-1
1303.83984375 171.6796875 m 0,38,39
 1318.91992188 171.6796875 1318.91992188 171.6796875 1318.91992188 196.040039062 c 256,40,41
 1318.91992188 221.557617188 1318.91992188 221.557617188 1300.36035156 235.48046875 c 0,42,43
 1179.71972656 334.080078125 1179.71972656 334.080078125 1033.55957031 356.120117188 c 0,44,45
 1006.87988281 360.759765625 1006.87988281 360.759765625 940.759765625 360.759765625 c 128,-1,46
 874.639648438 360.759765625 874.639648438 360.759765625 754 356.120117188 c 0,47,48
 602.040039062 352.639648438 602.040039062 352.639648438 474.439453125 352.639648438 c 128,-1,49
 346.83984375 352.639648438 346.83984375 352.639648438 308.559570312 357.280273438 c 0,50,51
 154.280273438 377 154.280273438 377 112.51953125 400.200195312 c 0,52,53
 107.879882812 403.6796875 107.879882812 403.6796875 100.33984375 403.6796875 c 128,-1,54
 92.7998046875 403.6796875 92.7998046875 403.6796875 87 393.8203125 c 128,-1,55
 81.2001953125 383.959960938 81.2001953125 383.959960938 82.3603515625 368.879882812 c 0,56,57
 89.3203125 325.959960938 89.3203125 325.959960938 147.3203125 292.900390625 c 128,-1,58
 205.3203125 259.83984375 205.3203125 259.83984375 305.080078125 240.120117188 c 0,59,60
 417.599609375 220.400390625 417.599609375 220.400390625 532.440429688 220.400390625 c 0,61,62
 566.080078125 220.400390625 566.080078125 220.400390625 644.379882812 222.719726562 c 128,-1,63
 722.6796875 225.040039062 722.6796875 225.040039062 872.3203125 225.040039062 c 128,-1,64
 1021.95996094 225.040039062 1021.95996094 225.040039062 1040.51953125 223.879882812 c 0,65,66
 1181.6171875 216.454101562 1181.6171875 216.454101562 1266.71972656 187.33984375 c 0,67,68
 1288.75976562 179.799804688 1288.75976562 179.799804688 1294.55957031 175.740234375 c 128,-1,69
 1300.36035156 171.6796875 1300.36035156 171.6796875 1303.83984375 171.6796875 c 0,38,39
EndSplineSet
EndChar

StartChar: a
Encoding: 97 97 27
Width: 46
VWidth: 1392
GlyphClass: 1
Flags: W
LayerCount: 2
Back
SplineSet
-508 199 m 0,1,2
 -463 199 -463 199 -447 202 c 128,-1,3
 -431 205 -431 205 -420 216 c 0,4,5
 -404 232 -404 232 -404 259 c 0,6,7
 -404 272 -404 272 -409 289 c 0,8,9
 -416 308 -416 308 -446 318 c 128,-1,10
 -476 328 -476 328 -525 328 c 0,11,12
 -594 328 -594 328 -594 307 c 0,13,14
 -594 296 -594 296 -574 279 c 0,15,16
 -560 268 -560 268 -560 260 c 0,17,18
 -560 254 -560 254 -574 254 c 0,19,20
 -593 254 -593 254 -632 265 c 128,-1,21
 -671 276 -671 276 -720 296 c 0,22,23
 -740 305 -740 305 -757 311 c 128,-1,24
 -774 317 -774 317 -781 317 c 0,25,26
 -792 317 -792 317 -792 306 c 0,27,28
 -792 300 -792 300 -789 289 c 0,29,30
 -782 261 -782 261 -738 239 c 128,-1,31
 -694 217 -694 217 -619 207 c 0,32,0
 -560 199 -560 199 -508 199 c 0,1,2
EndSplineSet
Fore
SplineSet
-542.879882812 462.83984375 m 0,1,2
 -490.6796875 462.83984375 -490.6796875 462.83984375 -472.120117188 466.3203125 c 128,-1,3
 -453.559570312 469.799804688 -453.559570312 469.799804688 -440.799804688 482.559570312 c 0,4,5
 -422.240234375 501.120117188 -422.240234375 501.120117188 -422.240234375 532.440429688 c 0,6,7
 -422.240234375 547.51953125 -422.240234375 547.51953125 -428.040039062 567.240234375 c 0,8,9
 -436.16015625 589.280273438 -436.16015625 589.280273438 -470.959960938 600.879882812 c 128,-1,10
 -505.759765625 612.48046875 -505.759765625 612.48046875 -562.599609375 612.48046875 c 0,11,12
 -642.639648438 612.48046875 -642.639648438 612.48046875 -642.639648438 588.120117188 c 0,13,14
 -642.639648438 575.360351562 -642.639648438 575.360351562 -619.440429688 555.639648438 c 0,15,16
 -603.200195312 542.879882812 -603.200195312 542.879882812 -603.200195312 533.599609375 c 0,17,18
 -603.200195312 526.639648438 -603.200195312 526.639648438 -619.440429688 526.639648438 c 0,19,20
 -641.48046875 526.639648438 -641.48046875 526.639648438 -686.719726562 539.400390625 c 128,-1,21
 -731.959960938 552.16015625 -731.959960938 552.16015625 -788.799804688 575.360351562 c 0,22,23
 -812 585.799804688 -812 585.799804688 -831.719726562 592.759765625 c 128,-1,24
 -851.440429688 599.719726562 -851.440429688 599.719726562 -859.559570312 599.719726562 c 0,25,26
 -872.3203125 599.719726562 -872.3203125 599.719726562 -872.3203125 586.959960938 c 0,27,28
 -872.3203125 580 -872.3203125 580 -868.83984375 567.240234375 c 0,29,30
 -860.719726562 534.759765625 -860.719726562 534.759765625 -809.6796875 509.240234375 c 128,-1,31
 -758.639648438 483.719726562 -758.639648438 483.719726562 -671.639648438 472.120117188 c 0,32,0
 -603.200195312 462.83984375 -603.200195312 462.83984375 -542.879882812 462.83984375 c 0,1,2
EndSplineSet
EndChar

StartChar: aring
Encoding: 229 229 28
Width: 46
VWidth: 1392
GlyphClass: 1
Flags: W
LayerCount: 2
Back
SplineSet
-498 249 m 0,1,2
 -453 249 -453 249 -437 252 c 128,-1,3
 -421 255 -421 255 -410 266 c 0,4,5
 -394 282 -394 282 -394 309 c 0,6,7
 -394 322 -394 322 -399 339 c 0,8,9
 -406 358 -406 358 -436 368 c 128,-1,10
 -466 378 -466 378 -515 378 c 0,11,12
 -584 378 -584 378 -584 357 c 0,13,14
 -584 346 -584 346 -564 329 c 0,15,16
 -550 318 -550 318 -550 310 c 0,17,18
 -550 304 -550 304 -564 304 c 0,19,20
 -583 304 -583 304 -622 315 c 128,-1,21
 -661 326 -661 326 -710 346 c 0,22,23
 -730 355 -730 355 -747 361 c 128,-1,24
 -764 367 -764 367 -771 367 c 0,25,26
 -782 367 -782 367 -782 356 c 0,27,28
 -782 350 -782 350 -779 339 c 0,29,30
 -772 311 -772 311 -728 289 c 128,-1,31
 -684 267 -684 267 -609 257 c 0,32,0
 -550 249 -550 249 -498 249 c 0,1,2
EndSplineSet
Fore
SplineSet
-798.080078125 567.240234375 m 0,0,1
 -747.040039062 541.719726562 -747.040039062 541.719726562 -669.319824219 531.279785156 c 128,-1,2
 -591.599609375 520.83984375 -591.599609375 520.83984375 -535.33984375 520.83984375 c 128,-1,3
 -479.080078125 520.83984375 -479.080078125 520.83984375 -460.51953125 524.3203125 c 128,-1,4
 -441.959960938 527.799804688 -441.959960938 527.799804688 -426.299804688 543.459960938 c 128,-1,5
 -410.639648438 559.120117188 -410.639648438 559.120117188 -410.639648438 582.319824219 c 128,-1,6
 -410.639648438 605.51953125 -410.639648438 605.51953125 -416.440429688 625.240234375 c 0,7,8
 -433.106090929 670.48046875 -433.106090929 670.48046875 -551 670.48046875 c 0,9,10
 -631.040039062 670.48046875 -631.040039062 670.48046875 -631.040039062 646.120117188 c 0,11,12
 -631.040039062 633.360351562 -631.040039062 633.360351562 -611.319824219 617.120117187 c 128,-1,13
 -591.599609375 600.879882812 -591.599609375 600.879882812 -591.599609375 591.599609375 c 0,14,15
 -591.599609375 584.639648438 -591.599609375 584.639648438 -610.739746094 584.639648438 c 0,16,17
 -657.835805671 584.639648438 -657.835805671 584.639648438 -777.200195312 633.360351562 c 0,18,19
 -831.335431218 657.719726562 -831.335431218 657.719726562 -846.02757889 657.719726562 c 128,-1,20
 -860.719726562 657.719726562 -860.719726562 657.719726562 -860.719726562 644.959960938 c 0,21,22
 -860.719726562 598.559459343 -860.719726562 598.559459343 -798.080078125 567.240234375 c 0,0,1
EndSplineSet
EndChar

StartChar: b
Encoding: 98 98 29
Width: 1626
VWidth: 1392
GlyphClass: 1
Flags: W
LayerCount: 2
Back
SplineSet
498.5 204.5 m 128,-1,1
 512 223 512 223 514 243 c 0,2,3
 514 246 514 246 524 246 c 0,4,5
 537 246 537 246 549 245 c 0,6,7
 614 242 614 242 652 241 c 0,8,9
 740 239 740 239 770 237 c 128,-1,10
 800 235 800 235 815 229 c 0,11,12
 836 222 836 222 841 222 c 0,13,14
 854 222 854 222 854 239 c 0,15,16
 854 264 854 264 807.5 275.5 c 128,-1,17
 761 287 761 287 643 292 c 0,18,19
 599 294 599 294 564 297 c 128,-1,20
 529 300 529 300 518 302 c 0,21,22
 516 302 516 302 516 305 c 0,23,24
 516 309 516 309 519 321 c 0,25,26
 521 330 521 330 525.5 331.5 c 128,-1,27
 530 333 530 333 532 337 c 0,28,29
 537 347 537 347 537 351 c 0,30,31
 537 373 537 373 476 373 c 0,32,33
 438 373 438 373 438 328 c 0,34,35
 438 322 438 322 437.5 315 c 128,-1,36
 437 308 437 308 435 308 c 0,37,38
 412 308 412 308 404 310 c 0,39,40
 350 318 350 318 311.5 351 c 128,-1,41
 273 384 273 384 259 434 c 0,42,43
 247 478 247 478 210 506 c 128,-1,44
 173 534 173 534 116 543 c 0,45,46
 70 550 70 550 57 550 c 0,47,48
 43 550 43 550 36.5 546.5 c 128,-1,49
 30 543 30 543 30 536 c 256,50,51
 30 529 30 529 34 521 c 0,52,53
 39 510 39 510 46 506.5 c 128,-1,54
 53 503 53 503 72 503 c 0,55,56
 100 503 100 503 118 484.5 c 128,-1,57
 136 466 136 466 154 414 c 0,58,59
 173 362 173 362 204 333 c 128,-1,60
 235 304 235 304 289 285 c 0,61,62
 310 278 310 278 336 272.5 c 128,-1,63
 362 267 362 267 376 265 c 2,64,-1
 402 262 l 2,65,66
 415 261 415 261 422 259.5 c 128,-1,67
 429 258 429 258 429 256 c 0,68,69
 429 248 429 248 423 232 c 0,70,71
 411 207 411 207 411 201 c 0,72,73
 411 197 411 197 415.5 194.5 c 128,-1,74
 420 192 420 192 425 191 c 128,-1,75
 430 190 430 190 432 189 c 0,76,77
 453 184 453 184 473 185 c 0,78,0
 485 186 485 186 498.5 204.5 c 128,-1,1
1057 175 m 0,80,81
 1081 175 1081 175 1088 178 c 0,82,83
 1098 182 1098 182 1098 190 c 256,84,85
 1098 198 1098 198 1087 203 c 0,86,87
 1077 206 1077 206 1070 220.5 c 128,-1,88
 1063 235 1063 235 1048 284 c 0,89,90
 1038 317 1038 317 1029 333 c 128,-1,91
 1020 349 1020 349 1007 356.5 c 128,-1,92
 994 364 994 364 969 367 c 0,93,94
 951 370 951 370 935 370 c 0,95,96
 916 370 916 370 903.5 366.5 c 128,-1,97
 891 363 891 363 888 357 c 2,98,-1
 888 355 l 2,99,100
 888 348 888 348 901 343 c 0,101,102
 913 339 913 339 920 325 c 128,-1,103
 927 311 927 311 943 259 c 0,104,105
 954 224 954 224 967 206 c 128,-1,106
 980 188 980 188 1001 181 c 0,107,79
 1022 175 1022 175 1057 175 c 0,80,81
1237 175 m 0,109,110
 1261 175 1261 175 1268 178 c 0,111,112
 1278 182 1278 182 1278 190 c 256,113,114
 1278 198 1278 198 1267 203 c 0,115,116
 1257 206 1257 206 1250.5 220 c 128,-1,117
 1244 234 1244 234 1228 284 c 0,118,119
 1218 317 1218 317 1209 333 c 128,-1,120
 1200 349 1200 349 1187 356 c 128,-1,121
 1174 363 1174 363 1149 367 c 0,122,123
 1131 370 1131 370 1115 370 c 0,124,125
 1096 370 1096 370 1083.5 366.5 c 128,-1,126
 1071 363 1071 363 1068 357 c 2,127,-1
 1068 355 l 2,128,129
 1068 348 1068 348 1081 343 c 0,130,131
 1093 339 1093 339 1100 325 c 128,-1,132
 1107 311 1107 311 1123 259 c 0,133,134
 1134 224 1134 224 1147 206 c 128,-1,135
 1160 188 1160 188 1181 181 c 0,136,108
 1202 175 1202 175 1237 175 c 0,109,110
1320 -52 m 0,138,139
 1326 -52 1326 -52 1329 -46.5 c 128,-1,140
 1332 -41 1332 -41 1332 -32 c 0,141,142
 1332 -9 1332 -9 1317 3 c 0,143,144
 1217 88 1217 88 1087 107 c 0,145,146
 1063 110 1063 110 962 110 c 0,147,148
 847 110 847 110 716 107 c 0,149,150
 586 104 586 104 477 104 c 0,151,152
 365 104 365 104 332 108 c 0,153,154
 196 125 196 125 163 145 c 0,155,156
 159 148 159 148 153 148 c 0,157,158
 144 148 144 148 139.5 139.5 c 128,-1,159
 135 131 135 131 137 118 c 0,160,161
 144 80 144 80 194 51 c 128,-1,162
 244 22 244 22 329 7 c 0,163,164
 424 -9 424 -9 532 -9 c 2,165,-1
 569 -9 l 2,166,167
 689 -6 689 -6 956 -6 c 0,168,169
 1077 -6 1077 -6 1093 -7 c 0,170,171
 1195 -14 1195 -14 1251 -28 c 0,172,173
 1269 -32 1269 -32 1288 -38.5 c 128,-1,174
 1307 -45 1307 -45 1312 -49 c 0,175,137
 1317 -52 1317 -52 1320 -52 c 0,138,139
EndSplineSet
Fore
SplineSet
112.51953125 870 m 4,0,1
 81.2001953125 870 81.2001953125 870 81.2001953125 853.759765625 c 260,2,3
 81.2001953125 845.639648438 81.2001953125 845.639648438 86.419921875 834.619628906 c 132,-1,4
 91.6396484375 823.599609375 91.6396484375 823.599609375 99.759765625 819.540039062 c 132,-1,5
 107.879882812 815.48046875 107.879882812 815.48046875 135.140136719 815.48046875 c 132,-1,6
 162.400390625 815.48046875 162.400390625 815.48046875 183.280273438 794.01953125 c 132,-1,7
 204.16015625 772.559570312 204.16015625 772.559570312 225.620117188 712.239746094 c 132,-1,8
 247.080078125 651.919921875 247.080078125 651.919921875 283.040039062 618.280273438 c 4,9,10
 346.601604056 558.818285255 346.601604056 558.818285255 482.559570312 539.400390625 c 5,11,-1
 512.719726562 535.919921875 l 5,12,13
 544.040039062 533.510355028 544.040039062 533.510355028 544.040039062 528.959960938 c 4,14,15
 544.040039062 519.6796875 544.040039062 519.6796875 537.080078125 501.120117188 c 4,16,17
 523.16015625 472.120117188 523.16015625 472.120117188 523.16015625 466.319824219 c 132,-1,18
 523.16015625 460.51953125 523.16015625 460.51953125 528.379882812 457.620117188 c 132,-1,19
 533.599609375 454.719726562 533.599609375 454.719726562 539.400390625 453.559570312 c 132,-1,20
 545.200195312 452.400390625 545.200195312 452.400390625 558.540039062 448.920410156 c 132,-1,21
 571.879882812 445.440429688 571.879882812 445.440429688 595.080078125 446.599609375 c 4,22,23
 609 447.759765625 609 447.759765625 624.66015625 469.219726562 c 132,-1,24
 640.3203125 490.6796875 640.3203125 490.6796875 642.639648438 513.879882812 c 4,25,26
 642.639648438 517.360351562 642.639648438 517.360351562 655.979980469 517.360351562 c 132,-1,27
 669.3203125 517.360351562 669.3203125 517.360351562 713.979980469 515.040039062 c 132,-1,28
 758.639648438 512.719726562 758.639648438 512.719726562 831.719726563 510.979980469 c 132,-1,29
 904.799804688 509.240234375 904.799804688 509.240234375 939.599609375 506.919921875 c 132,-1,30
 974.400390625 504.599609375 974.400390625 504.599609375 995.280273438 497.059570312 c 132,-1,31
 1016.16015625 489.51953125 1016.16015625 489.51953125 1021.95996094 489.51953125 c 4,32,33
 1037.04003906 489.51953125 1037.04003906 489.51953125 1037.04003906 509.240234375 c 4,34,35
 1037.04003906 538.240234375 1037.04003906 538.240234375 983.099609375 551.580078125 c 132,-1,36
 929.16015625 564.919921875 929.16015625 564.919921875 835.200195312 568.979980469 c 4,37,38
 684.934518225 575.473038229 684.934518225 575.473038229 647.280273438 582.3203125 c 4,39,40
 644.959960938 582.3203125 644.959960938 582.3203125 644.959960938 586.380371094 c 132,-1,41
 644.959960938 590.440429688 644.959960938 590.440429688 647.859863281 602.620117188 c 132,-1,42
 650.759765625 614.799804688 650.759765625 614.799804688 655.98046875 616.540039062 c 132,-1,43
 661.200195312 618.280273438 661.200195312 618.280273438 665.260253906 626.399902344 c 132,-1,44
 669.3203125 634.51953125 669.3203125 634.51953125 669.3203125 639.16015625 c 4,45,46
 669.3203125 664.6796875 669.3203125 664.6796875 598.559570312 664.6796875 c 4,47,48
 554.48046875 664.6796875 554.48046875 664.6796875 554.48046875 612.48046875 c 4,49,50
 554.48046875 589.280273438 554.48046875 589.280273438 551 589.280273438 c 4,51,52
 465.933218908 589.280273438 465.933218908 589.280273438 407.740234375 639.16015625 c 4,53,54
 363.080078125 677.440429688 363.080078125 677.440429688 348 731.960449219 c 4,55,56
 318.051572495 840.235011123 318.051572495 840.235011123 180.959960938 861.879882812 c 4,57,58
 127.599609375 870 127.599609375 870 112.51953125 870 c 4,0,1
1076.48046875 646.120117188 m 5,59,-1
 1076.48046875 643.799804688 l 6,60,61
 1076.48046875 635.6796875 1076.48046875 635.6796875 1090.98046875 630.459960938 c 132,-1,62
 1105.48046875 625.240234375 1105.48046875 625.240234375 1113.59960938 609 c 132,-1,63
 1121.71972656 592.759765625 1121.71972656 592.759765625 1137.37988281 542.299804688 c 132,-1,64
 1153.04003906 491.83984375 1153.04003906 491.83984375 1168.12011719 470.959960938 c 132,-1,65
 1183.20019531 450.080078125 1183.20019531 450.080078125 1207.5600586 442.540039062 c 132,-1,66
 1231.91992188 435 1231.91992188 435 1266.14013672 435 c 132,-1,67
 1300.36035156 435 1300.36035156 435 1310.22021484 439.060058594 c 132,-1,68
 1320.08007812 443.120117188 1320.08007812 443.120117188 1320.08007812 452.400390625 c 260,69,70
 1320.08007812 461.6796875 1320.08007812 461.6796875 1307.3203125 467.48046875 c 4,71,72
 1295.71972656 470.959960938 1295.71972656 470.959960938 1287.59960938 487.780273438 c 132,-1,73
 1279.48046875 504.599609375 1279.48046875 504.599609375 1264.98046875 552.159667969 c 132,-1,74
 1250.48046875 599.719726562 1250.48046875 599.719726562 1240.04003906 618.280273438 c 132,-1,75
 1229.59960938 636.83984375 1229.59960938 636.83984375 1214.51953125 645.540039062 c 4,76,77
 1187.37748696 661.200195312 1187.37748696 661.200195312 1135.69846841 661.200195312 c 132,-1,78
 1084.01944986 661.200195312 1084.01944986 661.200195312 1076.48046875 646.120117188 c 5,59,-1
1285.28027344 646.120117188 m 5,79,-1
 1285.28027344 643.799804688 l 6,80,81
 1285.28027344 635.6796875 1285.28027344 635.6796875 1299.78027344 630.459960938 c 132,-1,82
 1314.28027344 625.240234375 1314.28027344 625.240234375 1322.40039062 609 c 132,-1,83
 1330.51953125 592.759765625 1330.51953125 592.759765625 1346.1796875 542.299804688 c 132,-1,84
 1361.83984375 491.83984375 1361.83984375 491.83984375 1376.91992188 470.959960938 c 132,-1,85
 1392 450.080078125 1392 450.080078125 1416.35986328 442.540039062 c 132,-1,86
 1440.71972656 435 1440.71972656 435 1474.9399414 435 c 132,-1,87
 1509.16015625 435 1509.16015625 435 1519.02001953 439.060058594 c 132,-1,88
 1528.87988281 443.120117188 1528.87988281 443.120117188 1528.87988281 452.400390625 c 260,89,90
 1528.87988281 461.6796875 1528.87988281 461.6796875 1516.12011719 467.48046875 c 4,91,92
 1504.51953125 470.959960938 1504.51953125 470.959960938 1496.98046875 487.200195312 c 132,-1,93
 1489.44042969 503.440429688 1489.44042969 503.440429688 1474.36035156 551.580078125 c 132,-1,94
 1459.28027344 599.719726562 1459.28027344 599.719726562 1448.83984375 618.280273438 c 132,-1,95
 1438.40039062 636.83984375 1438.40039062 636.83984375 1423.3203125 644.959960938 c 4,96,97
 1393.16015626 661.200195312 1393.16015626 661.200195312 1342.9897054 661.200195312 c 132,-1,98
 1292.81925453 661.200195312 1292.81925453 661.200195312 1285.28027344 646.120117188 c 5,79,-1
1307.3203125 356.120117188 m 4,99,100
 1279.48046875 359.599609375 1279.48046875 359.599609375 1220.90039062 359.599609375 c 132,-1,101
 1162.3203125 359.599609375 1162.3203125 359.599609375 599.719726562 352.639648438 c 5,102,103
 469.799804688 352.639648438 469.799804688 352.639648438 431.51953125 357.280273438 c 4,104,105
 273.759765625 377 273.759765625 377 235.48046875 400.200195312 c 4,106,107
 230.83984375 403.6796875 230.83984375 403.6796875 222.140136719 403.6796875 c 132,-1,108
 213.440429688 403.6796875 213.440429688 403.6796875 208.219726562 393.8203125 c 132,-1,109
 203 383.959960938 203 383.959960938 205.3203125 368.879882812 c 4,110,111
 213.440429688 324.799804688 213.440429688 324.799804688 271.440429688 291.16015625 c 132,-1,112
 329.440429688 257.51953125 329.440429688 257.51953125 433.840332031 239.539550781 c 132,-1,113
 538.240234375 221.559570312 538.240234375 221.559570312 663.51953125 221.559570312 c 6,114,-1
 706.440429688 221.559570312 l 5,115,116
 845.639648438 225.040039062 845.639648438 225.040039062 1070.6796875 225.040039062 c 132,-1,117
 1295.71972656 225.040039062 1295.71972656 225.040039062 1314.28027344 223.879882812 c 4,118,119
 1463.63254817 213.630011451 1463.63254817 213.630011451 1540.48046875 187.33984375 c 4,120,121
 1562.51953125 179.799804688 1562.51953125 179.799804688 1568.31982422 175.739746094 c 132,-1,122
 1574.12011719 171.6796875 1574.12011719 171.6796875 1577.59960938 171.6796875 c 4,123,124
 1591.51953125 171.6796875 1591.51953125 171.6796875 1591.51953125 196.619628906 c 132,-1,125
 1591.51953125 221.559570312 1591.51953125 221.559570312 1574.12011719 235.48046875 c 4,126,127
 1458.12011719 334.080078125 1458.12011719 334.080078125 1307.3203125 356.120117188 c 4,99,100
EndSplineSet
EndChar

StartChar: c
Encoding: 99 99 30
Width: 1505
VWidth: 1392
GlyphClass: 1
Flags: W
LayerCount: 2
Back
SplineSet
235 171.5 m 128,-1,1
 243 170 243 170 246.5 170 c 128,-1,2
 250 170 250 170 252 171 c 0,3,4
 259 174 259 174 262.5 185 c 128,-1,5
 266 196 266 196 261 200 c 0,6,7
 258 205 258 205 241 208 c 0,8,9
 198 215 198 215 175.5 232 c 128,-1,10
 153 249 153 249 153 271 c 0,11,12
 153 308 153 308 204.5 328 c 128,-1,13
 256 348 256 348 350 348 c 0,14,15
 540 348 540 348 606 275 c 0,16,17
 617 262 617 262 621.5 255 c 128,-1,18
 626 248 626 248 626 242 c 0,19,20
 626 217 626 217 586 215 c 0,21,22
 568 213 568 213 560.5 211 c 128,-1,23
 553 209 553 209 550 205 c 2,24,-1
 548 200 l 2,25,26
 548 195 548 195 557 189 c 0,27,28
 567 182 567 182 619.5 175 c 128,-1,29
 672 168 672 168 695 171 c 0,30,31
 729 176 729 176 743 179.5 c 128,-1,32
 757 183 757 183 763 191.5 c 128,-1,33
 769 200 769 200 769 219 c 0,34,35
 769 243 769 243 763 258.5 c 128,-1,36
 757 274 757 274 741 289 c 0,37,38
 681 349 681 349 514 371 c 0,39,40
 394 387 394 387 327 387 c 0,41,42
 275 387 275 387 224 378.5 c 128,-1,43
 173 370 173 370 111 350 c 0,44,45
 73 338 73 338 56 326 c 128,-1,46
 39 314 39 314 34 296 c 0,47,48
 31 286 31 286 31 274 c 256,49,50
 31 262 31 262 34 256 c 0,51,52
 44 229 44 229 88 208 c 128,-1,53
 132 187 132 187 209 176 c 0,54,0
 227 173 227 173 235 171.5 c 128,-1,1
957 175 m 0,56,57
 981 175 981 175 988 178 c 0,58,59
 998 182 998 182 998 190 c 256,60,61
 998 198 998 198 987 203 c 0,62,63
 977 206 977 206 970 220.5 c 128,-1,64
 963 235 963 235 948 284 c 0,65,66
 938 317 938 317 929 333 c 128,-1,67
 920 349 920 349 907 356.5 c 128,-1,68
 894 364 894 364 869 367 c 0,69,70
 851 370 851 370 835 370 c 0,71,72
 816 370 816 370 803.5 366.5 c 128,-1,73
 791 363 791 363 788 357 c 2,74,-1
 788 355 l 2,75,76
 788 348 788 348 801 343 c 0,77,78
 813 339 813 339 820 325 c 128,-1,79
 827 311 827 311 843 259 c 0,80,81
 854 224 854 224 867 206 c 128,-1,82
 880 188 880 188 901 181 c 0,83,55
 922 175 922 175 957 175 c 0,56,57
1137 175 m 0,85,86
 1161 175 1161 175 1168 178 c 0,87,88
 1178 182 1178 182 1178 190 c 256,89,90
 1178 198 1178 198 1167 203 c 0,91,92
 1157 206 1157 206 1150.5 220 c 128,-1,93
 1144 234 1144 234 1128 284 c 0,94,95
 1118 317 1118 317 1109 333 c 128,-1,96
 1100 349 1100 349 1087 356 c 128,-1,97
 1074 363 1074 363 1049 367 c 0,98,99
 1031 370 1031 370 1015 370 c 0,100,101
 996 370 996 370 983.5 366.5 c 128,-1,102
 971 363 971 363 968 357 c 2,103,-1
 968 355 l 2,104,105
 968 348 968 348 981 343 c 0,106,107
 993 339 993 339 1000 325 c 128,-1,108
 1007 311 1007 311 1023 259 c 0,109,110
 1034 224 1034 224 1047 206 c 128,-1,111
 1060 188 1060 188 1081 181 c 0,112,84
 1102 175 1102 175 1137 175 c 0,85,86
1216 -52 m 0,114,115
 1222 -52 1222 -52 1225 -46.5 c 128,-1,116
 1228 -41 1228 -41 1228 -32 c 0,117,118
 1228 -9 1228 -9 1213 3 c 0,119,120
 1113 88 1113 88 983 107 c 0,121,122
 959 110 959 110 858 110 c 0,123,124
 743 110 743 110 612 107 c 0,125,126
 482 104 482 104 373 104 c 0,127,128
 261 104 261 104 228 108 c 0,129,130
 92 125 92 125 59 145 c 0,131,132
 54 148 54 148 49 148 c 0,133,134
 40 148 40 148 35.5 139.5 c 128,-1,135
 31 131 31 131 33 118 c 0,136,137
 40 80 40 80 90 51 c 128,-1,138
 140 22 140 22 225 7 c 0,139,140
 320 -9 320 -9 428 -9 c 2,141,-1
 465 -9 l 2,142,143
 585 -6 585 -6 852 -6 c 0,144,145
 973 -6 973 -6 989 -7 c 0,146,147
 1091 -14 1091 -14 1147 -28 c 0,148,149
 1165 -32 1165 -32 1184 -38.5 c 128,-1,150
 1203 -45 1203 -45 1208 -49 c 0,151,113
 1213 -52 1213 -52 1216 -52 c 0,114,115
EndSplineSet
Fore
SplineSet
319 430.940429688 m 132,-1,1
 328.280273438 429.200195312 328.280273438 429.200195312 332.33984375 429.200195312 c 132,-1,2
 336.400390625 429.200195312 336.400390625 429.200195312 341.620117188 431.520019531 c 132,-1,3
 346.83984375 433.83984375 346.83984375 433.83984375 350.900390625 446.599609375 c 132,-1,4
 354.959960938 459.360351562 354.959960938 459.360351562 349.16015625 464 c 4,5,6
 345.6796875 469.799804688 345.6796875 469.799804688 325.959960938 473.280273438 c 4,7,8
 276.080078125 481.400390625 276.080078125 481.400390625 249.98046875 501.120117188 c 132,-1,9
 223.879882812 520.83984375 223.879882812 520.83984375 223.879882812 546.360351562 c 4,10,11
 223.879882812 589.280273438 223.879882812 589.280273438 283.620117188 612.48046875 c 132,-1,12
 343.360351562 635.6796875 343.360351562 635.6796875 452.400390625 635.6796875 c 4,13,14
 697.993124134 635.6796875 697.993124134 635.6796875 767.33984375 527.799804688 c 4,15,16
 772.559570312 519.6796875 772.559570312 519.6796875 772.559570312 512.719726562 c 4,17,18
 772.559570312 483.719726562 772.559570312 483.719726562 726.16015625 481.400390625 c 4,19,20
 690.093233715 477.392392498 690.093233715 477.392392498 684.400390625 469.799804688 c 5,21,-1
 682.080078125 464 l 5,22,23
 682.080078125 458.200195312 682.080078125 458.200195312 693.100097656 450.66015625 c 132,-1,24
 704.120117188 443.120117188 704.120117188 443.120117188 765.01953125 435 c 132,-1,25
 825.919921875 426.879882812 825.919921875 426.879882812 858.979980469 431.520019531 c 132,-1,26
 892.040039062 436.16015625 892.040039062 436.16015625 908.280273438 440.219726562 c 132,-1,27
 924.51953125 444.280273438 924.51953125 444.280273438 931.48046875 454.139648438 c 132,-1,28
 938.440429688 464 938.440429688 464 938.440429688 488.939941406 c 4,29,30
 938.440429688 536.788406319 938.440429688 536.788406319 905.959960938 567.240234375 c 4,31,32
 836.360351562 636.83984375 836.360351562 636.83984375 642.639648438 662.360351562 c 4,33,34
 503.440429688 680.919921875 503.440429688 680.919921875 434.420410156 680.919921875 c 4,35,36
 308.21064943 680.919921875 308.21064943 680.919921875 175.16015625 638 c 4,37,38
 131.080078125 624.080078125 131.080078125 624.080078125 111.360351562 610.16015625 c 4,39,40
 82.3603515625 589.690412762 82.3603515625 589.690412762 82.3603515625 549.83984375 c 260,41,42
 82.3603515625 504.836768284 82.3603515625 504.836768284 148.48046875 473.280273438 c 4,43,44
 199.51953125 448.919921875 199.51953125 448.919921875 288.83984375 436.16015625 c 4,45,0
 309.719726562 432.6796875 309.719726562 432.6796875 319 430.940429688 c 132,-1,1
960.48046875 646.120117188 m 5,46,-1
 960.48046875 643.799804688 l 6,47,48
 960.48046875 635.6796875 960.48046875 635.6796875 974.98046875 630.459960938 c 132,-1,49
 989.48046875 625.240234375 989.48046875 625.240234375 997.599609375 609 c 132,-1,50
 1005.71972656 592.759765625 1005.71972656 592.759765625 1021.37988281 542.299804688 c 132,-1,51
 1037.04003906 491.83984375 1037.04003906 491.83984375 1052.12011719 470.959960938 c 132,-1,52
 1067.20019531 450.080078125 1067.20019531 450.080078125 1091.5600586 442.540039062 c 132,-1,53
 1115.91992188 435 1115.91992188 435 1150.14013672 435 c 132,-1,54
 1184.36035156 435 1184.36035156 435 1194.22021484 439.060058594 c 132,-1,55
 1204.08007812 443.120117188 1204.08007812 443.120117188 1204.08007812 452.400390625 c 260,56,57
 1204.08007812 461.6796875 1204.08007812 461.6796875 1191.3203125 467.48046875 c 4,58,59
 1179.71972656 470.959960938 1179.71972656 470.959960938 1171.59960938 487.780273438 c 132,-1,60
 1163.48046875 504.599609375 1163.48046875 504.599609375 1148.98046875 552.159667969 c 132,-1,61
 1134.48046875 599.719726562 1134.48046875 599.719726562 1124.04003906 618.280273438 c 132,-1,62
 1113.59960938 636.83984375 1113.59960938 636.83984375 1098.51953125 645.540039062 c 4,63,64
 1071.37748696 661.200195312 1071.37748696 661.200195312 1019.69846841 661.200195312 c 132,-1,65
 968.019449859 661.200195312 968.019449859 661.200195312 960.48046875 646.120117188 c 5,46,-1
1169.28027344 646.120117188 m 5,66,-1
 1169.28027344 643.799804688 l 6,67,68
 1169.28027344 635.6796875 1169.28027344 635.6796875 1183.78027344 630.459960938 c 132,-1,69
 1198.28027344 625.240234375 1198.28027344 625.240234375 1206.40039062 609 c 132,-1,70
 1214.51953125 592.759765625 1214.51953125 592.759765625 1230.1796875 542.299804688 c 132,-1,71
 1245.83984375 491.83984375 1245.83984375 491.83984375 1260.91992188 470.959960938 c 132,-1,72
 1276 450.080078125 1276 450.080078125 1300.35986328 442.540039062 c 132,-1,73
 1324.71972656 435 1324.71972656 435 1358.9399414 435 c 132,-1,74
 1393.16015625 435 1393.16015625 435 1403.02001953 439.060058594 c 132,-1,75
 1412.87988281 443.120117188 1412.87988281 443.120117188 1412.87988281 452.400390625 c 260,76,77
 1412.87988281 461.6796875 1412.87988281 461.6796875 1400.12011719 467.48046875 c 4,78,79
 1388.51953125 470.959960938 1388.51953125 470.959960938 1380.98046875 487.200195312 c 132,-1,80
 1373.44042969 503.440429688 1373.44042969 503.440429688 1358.36035156 551.580078125 c 132,-1,81
 1343.28027344 599.719726562 1343.28027344 599.719726562 1332.83984375 618.280273438 c 132,-1,82
 1322.40039062 636.83984375 1322.40039062 636.83984375 1307.3203125 644.959960938 c 4,83,84
 1277.16015626 661.200195312 1277.16015626 661.200195312 1226.9897054 661.200195312 c 132,-1,85
 1176.81925453 661.200195312 1176.81925453 661.200195312 1169.28027344 646.120117188 c 5,66,-1
1186.6796875 356.120117188 m 4,86,87
 1158.83984375 359.599609375 1158.83984375 359.599609375 1100.25976562 359.599609375 c 132,-1,88
 1041.6796875 359.599609375 1041.6796875 359.599609375 479.080078125 352.639648438 c 5,89,90
 349.16015625 352.639648438 349.16015625 352.639648438 310.879882812 357.280273438 c 4,91,92
 153.120117188 377 153.120117188 377 114.83984375 400.200195312 c 4,93,94
 109.040039062 403.6796875 109.040039062 403.6796875 100.919921875 403.6796875 c 132,-1,95
 92.7998046875 403.6796875 92.7998046875 403.6796875 87.580078125 393.8203125 c 132,-1,96
 82.3603515625 383.959960938 82.3603515625 383.959960938 84.6796875 368.879882812 c 4,97,98
 92.7998046875 324.799804688 92.7998046875 324.799804688 150.799804688 291.16015625 c 132,-1,99
 208.799804688 257.51953125 208.799804688 257.51953125 313.199707031 239.539550781 c 132,-1,100
 417.599609375 221.559570312 417.599609375 221.559570312 542.879882812 221.559570312 c 6,101,-1
 585.799804688 221.559570312 l 5,102,103
 725 225.040039062 725 225.040039062 950.04003906 225.040039062 c 132,-1,104
 1175.08007812 225.040039062 1175.08007812 225.040039062 1193.63964844 223.879882812 c 4,105,106
 1342.99161383 213.630117278 1342.99161383 213.630117278 1419.83984375 187.33984375 c 4,107,108
 1441.87988281 179.799804688 1441.87988281 179.799804688 1447.68017578 175.739746094 c 132,-1,109
 1453.48046875 171.6796875 1453.48046875 171.6796875 1456.95996094 171.6796875 c 4,110,111
 1470.87988281 171.6796875 1470.87988281 171.6796875 1470.87988281 196.619628906 c 132,-1,112
 1470.87988281 221.559570312 1470.87988281 221.559570312 1453.48046875 235.48046875 c 4,113,114
 1337.48046875 334.080078125 1337.48046875 334.080078125 1186.6796875 356.120117188 c 4,86,87
EndSplineSet
EndChar

StartChar: d
Encoding: 100 100 31
Width: 46
VWidth: 1392
GlyphClass: 1
Flags: W
LayerCount: 2
Back
SplineSet
-408 209 m 0,1,2
 -363 209 -363 209 -347 212 c 128,-1,3
 -331 215 -331 215 -320 226 c 0,4,5
 -304 242 -304 242 -304 269 c 0,6,7
 -304 282 -304 282 -309 299 c 0,8,9
 -316 318 -316 318 -346 328 c 128,-1,10
 -376 338 -376 338 -425 338 c 0,11,12
 -494 338 -494 338 -494 317 c 0,13,14
 -494 306 -494 306 -474 289 c 0,15,16
 -460 278 -460 278 -460 270 c 0,17,18
 -460 264 -460 264 -474 264 c 0,19,20
 -493 264 -493 264 -532 275 c 128,-1,21
 -571 286 -571 286 -620 306 c 0,22,23
 -640 315 -640 315 -657 321 c 128,-1,24
 -674 327 -674 327 -681 327 c 0,25,26
 -692 327 -692 327 -692 316 c 0,27,28
 -692 310 -692 310 -689 299 c 0,29,30
 -682 271 -682 271 -638 249 c 128,-1,31
 -594 227 -594 227 -519 217 c 0,32,0
 -460 209 -460 209 -408 209 c 0,1,2
EndSplineSet
Fore
SplineSet
-693.6796875 520.83984375 m 0,0,1
 -642.639648438 495.3203125 -642.639648438 495.3203125 -564.919921875 484.880371094 c 128,-1,2
 -487.200195312 474.440429688 -487.200195312 474.440429688 -430.939941406 474.440429688 c 128,-1,3
 -374.6796875 474.440429688 -374.6796875 474.440429688 -356.120117188 477.919921875 c 128,-1,4
 -337.559570312 481.400390625 -337.559570312 481.400390625 -321.899902344 497.060058594 c 128,-1,5
 -306.240234375 512.719726562 -306.240234375 512.719726562 -306.240234375 535.919921875 c 128,-1,6
 -306.240234375 559.120117188 -306.240234375 559.120117188 -312.040039062 578.83984375 c 0,7,8
 -328.707704836 624.080078125 -328.707704836 624.080078125 -446.599609375 624.080078125 c 0,9,10
 -526.639648438 624.080078125 -526.639648438 624.080078125 -526.639648438 599.719726562 c 0,11,12
 -526.639648438 586.959960938 -526.639648438 586.959960938 -506.919921875 570.720214844 c 128,-1,13
 -487.200195312 554.48046875 -487.200195312 554.48046875 -487.200195312 545.200195312 c 0,14,15
 -487.200195312 538.240234375 -487.200195312 538.240234375 -506.340332031 538.240234375 c 0,16,17
 -553.4378076 538.240234375 -553.4378076 538.240234375 -672.799804688 586.959960938 c 0,18,19
 -726.932147039 611.3203125 -726.932147039 611.3203125 -741.626229769 611.3203125 c 128,-1,20
 -756.3203125 611.3203125 -756.3203125 611.3203125 -756.3203125 598.559570312 c 0,21,22
 -756.3203125 552.160755509 -756.3203125 552.160755509 -693.6796875 520.83984375 c 0,0,1
EndSplineSet
EndChar

